<svg xmlns="http://www.w3.org/2000/svg" xmlns:xlink="http://www.w3.org/1999/xlink" version="1.1" id="ymzihnipel-Layer_2_00000129185106328044723380000012755447281523067793_" x="0px" y="0px" viewBox="0 0 19 19" style="enable-background:new 0 0 19 19;" xml:space="preserve">
<style type="text/css">
	.ymzihnipel-st0{fill:#FFFFFF;}
</style>
<g>
	<path class="ymzihnipel-st0" d="M14.3,4H4.7C3.5,4,2.6,5,2.6,6.1v5.8c0,1.2,1,2.1,2.1,2.1h4.7v3.5L13,14h1.3c1.2,0,2.1-1,2.1-2.1V6.1   C16.5,4.9,15.5,4,14.3,4z M14.3,13.3h-1.6L10,15.8v-2.5H4.7c-0.8,0-1.4-0.6-1.4-1.4V6.1c0-0.8,0.6-1.4,1.4-1.4h9.7   c0.8,0,1.4,0.6,1.4,1.4v5.8l0,0C15.7,12.7,15.1,13.3,14.3,13.3z"/>
	<path class="ymzihnipel-st0" d="M5.9,7.5H10v0.8H5.9V7.5z M5.9,9.5h7.2v0.8H5.9V9.5z"/>
</g>
</svg>