<?xml version="1.0" encoding="utf-8"?>
<!-- Generator: Adobe Illustrator 27.7.0, SVG Export Plug-In . SVG Version: 6.00 Build 0)  -->
<svg version="1.1" id="neqofwvfpf-Layer_2_00000098908964461441591920000017255664549256429207_"
	 xmlns="http://www.w3.org/2000/svg" xmlns:xlink="http://www.w3.org/1999/xlink" x="0px" y="0px" viewBox="0 0 19 19"
	 style="enable-background:new 0 0 19 19;" xml:space="preserve">
<style type="text/css">
	.st0{fill:#FF3C00;}
</style>
<path class="st0" d="M9.5,14.7c-4.2,0-7.6-4.8-7.7-5L1.6,9.5l0.1-0.2c0.1-0.2,3.5-5,7.7-5s7.6,4.8,7.7,5l0.1,0.2l-0.1,0.2
	C17.1,9.9,13.7,14.7,9.5,14.7z M2.6,9.5C3.2,10.4,6.1,14,9.5,14s6.3-3.6,6.9-4.5C15.8,8.6,12.9,5,9.5,5S3.2,8.6,2.6,9.5z M9.5,12.5
	c-1.6,0-3-1.3-3-3s1.3-3,3-3c1.6,0,3,1.3,3,3S11.1,12.5,9.5,12.5z M9.5,7.3c-1.2,0-2.2,1-2.2,2.2s1,2.2,2.2,2.2s2.2-1,2.2-2.2
	S10.7,7.3,9.5,7.3z M9.5,10.2c-0.4,0-0.7-0.3-0.7-0.7s0.3-0.7,0.7-0.7s0.7,0.3,0.7,0.7S9.9,10.2,9.5,10.2z M9.5,9.5L9.5,9.5L9.5,9.5
	z"/>
</svg>
