<?xml version="1.0" encoding="utf-8"?>
<!-- Generator: Adobe Illustrator 27.7.0, SVG Export Plug-In . SVG Version: 6.00 Build 0)  -->
<svg version="1.1" id="Layer_1" xmlns="http://www.w3.org/2000/svg" xmlns:xlink="http://www.w3.org/1999/xlink" x="0px" y="0px"
	 viewBox="0 0 24 24" style="enable-background:new 0 0 24 24;" xml:space="preserve">
<style type="text/css">
	.st0{fill:none;}
	.st1{fill:#FF3C00;}
</style>
<path class="st0" d="M6.9,20.9C7,20.8,7,20.8,7,20.7c0,0,0,0,0,0l-0.1,0l0,0c0,0,0.1,0,0.1,0.1c0.1,0,0.1,0.1,0.2,0.1
	c0.1,0.1,0.1,0.1,0.2,0.1c0,0,0,0.1,0,0.1c-0.1,0.1-0.2,0.1-0.3,0.1l0,0c0.1,0.1,0.1,0.1,0.1,0.2c0,0,0,0.1,0,0.1c0,0,0,0.1,0,0.1
	c0,0,0,0,0,0l0,0c0,0-0.1,0-0.1,0c-0.1,0-0.1-0.1-0.1-0.2c0,0,0-0.1,0-0.1c0-0.1,0-0.2-0.1-0.2l0,0l-0.1,0.1c0,0.1-0.1,0.1-0.1,0.2
	c0,0,0,0,0.1,0.1l0,0c0,0-0.1-0.1-0.1-0.1c-0.1,0-0.1-0.1-0.2-0.1l0,0c0.1,0,0.1,0,0.1,0c0,0,0-0.1,0.1-0.2L6.9,20.9L6.9,20.9z
	 M7,21.1L7,21.1c0.1,0.1,0.2,0.1,0.3,0c0,0,0-0.1,0-0.1c0,0,0-0.1-0.1-0.1c0,0,0,0-0.1,0c0,0,0,0,0,0c0,0,0,0-0.1,0.1L7,21.1L7,21.1
	z"/>
<path class="st0" d="M7.8,21.3c0-0.1,0-0.1,0.1-0.1c0,0,0,0-0.1-0.1l0,0c0,0,0.1,0,0.2,0.1c0.1,0,0.1,0,0.2,0.1l0,0
	c-0.1,0-0.1,0-0.1,0c0,0,0,0.1-0.1,0.1l-0.1,0.3c0,0.1-0.1,0.1-0.1,0.2c0,0,0,0,0.1,0.1l0,0c0,0-0.1-0.1-0.2-0.1
	c-0.1,0-0.1,0-0.2-0.1l0,0c0.1,0,0.1,0,0.1,0c0,0,0-0.1,0.1-0.2L7.8,21.3L7.8,21.3z"/>
<path class="st0" d="M8.4,21.3c0,0,0.1,0,0.1,0c0,0,0.1,0,0.1,0c0,0,0,0.1,0,0.1c0,0.1,0.1,0.3,0.2,0.6c0.1-0.3,0.1-0.4,0.2-0.5
	c0,0,0-0.1,0-0.1l-0.1,0l0,0c0.1,0,0.1,0,0.1,0.1c0,0,0.1,0,0.1,0l0,0c0,0,0,0-0.1,0c0,0,0,0,0,0c0,0-0.1,0.2-0.1,0.4l-0.1,0.3
	c0,0-0.1,0-0.1,0c0-0.2-0.1-0.5-0.2-0.8C8.4,21.7,8.3,22,8.3,22c0,0,0,0,0,0.1c0,0,0,0,0.1,0l0,0c0,0-0.1,0-0.2-0.1
	c-0.1,0-0.1,0-0.1,0l0,0c0,0,0,0,0.1,0c0,0,0,0,0.1,0c0,0,0.1-0.3,0.2-0.6C8.5,21.4,8.5,21.4,8.4,21.3C8.5,21.4,8.5,21.4,8.4,21.3
	L8.4,21.3L8.4,21.3L8.4,21.3z"/>
<path class="st0" d="M10,22c0-0.2,0-0.3-0.2-0.3c-0.1,0-0.1,0-0.2,0.1c-0.1,0.1-0.1,0.1-0.1,0.3c0,0.1,0,0.2,0,0.3
	c0,0.1,0.1,0.1,0.2,0.1c0.1,0,0.1,0,0.1,0c0,0,0-0.1,0-0.2c0-0.1,0-0.1,0-0.1l-0.1,0l0,0c0,0,0.1,0,0.2,0c0.1,0,0.1,0,0.1,0l0,0
	c-0.1,0-0.1,0-0.1,0c0,0,0,0.1,0,0.1c0,0.1,0,0.1,0,0.1c0,0-0.1,0-0.1,0c0,0-0.1,0-0.2,0c-0.1,0-0.2-0.1-0.3-0.2c0-0.1,0-0.2,0-0.3
	c0-0.2,0.1-0.3,0.3-0.3c0.1,0,0.1,0,0.2,0c0.1,0,0.2,0.1,0.2,0.1l0-0.1l0,0C10,21.8,10,21.9,10,22L10,22L10,22z"/>
<path class="st0" d="M10.4,22.4c0,0.1,0,0.2,0.2,0.3c0.1,0,0.2,0,0.2-0.1c0-0.1,0-0.1,0-0.1c0,0-0.1-0.1-0.2-0.1
	c-0.1-0.1-0.1-0.1-0.1-0.2c0-0.1,0.1-0.2,0.3-0.2c0.1,0,0.1,0,0.2,0.1l0-0.1l0,0c0,0.1,0,0.2-0.1,0.2l0,0c0-0.1,0-0.2-0.1-0.2
	c-0.1,0-0.1,0-0.1,0.1c0,0.1,0,0.1,0.1,0.1c0.1,0.1,0.1,0.1,0.2,0.1c0.1,0,0.1,0.1,0.1,0.2c0,0.2-0.2,0.2-0.3,0.2
	c-0.1,0-0.2,0-0.2-0.1C10.4,22.5,10.4,22.4,10.4,22.4L10.4,22.4L10.4,22.4z"/>
<path class="st0" d="M11.6,22.7c0.1,0,0.2,0,0.2-0.2c0-0.2,0-0.4,0-0.4c0,0,0,0-0.1-0.1l-0.1,0l0,0c0,0,0.1,0,0.1,0c0,0,0.1,0,0.1,0
	l0,0l0,0c0,0,0,0,0,0c0,0.2,0,0.4,0,0.5c0,0.1,0,0.1-0.1,0.2C11.7,22.7,11.7,22.8,11.6,22.7c-0.1,0.1-0.2,0-0.3,0c0,0-0.1-0.1,0-0.2
	c0-0.1,0-0.4,0-0.4c0,0,0,0,0,0l-0.1,0l0,0c0,0,0.1,0,0.2,0c0,0,0.1,0,0.2,0l0,0l-0.1,0c0,0,0,0,0,0c0,0.1,0,0.3,0,0.5
	c0,0.1,0,0.1,0,0.1C11.5,22.7,11.6,22.7,11.6,22.7L11.6,22.7L11.6,22.7z"/>
<path class="st0" d="M12.2,22c0.1,0,0.1,0,0.2,0c0,0,0.1,0,0.1,0c0,0.1,0.2,0.4,0.3,0.6c0.1-0.2,0.2-0.5,0.2-0.6c0,0,0.1,0,0.1,0
	c0.1,0,0.1,0,0.1,0l0,0c0,0-0.1,0-0.1,0c0,0,0,0,0,0c0,0,0,0.1,0,0.2c0,0.2,0,0.4,0,0.5c0,0,0,0,0,0l0.1,0l0,0c0,0-0.1,0-0.2,0
	c-0.1,0-0.1,0-0.2,0l0,0c0.1,0,0.1,0,0.1,0c0-0.1,0-0.4,0-0.6h0c-0.1,0.3-0.2,0.6-0.2,0.7l-0.1,0c-0.1-0.1-0.2-0.5-0.3-0.7h0
	c0,0.2,0,0.5,0.1,0.6c0,0.1,0,0.1,0.1,0.1l0.1,0l0,0c0,0-0.1,0-0.2,0c-0.1,0-0.1,0-0.1,0l0,0c0,0,0,0,0.1,0c0,0,0,0,0-0.1
	c0-0.1,0-0.3,0-0.6l0,0C12.3,22,12.3,22,12.2,22L12.2,22L12.2,22L12.2,22z"/>
<path class="st0" d="M13.5,21.9c0.1,0,0.1,0,0.2,0c0,0,0.1,0,0.1,0c0,0.1,0.2,0.4,0.4,0.5c0.1-0.3,0.1-0.6,0.1-0.6c0,0,0.1,0,0.1,0
	c0.1,0,0.1,0,0.1,0l0,0c0,0-0.1,0-0.1,0c0,0,0,0,0,0c0,0,0,0.1,0,0.2c0,0.2,0.1,0.4,0.1,0.5c0,0,0,0,0,0l0.1,0l0,0c0,0-0.1,0-0.2,0
	c0,0-0.1,0-0.2,0l0,0c0.1,0,0.1,0,0.1-0.1c0-0.1-0.1-0.4-0.1-0.6h0c-0.1,0.3-0.1,0.6-0.1,0.8l-0.1,0c-0.1-0.1-0.3-0.5-0.4-0.6l0,0
	c0,0.2,0.1,0.5,0.1,0.6c0,0.1,0,0.1,0.1,0.1l0.1,0l0,0c0,0-0.1,0-0.2,0c-0.1,0-0.1,0-0.1,0l0,0c0,0,0,0,0.1,0c0,0,0,0,0-0.1
	c0-0.1-0.1-0.3-0.1-0.6l0,0C13.6,21.9,13.6,21.9,13.5,21.9L13.5,21.9L13.5,21.9L13.5,21.9z"/>
<path class="st0" d="M14.7,21.6c0,0,0.1,0,0.2-0.1l0.2-0.1c0.1,0,0.1,0,0.2-0.1c0,0,0,0.1,0.1,0.2l0,0c0,0,0-0.1-0.1-0.1
	c0,0-0.1,0-0.2,0l-0.1,0c0,0,0,0,0,0c0,0,0,0.1,0,0.2l0,0.1c0,0,0,0,0.1,0c0.1,0,0.1-0.1,0.1-0.1l0,0c0,0.1,0.1,0.2,0.1,0.3l0,0
	c0-0.1-0.1-0.1-0.2-0.1c0,0-0.1,0-0.1,0l0,0.1c0,0.1,0,0.1,0.1,0.2c0,0,0,0,0.1,0c0.1,0,0.1-0.1,0.2-0.1c0,0,0-0.1,0-0.2l0,0
	c0,0,0,0.2,0,0.2c0,0-0.1,0-0.3,0.1l-0.1,0c-0.1,0-0.1,0.1-0.2,0.1l0,0l0.1,0c0,0,0,0,0-0.1c0,0,0-0.1-0.1-0.2l-0.1-0.2
	c0-0.1,0-0.1-0.1-0.2C14.8,21.6,14.8,21.6,14.7,21.6L14.7,21.6L14.7,21.6L14.7,21.6z"/>
<path class="st0" d="M15.8,21.5c0-0.1-0.1-0.1-0.1-0.2c0,0,0,0,0,0l-0.1,0l0,0c0,0,0.1,0,0.1-0.1c0.1,0,0.1-0.1,0.2-0.1
	c0.1,0,0.2-0.1,0.2,0c0,0,0.1,0.1,0.1,0.1c0.1,0.1,0,0.2-0.1,0.3l0,0c0.1,0,0.2,0,0.3,0.1c0,0,0,0.1,0.1,0.1c0,0,0.1,0.1,0.1,0
	c0,0,0,0,0,0l0,0c0,0,0,0-0.1,0c-0.1,0-0.2,0-0.2-0.1c0,0,0-0.1,0-0.1c-0.1-0.1-0.1-0.1-0.2-0.1l0,0l0,0.1c0,0.1,0.1,0.1,0.1,0.2
	c0,0,0,0,0.1,0l0,0c0,0-0.1,0-0.2,0.1C16,22,15.9,22,15.9,22l0,0c0.1,0,0.1,0,0.1-0.1c0,0,0-0.1-0.1-0.2L15.8,21.5L15.8,21.5z
	 M15.9,21.5L15.9,21.5c0.1-0.1,0.2-0.1,0.1-0.2c0,0,0-0.1-0.1-0.1c0,0-0.1,0-0.1,0c0,0,0,0,0,0c0,0,0,0,0,0c0,0,0,0.1,0.1,0.2
	L15.9,21.5L15.9,21.5z"/>
<path class="st0" d="M16.9,21.4c0,0,0.1,0,0.1,0c0,0,0,0.1,0,0.1c0,0-0.1,0-0.1,0C16.8,21.5,16.8,21.4,16.9,21.4L16.9,21.4z"/>
<g>
	<path class="st1" d="M17.4,20.5c-0.1,0-0.1,0-0.2,0c-0.1,0-0.1,0.1-0.1,0.1c0,0,0,0.1,0.1,0.2l0.1,0.2c0.1,0.1,0.1,0.2,0.1,0.2
		c0,0,0,0,0.1,0c0.1-0.1,0.1-0.1,0.1-0.2c0-0.1,0-0.2-0.1-0.3C17.6,20.5,17.5,20.5,17.4,20.5z"/>
	<polygon class="st1" points="17.9,12.5 17.6,12.5 17.6,13.9 17.8,14.3 17.6,14.7 17.6,16.1 17.9,16.1 17.9,14.7 18.1,14.3 
		17.9,13.9 	"/>
	<polygon class="st1" points="14.8,12.5 14.5,12.5 14.5,15.2 14.6,15.6 14.5,16 14.5,18.8 14.8,18.8 14.8,16 15,15.6 14.8,15.2 	"/>
	<path class="st1" d="M21.4,7.3c0.1,0,0.1-0.1,0.1-0.1c0-0.1,0-0.1,0-0.2c0,0,0-0.1-0.1-0.1c0,0,0,0,0,0c0,0-0.1,0-0.3,0.1l-0.2,0.1
		h0l0,0.1C21,7.4,21.2,7.4,21.4,7.3z"/>
	<path class="st1" d="M4.8,4.5C4.7,4.4,4.6,4.4,4.6,4.4c-0.1,0-0.1,0-0.2,0.1c0,0-0.1,0.1-0.1,0.1c0,0,0,0,0,0c0,0,0.1,0.1,0.2,0.2
		L4.7,5h0l0,0C4.9,4.8,4.9,4.6,4.8,4.5z"/>
	<rect x="5.2" y="13.9" class="st1" width="0.4" height="2.2"/>
	<polygon class="st1" points="8.3,8.3 8.1,8.7 8.3,9.1 8.3,11.7 8.7,11.7 8.7,9.1 8.5,8.7 8.7,8.3 8.7,5.6 8.3,5.6 	"/>
	<polygon class="st1" points="5.2,11.7 5.5,11.7 5.5,10.4 5.4,10 5.5,9.7 5.5,8.4 5.2,8.4 5.2,9.7 5,10 5.2,10.4 	"/>
	<path class="st1" d="M12,0C5.4,0,0,5.4,0,12c0,6.6,5.4,12,12,12c6.6,0,12-5.4,12-12C24,5.4,18.6,0,12,0z M22.7,11.6l-0.5,0v0
		c0-0.1,0-0.2,0-0.2l0.5,0C22.7,11.4,22.7,11.5,22.7,11.6z M22.6,10.6l-0.5,0.1h0c0-0.1,0-0.2,0-0.2l0.5-0.1
		C22.6,10.4,22.6,10.5,22.6,10.6z M22.4,9.3c0,0.1,0,0.2,0.1,0.2l-0.5,0.1v0c0-0.1,0-0.2-0.1-0.2L22.4,9.3z M18.6,3.4L18.6,3.4
		c0.1,0.1,0.1,0.1,0.2,0.2c0.1,0,0.1,0.1,0.1,0.1c-0.1,0.1-0.2,0.7-0.3,1c0.4-0.2,0.9-0.4,1-0.5c0,0,0.1,0.1,0.1,0.1
		c0.1,0.1,0.1,0.1,0.2,0.2l0,0.1c0,0-0.1-0.1-0.1-0.1c0,0,0,0-0.1,0c0,0-0.1,0.1-0.2,0.2C19.2,5,19,5.3,18.9,5.3c0,0,0,0.1,0,0.1
		L19,5.5l0,0c0,0-0.1-0.1-0.2-0.2c-0.1-0.1-0.2-0.1-0.2-0.2l0,0c0.1,0.1,0.1,0.1,0.2,0.1c0.1-0.1,0.5-0.5,0.8-0.8l0,0
		c-0.5,0.3-1,0.5-1.2,0.6l-0.1-0.1c0.1-0.3,0.3-0.9,0.5-1.2l0,0C18.4,4,18.1,4.3,18,4.5c-0.1,0.1-0.1,0.1,0,0.2l0.1,0.1l0,0
		c-0.1,0-0.1-0.1-0.2-0.2c-0.1-0.1-0.1-0.1-0.2-0.2l0,0c0,0,0.1,0,0.1,0.1c0,0,0.1,0,0.2-0.1C18,4.3,18.3,4,18.6,3.6l0,0
		c0,0,0,0,0-0.1L18.6,3.4L18.6,3.4z M17.1,8.2h-4.7L12,8.1l-0.4,0.2h-1.5V7.9h1.5L12,7.7v0l0.4,0.2h6.2c0.3,0,0.6,0.2,0.6,0.6v1.9
		l-0.2,0.3H17l0.2-0.3V8.4C17.2,8.3,17.1,8.2,17.1,8.2z M14.8,9.6L14.8,9.6V8.5H16v1.1L15.8,10h-1.9l0.2-0.4V8.5h0.4v1.1v0H14.8z
		 M16.1,3.3c0.1-0.1,0.3-0.5,0.5-0.9l0,0c0,0,0,0,0-0.1l-0.1-0.1l0-0.1c0,0,0,0,0,0l0,0l0,0c0.1,0.1,0.2,0.1,0.2,0.1
		c0.1,0,0.1,0.1,0.2,0.1c0,0.1-0.1,0.7-0.1,1.1c0.4-0.3,0.8-0.6,0.8-0.7c0,0,0.1,0.1,0.1,0.1C17.8,3,17.9,3,18,3l0,0.1
		c0,0-0.1,0-0.1-0.1c0,0,0,0-0.1,0c0,0-0.1,0.1-0.1,0.2c-0.2,0.4-0.3,0.6-0.4,0.7c0,0.1,0,0.1,0,0.1l0.1,0.1l0,0.1
		c0,0-0.2-0.1-0.3-0.1C17,4,16.9,4,16.8,3.9l0-0.1C17,3.9,17,3.9,17,3.9c0.1-0.1,0.3-0.6,0.6-1l0,0c-0.5,0.4-0.9,0.7-1,0.9l-0.1,0
		c0.1-0.3,0.1-0.9,0.2-1.3l0,0C16.5,2.8,16.3,3.1,16.1,3.3c0,0.2,0,0.2,0.1,0.2l0.1,0.1l0,0.1c-0.1,0-0.1-0.1-0.2-0.1
		c-0.1,0-0.2-0.1-0.2-0.1l0-0.1c0,0,0.1,0,0.1,0C16,3.4,16,3.4,16.1,3.3z M14.5,2.5c0-0.1,0.2-0.6,0.2-0.7c0,0,0-0.1,0-0.1l-0.1,0
		l0-0.1c0.1,0,0.2,0.1,0.3,0.1c0.1,0,0.2,0.1,0.3,0.1l0,0.1l-0.1,0c0,0,0,0-0.1,0c-0.1,0.1-0.2,0.6-0.3,0.8c0,0.1,0,0.2,0,0.3
		C14.8,2.9,14.9,3,15,3l0,0l0,0c0.2,0.1,0.3,0,0.4-0.2c0.1-0.3,0.2-0.6,0.2-0.7c0-0.1,0-0.1-0.1-0.1l-0.1,0l0-0.1
		c0.1,0,0.1,0.1,0.2,0.1c0.1,0,0.2,0,0.2,0.1l0,0.1l-0.1,0c-0.1,0-0.1,0-0.1,0.1c-0.1,0.3-0.2,0.6-0.3,0.8c-0.1,0.1-0.1,0.2-0.2,0.2
		c-0.1,0-0.2,0-0.3,0c-0.2-0.1-0.3-0.1-0.3-0.3C14.5,2.7,14.5,2.6,14.5,2.5z M13,2.2L13,2.2L13,2.2c0,0.3,0.1,0.4,0.3,0.5
		c0.1,0,0.3,0,0.3-0.2c0-0.1,0-0.2-0.1-0.2c-0.1,0-0.2-0.2-0.3-0.2c-0.1-0.1-0.2-0.2-0.1-0.4c0-0.2,0.2-0.4,0.5-0.3
		c0.1,0,0.2,0.1,0.3,0.1l0.1-0.1l0.1,0c-0.1,0.2-0.1,0.3-0.1,0.4l-0.1,0c0-0.2-0.1-0.4-0.2-0.4c-0.1,0-0.2,0.1-0.3,0.2
		c0,0.1,0,0.2,0.1,0.2c0.1,0.1,0.2,0.2,0.3,0.2c0.1,0.1,0.1,0.2,0.1,0.3c0,0.3-0.3,0.4-0.6,0.3c-0.1,0-0.3-0.1-0.4-0.1
		C13,2.5,13,2.3,13,2.2z M11.2,2c0.1-0.3,0.2-0.8,0.2-0.9l0.1,0l0,0C11.5,1.2,11.4,1.7,11.2,2c0,0.3,0,0.6-0.1,0.9l-0.1,0
		C11,2.7,11.1,2.3,11.2,2z M8.4,1.9c0.1-0.1,0.2-0.2,0.3-0.2c0.2-0.1,0.3,0,0.4,0l0-0.1l0.1,0c0,0.1,0.1,0.3,0.1,0.5l-0.1,0l0,0
		C9.1,1.8,9,1.7,8.8,1.8C8.6,1.8,8.5,1.9,8.5,2c0,0.1,0,0.3,0,0.5c0.1,0.2,0.1,0.3,0.2,0.4C8.9,3,9,3,9.1,3c0.1,0,0.2-0.1,0.2-0.2
		c0-0.1,0-0.2-0.1-0.3c0-0.1-0.1-0.1-0.2-0.1L9,2.5l0-0.1c0.1,0,0.2-0.1,0.3-0.1c0.1,0,0.2-0.1,0.2-0.1l0,0.1
		c-0.1,0-0.1,0.1-0.1,0.1c0,0.1,0,0.2,0.1,0.2c0,0.1,0.1,0.2,0.1,0.2c0,0-0.1,0.1-0.2,0.1C9.3,3,9.2,3,9.1,3.1
		C8.9,3.1,8.7,3.1,8.6,3C8.4,2.9,8.3,2.8,8.3,2.6C8.2,2.4,8.2,2.1,8.4,1.9z M6.2,2.9c0,0,0.1-0.1,0.2-0.1c0.1,0,0.1-0.1,0.2-0.1
		c0,0,0.1,0,0.2,0.1C6.9,2.8,7.2,3,7.7,3.3C7.4,2.7,7.3,2.6,7.3,2.5c0-0.1-0.1-0.1-0.1,0L7,2.5l0-0.1c0.1,0,0.2-0.1,0.2-0.1
		c0.1,0,0.1-0.1,0.2-0.1l0,0.1c0,0-0.1,0-0.1,0.1c0,0,0,0,0,0.1c0,0.1,0.1,0.3,0.3,0.6l0.3,0.5c0,0-0.1,0.1-0.1,0.1
		C7.5,3.4,7,3.1,6.6,2.9C6.8,3.4,7,3.7,7.1,3.8c0,0,0.1,0,0.1,0c0,0,0.1,0,0.1-0.1l0,0.1C7.3,3.9,7.2,3.9,7.1,4C7,4,6.9,4.1,6.9,4.1
		l0-0.1c0,0,0.1,0,0.1-0.1c0,0,0-0.1,0-0.1c0-0.1-0.2-0.5-0.5-0.9c0,0,0,0,0,0c0,0,0,0-0.1,0L6.2,2.9L6.2,2.9L6.2,2.9z M5.5,3.4
		c0.1-0.1,0.2-0.1,0.2-0.2l0,0C5.7,3.4,5.6,3.4,5.7,3.4c0,0,0.1,0.1,0.1,0.2l0.3,0.4c0.1,0.1,0.1,0.2,0.2,0.2c0,0,0.1,0,0.2,0l0,0.1
		c-0.1,0-0.2,0.1-0.2,0.2C6.2,4.6,6.1,4.6,6.1,4.7l0-0.1c0.1-0.1,0.1-0.1,0.1-0.2c0,0-0.1-0.1-0.2-0.2L5.6,3.8v0
		C5.6,3.7,5.5,3.6,5.5,3.6c0,0-0.1,0-0.2,0l0-0.1C5.3,3.6,5.4,3.5,5.5,3.4z M2.3,7.1C2.4,7,2.5,6.9,2.5,6.9L2.5,6.8l0,0
		C2.6,6.9,2.8,6.9,2.9,7l0,0.1C2.6,6.9,2.5,7,2.3,7.1c0,0.2,0,0.3,0.2,0.3c0.1,0,0.2,0,0.3,0C2.9,7.3,3,7.2,3.1,7.2
		c0.1-0.1,0.2-0.1,0.3,0c0.2,0.1,0.3,0.4,0.1,0.6C3.5,7.9,3.4,8,3.3,8.1C3.2,8,3.1,7.9,3,7.9l0-0.1l0,0C3.2,8,3.4,7.9,3.5,7.7
		c0.1-0.1,0-0.3-0.1-0.3c-0.1,0-0.1,0-0.2,0C3.1,7.4,3,7.6,2.9,7.6c-0.1,0.1-0.3,0.1-0.4,0C2.3,7.5,2.2,7.3,2.3,7.1z M1.6,9.3
		l0.5,0.1c0,0.1,0,0.2-0.1,0.2L1.5,9.6C1.6,9.5,1.6,9.4,1.6,9.3z M1.4,10.3l0.5,0.1h0c0,0.1,0,0.2,0,0.2l-0.5-0.1
		C1.4,10.5,1.4,10.4,1.4,10.3z M1.3,11.3l0.5,0l0,0c0,0.1,0,0.2,0,0.2l-0.5,0C1.3,11.5,1.3,11.4,1.3,11.3z M1.3,12.3l0.5,0l0,0h0h0
		c0,0.1,0,0.2,0,0.2l-0.5,0C1.3,12.5,1.3,12.4,1.3,12.3z M1.4,13.4l0.5-0.1l0,0h0h0c0,0.1,0,0.2,0,0.2l-0.5,0.1
		C1.4,13.5,1.4,13.4,1.4,13.4z M1.5,14.4L2,14.3c0,0.1,0,0.2,0.1,0.2l-0.5,0.1C1.6,14.5,1.5,14.5,1.5,14.4z M1.8,15.4l0.5-0.2v0h0
		l0,0c0,0.1,0.1,0.2,0.1,0.2l-0.5,0.2C1.8,15.5,1.8,15.4,1.8,15.4z M2.2,16.3l0.5-0.2v0c0,0.1,0.1,0.1,0.1,0.2l-0.5,0.2
		C2.2,16.4,2.2,16.4,2.2,16.3z M2.6,17.2L3,17c0,0.1,0.1,0.1,0.1,0.2l-0.4,0.3C2.7,17.3,2.6,17.3,2.6,17.2z M3.3,18.3
		c0-0.1-0.1-0.1-0.1-0.2l0.4-0.3c0,0.1,0.1,0.1,0.1,0.2L3.3,18.3z M3.9,19.1C3.9,19,3.8,19,3.8,18.9l0.4-0.3
		c0.1,0.1,0.1,0.1,0.2,0.2L3.9,19.1z M4.1,6.7C4.1,6.8,4,6.9,4,7l0,0l0-0.1c0-0.1,0-0.1,0-0.1C3.9,6.7,3.8,6.6,3.7,6.5L3.3,6.2h0
		C3.2,6.2,3.1,6.1,3.1,6.1c0,0,0,0-0.1,0L2.9,6.2l0,0c0,0,0.1-0.1,0.2-0.2c0.1-0.1,0.1-0.2,0.2-0.3c0.1-0.2,0.2-0.2,0.3-0.2
		c0.1,0,0.2,0,0.3,0.1C3.9,5.6,4,5.7,4,5.8C4,5.9,4,6,3.9,6.1c0,0-0.1,0.1-0.1,0.1l0,0c0,0,0.1,0,0.1-0.1c0,0,0.1-0.1,0-0.2
		c0-0.1-0.1-0.1-0.2-0.2C3.6,5.7,3.5,5.6,3.5,5.6c-0.1,0-0.1,0-0.2,0.1c-0.1,0.1-0.1,0.1,0,0.1c0.1,0,0.1,0.1,0.3,0.2l0.2,0.2
		l0.2,0.2C4,6.5,4.1,6.5,4.1,6.5c0,0,0.1,0,0.1,0l0.1-0.1l0,0C4.3,6.5,4.2,6.6,4.1,6.7z M4.4,5C4.3,4.8,4.2,4.8,4.2,4.8
		c0,0,0,0-0.1,0L4,4.8l0,0c0,0,0.1-0.1,0.2-0.2c0.1-0.1,0.2-0.2,0.2-0.2c0.1-0.1,0.2-0.2,0.3-0.2c0.1,0,0.2,0,0.2,0.1
		c0.2,0.2,0.1,0.3,0,0.5l0,0c0.2-0.1,0.3-0.2,0.5-0.1c0.1,0,0.1,0.1,0.2,0.1c0.1,0.1,0.1,0.1,0.2,0c0,0,0,0,0,0l0,0.1
		c0,0-0.1,0.1-0.1,0.1C5.6,5.1,5.4,5.1,5.3,5c0,0-0.1-0.1-0.1-0.1C5,4.8,4.9,4.8,4.8,5l0,0l0.1,0.1C5,5.3,5.1,5.3,5.1,5.4
		c0,0,0.1,0,0.2-0.1l0,0C5.3,5.4,5.2,5.5,5.1,5.6C5,5.6,5,5.7,4.9,5.8l0,0C4.9,5.6,5,5.6,4.9,5.6c0,0-0.1-0.1-0.2-0.2L4.4,5L4.4,5z
		 M4.8,9.7V8.4c0-0.3,0.2-0.6,0.6-0.6h2.3v0.4H6.9c-0.1,0-0.2,0.1-0.2,0.2v1.2L6.5,10l0.2,0.4v1.3c0,0.1,0.1,0.2,0.2,0.2h0.7
		c0,0,0,0.1,0.1,0.2c0.1,0.1,0.2,0.1,0.2,0.1H5.4c-0.3,0-0.6-0.2-0.6-0.6l0,0v-1.3L4.6,10L4.8,9.7z M4.8,16.1v-2.2L5,13.6h1.9
		l-0.2,0.3v2.2c0,0.1,0.1,0.2,0.6,0.2h4.3l0.4,0.2l0.4-0.2h1.5v0.4h-1.5L12,16.9l-0.4-0.2H5.8C5.1,16.7,4.8,16.4,4.8,16.1z
		 M8.3,14.6V16H8v-1.4l0.2-0.3h1.9l-0.2,0.3V16H8.7v-1.4H8.3z M5.8,19.8c-0.1-0.1-0.1,0-0.2,0c0,0,0,0.1,0,0.2
		c0,0.1,0.1,0.2,0.1,0.2c0,0.1,0,0.1,0,0.2c-0.1,0.1-0.3,0.1-0.4,0c-0.1,0-0.1-0.1-0.1-0.2c0,0,0.1-0.1,0.1-0.2l0,0l0,0
		c-0.1,0.1-0.1,0.2,0,0.3c0.1,0.1,0.1,0.1,0.2,0c0,0,0-0.1,0-0.1c0,0-0.1-0.1-0.1-0.2c0-0.1,0-0.2,0-0.2C5.6,19.7,5.7,19.7,5.8,19.8
		c0.1,0,0.1,0.1,0.1,0.1l0.1,0l0,0c-0.1,0.1-0.1,0.1-0.2,0.2l0,0C5.9,20,5.8,19.9,5.8,19.8z M6.6,20.7c0,0.1-0.1,0.1-0.2,0.1
		c-0.1,0-0.1,0-0.2,0c0,0-0.1,0-0.1-0.1l0,0c0,0,0,0,0,0c0,0,0.1,0,0.1,0c0,0,0.1,0,0.1-0.1c0-0.1,0.1-0.1,0-0.1c0,0,0-0.1-0.1-0.1
		c0,0-0.1,0-0.1,0c0,0-0.1,0.1-0.1,0.2l-0.1,0.1l-0.1,0.1c0,0.1-0.1,0.1-0.1,0.1c0,0,0,0,0,0.1l0.1,0l0,0c0,0-0.1-0.1-0.2-0.1
		c0,0-0.1-0.1-0.1-0.1l0,0l0,0c0,0,0,0,0.1,0c0,0,0.1-0.1,0.1-0.2l0.1-0.2l0,0c0.1-0.1,0.1-0.1,0.1-0.1c0,0,0,0,0,0l-0.1-0.1l0,0
		c0,0,0.1,0.1,0.1,0.1c0,0,0.1,0.1,0.2,0.1c0.1,0.1,0.1,0.1,0.1,0.2C6.7,20.5,6.6,20.6,6.6,20.7z M16,16v2.9c0,0.3-0.2,0.6-0.6,0.6
		h-3.1L12,19.6l-0.4-0.2H8.5c-0.3,0-0.6-0.2-0.6-0.6v-1.9h0.4v1.8h0.4v-1.8h1.2v1.9C9.9,19,9.9,19,10,19h1.6l0.4,0.2l0.4-0.2h1.6
		c0.1,0,0.2-0.1,0.2-0.2V16l0.2-0.4l-0.2-0.4v-2.8c0-0.1-0.1-0.2-0.2-0.2h-1.6L12,12.5l-0.4-0.2h-3C8.1,12.3,8,12,8,11.7V9.1
		L7.8,8.7L8,8.3V5.7c0-0.3,0.2-0.6,0.6-0.6h3.1L12,4.9l0.4,0.2h3.1c0.3,0,0.6,0.2,0.6,0.6v1.9h-1.2v-2h-0.4v2h-0.4V5.7
		c0-0.1-0.1-0.2-0.2-0.2h-1.6L12,5.3l-0.4,0.2H10c-0.1,0-0.2,0.1-0.2,0.2v2.6L9.7,8.7l0.2,0.4v2.6c0,0.1,0.1,0.2,0.2,0.2h1.6
		l0.4-0.2l0.4,0.2h3c0.6,0,0.7,0.2,0.7,0.6V15h0v0.3l0.2,0.4L16,16z M17.8,21c0,0.1-0.1,0.1-0.2,0.1c-0.1,0-0.1,0.1-0.2,0.1
		c0,0-0.1,0.1-0.1,0.1l0,0l0,0c0,0,0,0,0-0.1c0,0,0-0.1-0.1-0.2l-0.1-0.2v0c-0.1-0.1-0.1-0.1-0.1-0.1c0,0,0,0,0,0l-0.1,0l0,0
		c0,0,0.1-0.1,0.1-0.1c0,0,0.1-0.1,0.2-0.1c0.1-0.1,0.2-0.1,0.2-0.1c0.1,0,0.2,0.1,0.3,0.2C17.8,20.7,17.9,20.8,17.8,21z M18.8,20.3
		C18.8,20.3,18.8,20.3,18.8,20.3c-0.1,0.1-0.4,0-0.5,0c0,0-0.1,0-0.1,0l0.1,0.1c0.1,0.1,0.1,0.1,0.1,0.1c0,0,0,0,0.1,0l0,0
		c0,0-0.1,0.1-0.1,0.1c-0.1,0-0.1,0.1-0.1,0.1l0,0c0.1-0.1,0.1-0.1,0.1-0.1c0,0,0-0.1-0.1-0.1l-0.2-0.2l0,0
		c-0.1-0.1-0.1-0.1-0.1-0.1c0,0,0,0-0.1,0l0,0c0,0,0.1-0.1,0.1-0.1c0,0,0.1-0.1,0.1-0.1l0,0c-0.1,0-0.1,0.1,0,0.1c0,0,0,0.1,0.1,0.1
		l0.1,0.1c0-0.1,0.1-0.3,0-0.4c0,0,0,0,0,0l-0.1,0l0,0c0,0,0.1-0.1,0.1-0.1c0,0,0.1-0.1,0.1-0.1l0,0c-0.1,0-0.1,0.1-0.1,0.1
		c0,0.1,0,0.2,0,0.3C18.4,20.1,18.7,20.2,18.8,20.3c0-0.1,0-0.1,0.1-0.1L18.8,20.3C18.9,20.2,18.8,20.3,18.8,20.3z M19.1,14.7v1.5
		c0,0.3-0.2,0.6-0.6,0.6h-2.3v-0.4h0.8c0.1,0,0.2-0.1,0.2-0.2v-1.5l0.2-0.4l-0.2-0.4v-1.4c0-0.1-0.1-0.2-0.2-0.2h-0.7
		c0,0,0-0.1-0.1-0.2c-0.1-0.1-0.2-0.1-0.2-0.1h2.5c0.3,0,0.6,0.2,0.6,0.6v1.4h0l0.2,0.4L19.1,14.7z M19.4,6.1
		c-0.1-0.1-0.2-0.2-0.2-0.3l0,0l0.1,0.1c0,0,0.1,0,0.1,0c0.1,0,0.2-0.1,0.3-0.2L20,5.5c0.1-0.1,0.2-0.2,0.3-0.2c0,0,0,0,0-0.1
		l-0.1-0.1l0,0l0,0h0l0,0c0,0.1,0.1,0.2,0.2,0.3l0.2,0.3c0.1,0.1,0.2,0.2,0.2,0.2c-0.1,0-0.2,0.1-0.3,0.2l0,0c0,0,0.1-0.1,0.1-0.2
		c0-0.1,0-0.1-0.1-0.3l-0.1-0.1c0,0,0,0,0,0c-0.1,0-0.1,0.1-0.2,0.2L20,5.8c0,0,0.1,0.1,0.1,0.1C20.2,6,20.3,6,20.4,5.9l0,0
		c-0.1,0.1-0.3,0.2-0.4,0.3l0,0c0.1-0.1,0.1-0.2,0-0.3c0,0-0.1-0.1-0.1-0.1l-0.2,0.1c-0.1,0.1-0.2,0.2-0.3,0.2c0,0,0,0,0.1,0.2
		c0.1,0.2,0.2,0.2,0.2,0.2c0.1,0,0.2,0,0.3-0.1l0,0c0,0-0.3,0.2-0.3,0.2c0-0.1-0.1-0.2-0.3-0.4L19.4,6.1z M20,19.1l-0.4-0.3
		c0.1-0.1,0.1-0.1,0.2-0.2l0.4,0.3C20.1,19,20.1,19,20,19.1z M20.1,7.1L20.1,7.1c0.1,0.1,0.2,0.1,0.2,0.1c0,0,0.1-0.1,0.3-0.2
		L21,6.8l0,0c0.2-0.1,0.2-0.1,0.3-0.2c0,0,0,0,0-0.1l0-0.1l0.1,0c0,0,0.1,0.1,0.1,0.2c0,0.1,0.1,0.2,0.2,0.3
		c0.1,0.2,0.1,0.3,0.1,0.4c0,0.1-0.1,0.1-0.2,0.2c-0.2,0.1-0.4,0-0.5-0.2l0,0c0.1,0.2,0.1,0.3-0.1,0.5c0,0-0.1,0.1-0.2,0.1
		c-0.1,0.1-0.1,0.1-0.1,0.2c0,0,0,0,0,0l-0.1,0c0,0-0.1-0.1-0.1-0.1c-0.1-0.2-0.1-0.3,0.1-0.4c0.1,0,0.1-0.1,0.1-0.1
		C21,7.5,21,7.4,20.9,7.2l0-0.1l-0.2,0.1c-0.1,0.1-0.2,0.1-0.3,0.2c0,0,0,0,0,0.2l-0.1,0c0-0.1-0.1-0.2-0.1-0.3
		C20.2,7.3,20.1,7.2,20.1,7.1z M20.7,18.3L20.3,18c0-0.1,0.1-0.1,0.1-0.2l0.4,0.3C20.8,18.1,20.7,18.2,20.7,18.3z M21.2,17.4
		l-0.4-0.3c0-0.1,0.1-0.1,0.1-0.2l0.4,0.2C21.3,17.3,21.3,17.4,21.2,17.4z M21.7,16.5l-0.5-0.2c0-0.1,0.1-0.1,0.1-0.2l0.5,0.2
		C21.8,16.4,21.7,16.5,21.7,16.5z M22.1,15.6l-0.5-0.2h0c0-0.1,0.1-0.2,0.1-0.2l0.5,0.2C22.1,15.4,22.1,15.5,22.1,15.6z M22.4,14.6
		l-0.5-0.1c0-0.1,0-0.2,0.1-0.2l0.5,0.1C22.4,14.5,22.4,14.6,22.4,14.6z M22.6,13.6l-0.5-0.1h0c0-0.1,0-0.2,0-0.2l0.5,0.1
		C22.6,13.5,22.6,13.6,22.6,13.6z M22.2,12.6c0-0.1,0-0.2,0-0.2l0.5,0c0,0.1,0,0.2,0,0.3L22.2,12.6z"/>
	<rect x="17.6" y="8.4" class="st1" width="0.4" height="1.9"/>
</g>
</svg>
