<?xml version="1.0" encoding="utf-8"?>
<!-- Generator: Adobe Illustrator 27.7.0, SVG Export Plug-In . SVG Version: 6.00 Build 0)  -->
<svg version="1.1" id="hncrctwigt-Layer_2_00000036249352073620424210000009162474201131287692_"
	 xmlns="http://www.w3.org/2000/svg" xmlns:xlink="http://www.w3.org/1999/xlink" x="0px" y="0px" viewBox="0 0 19 19"
	 style="enable-background:new 0 0 19 19;" xml:space="preserve">
<style type="text/css">
	.st0{fill:#2D2D2D;}
</style>
<g>
	<path class="st0" d="M12.6,2.6h-0.4v-2h-0.8v2h-5c-1,0-1.7,0.8-1.7,1.7v4.5v0.8V15c0,1,0.8,1.7,1.7,1.7h6.1c1,0,1.7-0.8,1.7-1.7
		V9.6V8.8V4.3C14.3,3.3,13.5,2.6,12.6,2.6z M13.6,15c0,0.5-0.4,1-1,1H6.4c-0.5,0-1-0.4-1-1V9.6h8.1V15H13.6z M5.4,8.8V4.3
		c0-0.5,0.4-1,1-1h5h0.8h0.4c0.5,0,1,0.4,1,1v4.5H5.4z"/>
	<path class="st0" d="M8,11.7H6.9v-0.8H8V11.7z M10.1,10.9H8.9v0.8H10v-0.8H10.1z M12.1,10.9H11v0.8h1.1V10.9z M8,12.3H6.9v0.8H8
		V12.3z M10.1,12.3H8.9v0.8H10v-0.8H10.1z M12.1,12.3H11v0.8h1.1V12.3z M8,13.8H6.9v0.8H8V13.8z M10.1,13.8H8.9v0.8H10v-0.8H10.1z
		 M12.1,13.8H11v0.8h1.1V13.8z"/>
</g>
</svg>
