<?xml version="1.0" encoding="utf-8"?>
<!-- Generator: Adobe Illustrator 27.7.0, SVG Export Plug-In . SVG Version: 6.00 Build 0)  -->
<svg version="1.1" id="eicxfohrzc-Layer_2_00000023246153836773603210000011204273852616533160_"
	 xmlns="http://www.w3.org/2000/svg" xmlns:xlink="http://www.w3.org/1999/xlink" x="0px" y="0px" viewBox="0 0 19 19"
	 style="enable-background:new 0 0 19 19;" xml:space="preserve">
<style type="text/css">
	.st0{fill:#FF3C00;}
</style>
<path class="st0" d="M9.5,2.7c-3.7,0-6.8,3-6.8,6.8s3,6.8,6.8,6.8c3.7,0,6.8-3,6.8-6.8S13.2,2.7,9.5,2.7z M15.5,9.1h-2
	c0-2.1-1-4.1-2.6-5.5C13.4,4.2,15.4,6.4,15.5,9.1z M9.1,3.8v5.3H6.2C6.3,7,7.4,5,9.1,3.8z M9.1,9.9v5.3C7.4,14,6.3,12,6.2,9.9H9.1z
	 M9.9,15.2V9.9h2.9C12.7,12,11.6,14,9.9,15.2z M9.9,9.1V3.8C11.6,5,12.7,7,12.8,9.1H9.9z M8.1,3.6C6.5,5,5.5,7,5.4,9.1h-2
	C3.6,6.4,5.6,4.2,8.1,3.6z M3.5,9.9h2c0,2.1,1,4.1,2.6,5.5C5.6,14.8,3.6,12.6,3.5,9.9z M10.9,15.4c1.6-1.4,2.6-3.3,2.7-5.5h2
	C15.4,12.6,13.4,14.8,10.9,15.4z"/>
</svg>
