<?xml version="1.0" encoding="utf-8"?>
<!-- Generator: Adobe Illustrator 27.7.0, SVG Export Plug-In . SVG Version: 6.00 Build 0)  -->
<svg version="1.1" id="Layer_1" xmlns="http://www.w3.org/2000/svg" xmlns:xlink="http://www.w3.org/1999/xlink" x="0px" y="0px"
	 viewBox="0 0 24 24" style="enable-background:new 0 0 24 24;" xml:space="preserve">
<style type="text/css">
	.st0{fill:#FF3C00;}
</style>
<path class="st0" d="M20.9,0.7c1.2,0,2.2,1,2.2,2.2v17.9c0,1.2-1,2.2-2.2,2.2H3c-1.2,0-2.2-1-2.2-2.2V3c0-1.2,1-2.2,2.2-2.2H20.9z
	 M20.9,0H3C1.3,0,0,1.3,0,3v17.9c0,1.6,1.3,3,3,3h17.9c1.6,0,3-1.3,3-3V3C23.9,1.3,22.5,0,20.9,0z"/>
<path class="st0" d="M18.3,8.9c-0.8-1.1-2.1-1.7-3.2-1.7c-1.5,0-2.1,0.7-3.2,0.7c-1.1,0-1.9-0.7-3.2-0.7c-1.3,0-2.6,0.8-3.5,2.1
	c-1.2,1.9-1,5.4,1,8.4C6.9,18.8,7.8,20,9.1,20c1.1,0,1.4-0.7,2.9-0.7c1.5,0,1.8,0.7,2.8,0.7c1.2,0,2.2-1.3,2.9-2.4
	c0.5-0.8,0.7-1.2,1.1-2C15.9,14.4,15.5,10.4,18.3,8.9z M14,6c0.5-0.7,1-1.7,0.8-2.7c-0.9,0-1.9,0.6-2.5,1.4c-0.5,0.7-1,1.7-0.8,2.7
	C12.4,7.3,13.4,6.7,14,6z"/>
</svg>
