<svg xmlns="http://www.w3.org/2000/svg" width="24" height="24" viewBox="0 0 24 24" fill="none">
  <path d="M20.8895 0.744687C22.1329 0.744687 23.1277 1.7376 23.1277 2.97875V20.8512C23.1277 22.0924 22.1329 23.0853 20.8895 23.0853H2.98422C1.74079 23.0853 0.746054 22.0924 0.746054 20.8512V2.97875C0.746054 1.7376 1.74079 0.744687 2.98422 0.744687H20.8895ZM20.8895 0H2.98422C1.3429 0 0 1.34044 0 2.97875V20.8512C0 22.4896 1.3429 23.83 2.98422 23.83H20.8895C22.5308 23.83 23.8737 22.4896 23.8737 20.8512V2.97875C23.8737 1.34044 22.5308 0 20.8895 0Z" fill="black"/>
  <path d="M18.2776 8.86136C17.4321 7.79398 16.2135 7.17341 15.0696 7.17341C13.5775 7.17341 12.9309 7.89327 11.8864 7.89327C10.8171 7.89327 9.99641 7.17341 8.70325 7.17341C7.43496 7.17341 6.0672 7.94292 5.22167 9.28335C4.00311 11.1699 4.22693 14.6948 6.19154 17.6983C6.88786 18.7657 7.83286 19.982 9.05141 20.0069C10.1456 20.0069 10.444 19.3118 11.9362 19.287C13.4034 19.287 13.7018 20.0069 14.7712 19.982C15.9897 19.982 16.9845 18.6416 17.6808 17.5494C18.1781 16.7799 18.3771 16.3827 18.7501 15.5139C15.94 14.4465 15.4675 10.4004 18.2776 8.86136ZM13.9505 5.95708C14.4976 5.26204 14.9204 4.2443 14.7712 3.22656C13.8759 3.27621 12.8314 3.87196 12.2346 4.59182C11.6875 5.26204 11.215 6.27978 11.4139 7.24788C12.3589 7.29752 13.3785 6.70177 13.9505 5.95708Z" fill="black"/>
</svg>