<svg xmlns="http://www.w3.org/2000/svg" id="rytshrnlhl-Layer_2" data-name="Layer 2" viewBox="0 0 19 19">
  <defs>
    <style>
      .rytshrnlhl-cls-1 {
        fill: #fff;
      }
    </style>
  </defs>
  <path class="rytshrnlhl-cls-1" d="m14.58,9.24c1.38-2.31,1.67-4.5.54-5.63-1.13-1.13-3.32-.84-5.62.53-2.3-1.37-4.49-1.66-5.62-.53-1.13,1.13-.84,3.33.54,5.63-.36.61-.68,1.22-.88,1.82-.57,1.64-.45,2.98.35,3.78.47.47,1.12.7,1.91.7.56,0,1.19-.12,1.87-.36.6-.21,1.22-.53,1.83-.89.62.37,1.23.69,1.83.89.68.24,1.31.36,1.87.36.79,0,1.45-.24,1.91-.7.8-.8.92-2.14.35-3.78-.21-.6-.52-1.21-.88-1.82Zm-1.38-5.59c.57,0,1.05.16,1.38.49.57.57.64,1.67.17,3-.16.45-.38.91-.63,1.37-.5-.73-1.1-1.45-1.77-2.13-.69-.69-1.41-1.28-2.13-1.78,1.1-.61,2.15-.94,2.99-.94Zm.5,5.57c-.51.79-1.14,1.58-1.88,2.32-.74.74-1.52,1.37-2.32,1.88-.79-.51-1.58-1.15-2.32-1.88-.74-.74-1.38-1.53-1.88-2.32.51-.79,1.14-1.58,1.88-2.32.74-.74,1.53-1.38,2.32-1.88.78.51,1.57,1.14,2.32,1.88.74.74,1.37,1.52,1.88,2.32ZM4.41,4.14c.33-.33.81-.49,1.38-.49.84,0,1.89.34,2.99.94-.72.5-1.44,1.09-2.13,1.78-.68.68-1.27,1.4-1.78,2.14-1.02-1.85-1.28-3.56-.46-4.38Zm3,10.34c-1.33.47-2.43.41-3-.17-.57-.57-.64-1.67-.17-3,.16-.45.38-.9.63-1.36.5.72,1.09,1.44,1.78,2.13.68.68,1.4,1.27,2.13,1.77-.46.25-.92.48-1.37.63Zm7.17-.17c-.57.58-1.67.64-3,.17-.45-.16-.91-.38-1.37-.63.73-.5,1.45-1.1,2.13-1.77.69-.69,1.28-1.41,1.78-2.13.25.46.47.92.63,1.36.47,1.33.4,2.43-.17,3Z"/>
</svg>