<svg xmlns="http://www.w3.org/2000/svg" width="19" height="26" viewBox="0 0 19 26" fill="none">
  <path d="M12.8201 13.3281L5.35857 17.7074C4.92268 17.9552 4.64062 18.4785 4.64062 19.0019V25.9976L18.3073 17.4595C18.4868 17.3493 18.6406 17.1841 18.7432 17.0188L12.8201 13.3281V13.3281Z" fill="black"/>
  <path d="M8.71755 2.39619L4.64062 0V4.76483L8.71755 2.39619Z" fill="black"/>
  <path d="M18.1797 8.01721L14.8976 6.17188V6.50238C14.8976 7.30111 14.5387 8.0723 13.8976 8.48543L10.1797 10.8265L19.0002 16.3075V9.31171C19.0002 8.76086 18.6156 8.2651 18.1797 8.01721V8.01721Z" fill="black"/>
  <path d="M13.6667 7.77065L0 16.3088V9.31303C0 8.76218 0.282051 8.26642 0.717949 8.01853L14.359 0.03125V6.5037C14.3333 7.02701 14.0769 7.49523 13.6667 7.77065V7.77065Z" fill="black"/>
  <path d="M13.6667 7.77065L0 16.3088V9.31303C0 8.76218 0.282051 8.26642 0.717949 8.01853L14.359 0.03125V6.5037C14.3333 7.02701 14.0769 7.49523 13.6667 7.77065V7.77065Z" fill="black"/>
  <path d="M13.6667 7.77065L0 16.3088V9.31303C0 8.76218 0.282051 8.26642 0.717949 8.01853L14.359 0.03125V6.5037C14.3333 7.02701 14.0769 7.49523 13.6667 7.77065V7.77065Z" fill="black"/>
  <path d="M3.8715 19.0019C3.8715 18.1756 4.30739 17.4044 4.9997 16.9913L8.71765 14.8154L6.17919 13.3281L0.230469 17.0188C0.333033 17.2116 0.486879 17.3493 0.666366 17.4595L3.8715 19.4425V19.0019Z" fill="black"/>
  <path d="M10 23.4052L14.1282 25.9942V20.8438L10 23.4052Z" fill="black"/>
  <path d="M12.8201 13.3281L5.35857 17.7074C4.92268 17.9552 4.64062 18.4785 4.64062 19.0019V25.9976L18.3073 17.4595C18.4868 17.3493 18.6406 17.1841 18.7432 17.0188L12.8201 13.3281V13.3281Z" fill="black"/>
</svg>