<?xml version="1.0" encoding="utf-8"?>
<!-- Generator: Adobe Illustrator 27.7.0, SVG Export Plug-In . SVG Version: 6.00 Build 0)  -->
<svg version="1.1" id="Layer_1" xmlns="http://www.w3.org/2000/svg" xmlns:xlink="http://www.w3.org/1999/xlink" x="0px" y="0px"
	 viewBox="0 0 19 26" style="enable-background:new 0 0 19 26;" xml:space="preserve">
<style type="text/css">
	.st0{fill:#FF3C00;}
</style>
<path class="st0" d="M12.8,13.3l-7.5,4.4C4.9,18,4.6,18.5,4.6,19v7l13.7-8.5c0.2-0.1,0.3-0.3,0.4-0.4L12.8,13.3L12.8,13.3z"/>
<path class="st0" d="M8.7,2.4L4.6,0v4.8L8.7,2.4z"/>
<path class="st0" d="M18.2,8l-3.3-1.8v0.3c0,0.8-0.4,1.6-1,2l-3.7,2.3l8.8,5.5v-7C19,8.8,18.6,8.3,18.2,8L18.2,8z"/>
<path class="st0" d="M13.7,7.8L0,16.3v-7c0-0.6,0.3-1,0.7-1.3l13.6-8v6.5C14.3,7,14.1,7.5,13.7,7.8L13.7,7.8z"/>
<path class="st0" d="M13.7,7.8L0,16.3v-7c0-0.6,0.3-1,0.7-1.3l13.6-8v6.5C14.3,7,14.1,7.5,13.7,7.8L13.7,7.8z"/>
<path class="st0" d="M13.7,7.8L0,16.3v-7c0-0.6,0.3-1,0.7-1.3l13.6-8v6.5C14.3,7,14.1,7.5,13.7,7.8L13.7,7.8z"/>
<path class="st0" d="M3.9,19c0-0.8,0.4-1.6,1.1-2l3.7-2.2l-2.5-1.5L0.2,17c0.1,0.2,0.3,0.3,0.4,0.4l3.2,2V19z"/>
<path class="st0" d="M10,23.4l4.1,2.6v-5.2L10,23.4z"/>
<path class="st0" d="M12.8,13.3l-7.5,4.4C4.9,18,4.6,18.5,4.6,19v7l13.7-8.5c0.2-0.1,0.3-0.3,0.4-0.4L12.8,13.3L12.8,13.3z"/>
</svg>
