<?xml version="1.0" encoding="utf-8"?>
<!-- Generator: Adobe Illustrator 27.7.0, SVG Export Plug-In . SVG Version: 6.00 Build 0)  -->
<svg version="1.1" id="Layer_1" xmlns="http://www.w3.org/2000/svg" xmlns:xlink="http://www.w3.org/1999/xlink" x="0px" y="0px"
	 viewBox="0 0 19 26" style="enable-background:new 0 0 19 26;" xml:space="preserve">
<style type="text/css">
	.st0{fill:#FF3C00;}
</style>
<path class="st0" d="M12.2,13.2l-6.1,3.6c-0.3,0.2-0.6,0.7-0.6,1.1v5.7l11.2-6.9c0.2-0.1,0.2-0.2,0.3-0.3L12.2,13.2L12.2,13.2z"/>
<path class="st0" d="M8.8,4.4l-3.3-2v3.9L8.8,4.4z"/>
<path class="st0" d="M16.6,8.9l-2.7-1.5v0.2c0,0.7-0.3,1.3-0.8,1.6l-3,1.9l7.2,4.5V10C17.2,9.6,16.9,9.2,16.6,8.9L16.6,8.9z"/>
<path class="st0" d="M12.9,8.8L1.8,15.7V10c0-0.5,0.2-0.8,0.6-1.1l11.1-6.5v5.3C13.4,8.1,13.2,8.5,12.9,8.8L12.9,8.8z"/>
<path class="st0" d="M12.9,8.8L1.8,15.7V10c0-0.5,0.2-0.8,0.6-1.1l11.1-6.5v5.3C13.4,8.1,13.2,8.5,12.9,8.8L12.9,8.8z"/>
<path class="st0" d="M12.9,8.8L1.8,15.7V10c0-0.5,0.2-0.8,0.6-1.1l11.1-6.5v5.3C13.4,8.1,13.2,8.5,12.9,8.8L12.9,8.8z"/>
<path class="st0" d="M4.9,17.9c0-0.7,0.3-1.3,0.9-1.6l3-1.8l-2-1.2l-4.9,3c0.1,0.2,0.2,0.2,0.3,0.3l2.6,1.6L4.9,17.9L4.9,17.9z"/>
<path class="st0" d="M9.9,21.5l3.3,2.1v-4.2L9.9,21.5z"/>
<path class="st0" d="M12.2,13.2l-6.1,3.6c-0.3,0.2-0.6,0.7-0.6,1.1v5.7l11.2-6.9c0.2-0.1,0.2-0.2,0.3-0.3L12.2,13.2L12.2,13.2z"/>
</svg>
