<svg xmlns="http://www.w3.org/2000/svg" width="23" height="25" viewBox="0 0 23 25" fill="none">
  <path d="M20.7246 21.6016H2.84961V25.0016H20.7246V21.6016Z" fill="black"/>
  <path d="M6.42539 21.0016H17.1754C20.4754 19.5016 22.7004 15.8266 22.7004 11.7516C22.7004 5.72656 17.8254 0.976562 11.8004 0.976562C5.77539 0.976562 0.900391 5.67656 0.900391 11.7016C0.900391 15.7516 3.12539 19.5016 6.42539 21.0016ZM11.8004 3.60156C16.4254 3.60156 20.2004 7.37656 20.2004 12.0016C20.2004 16.6266 16.4254 20.4016 11.8004 20.4016C7.17539 20.4016 3.40039 16.6266 3.40039 12.0016C3.40039 7.35156 7.17539 3.60156 11.8004 3.60156Z" fill="black"/>
</svg>