<?xml version="1.0" encoding="utf-8"?>
<!-- Generator: Adobe Illustrator 27.7.0, SVG Export Plug-In . SVG Version: 6.00 Build 0)  -->
<svg version="1.1" id="Layer_1" xmlns="http://www.w3.org/2000/svg" xmlns:xlink="http://www.w3.org/1999/xlink" x="0px" y="0px"
	 viewBox="0 0 23 25" style="enable-background:new 0 0 23 25;" xml:space="preserve">
<style type="text/css">
	.st0{fill:#FF3C00;}
</style>
<path class="st0" d="M20.7,21.6H2.8V25h17.9V21.6z"/>
<path class="st0" d="M6.4,21h10.8c3.3-1.5,5.5-5.2,5.5-9.2c0-6-4.9-10.8-10.9-10.8C5.8,1,0.9,5.7,0.9,11.7C0.9,15.8,3.1,19.5,6.4,21
	z M11.8,3.6c4.6,0,8.4,3.8,8.4,8.4c0,4.6-3.8,8.4-8.4,8.4c-4.6,0-8.4-3.8-8.4-8.4C3.4,7.4,7.2,3.6,11.8,3.6z"/>
</svg>
