<?xml version="1.0" encoding="utf-8"?>
<!-- Generator: Adobe Illustrator 27.7.0, SVG Export Plug-In . SVG Version: 6.00 Build 0)  -->
<svg version="1.1" id="Layer_1" xmlns="http://www.w3.org/2000/svg" xmlns:xlink="http://www.w3.org/1999/xlink" x="0px" y="0px"
	 viewBox="0 0 30 24" style="enable-background:new 0 0 30 24;" xml:space="preserve">
<style type="text/css">
	.st0{fill:#FF3C00;}
</style>
<path class="st0" d="M10.8,13.6l2.1,0v1.3c0,5.9-1.6,9.1-6,8.9c-4.5-0.2-6.7-3.7-6.7-11.9C0.3,8.1,0.7,5.1,2,3c1.3-2.1,3.3-3,5.6-3
	c1.7,0,3,0.6,4.1,1.8c1,1.2,1.7,2.8,1,4.7c-0.4,1.2-0.5,1.7-1.3,2.3C11,9,10.3,9.2,9.9,9.1C9.3,9.1,7.8,8.6,7.7,6.8
	C7.6,6,7.7,5.6,8.1,5c0.4-0.6,1.1-0.8,1.7-0.8c0.1,0,0.8,0.1,1.2,0.6c0,0,0.2,0.2,0.4,0.5c0,0.1,0.1,0.3,0.2,0.3
	c0,0,0.1,0.1,0.1-0.4c0-0.3-0.1-0.6-0.1-0.7C11.1,2.8,9.7,2,8.2,2.1c-1.1,0-2.5,0.8-3,2c-0.4,1.2-0.7,3.9-0.7,7c0,3.5,0,6.3,0.4,7.6
	c0.3,1.3,1,2.9,2.9,2.9c1.8,0,3-1.3,3-6.7L10.8,13.6z"/>
<path class="st0" d="M21.7,10.5c-1.6,1.6-3.3,3.2-4,3.9c-0.6,0.7-1.4,2.1-1.5,2.9c-0.5,3.3,1,4.2,2,4.2c2.9,0,3.6-3.6,3.5-7
	L21.7,10.5z M16.4,2.5c-1.2,0.4-1.7,1.7-1.8,1.9c-0.1,0.2-0.1,0.5-0.1,0.7c0,0.3,0.1,0.5,0.1,0.5c0.3-0.6,0.7-1.2,1.6-1.3
	c0.6-0.1,1,0,1.4,0.3C17.8,4.7,18,4.8,18.1,5c0.2,0.4,0.3,0.7,0.3,1.2c0,0.8-0.1,1.4-0.7,2c-0.6,0.6-1.1,0.9-1.8,0.8
	c-0.8,0-1.3-0.3-2-0.9c-0.7-0.7-1-1.5-1-2.6c-0.1-1.8,0.6-3.1,1.9-4.2c1.3-1.1,2.9-1.3,4.9-1.3c2.3,0,3.8,0.6,5.1,2.3
	c0.4,0.5,0.6,1,0.8,1.6c0.2,0.5,0.2,1.4,0.2,2.8l-0.1,11.7c0,1.2-0.3,3,0.9,3c0.4,0,1.1,0,1.1-1.8l0-3.7l1.5,0l0,2.2
	c0.1,3.4-0.3,5.4-3.9,5.5c-1.8,0-3.2-0.8-3.8-3c-1.2,2.2-2.7,3-4.5,3c-1.4,0-3.1-0.7-4-1.8c-0.9-1.1-0.9-2.6-0.8-4.2
	c0.1-2.7,1.4-4.4,3.6-5.7l2.6-1.6c2-1.1,3.1-2.8,3.1-4.6c0-1-0.3-1.9-0.9-2.5s-2-1.7-4.4-0.9"/>
</svg>
