<svg xmlns="http://www.w3.org/2000/svg" width="30" height="24" viewBox="0 0 30 24" fill="none">
  <path d="M10.8491 13.65L12.9741 13.625V14.925C12.9741 20.825 11.3741 24.025 6.97413 23.8C2.44913 23.575 0.24912 20.125 0.32412 11.85C0.34912 8.05 0.699123 5.125 1.99912 2.95C3.27412 0.849997 5.24912 0 7.57412 0C9.29912 0 10.5991 0.649994 11.6491 1.77499C12.6991 2.94999 13.3241 4.62499 12.6991 6.42499C12.2991 7.59999 12.1491 8.075 11.3741 8.7C10.9741 9.025 10.2741 9.175 9.87412 9.125C9.32412 9.075 7.77413 8.6 7.67413 6.75C7.62413 5.975 7.69912 5.62499 8.07412 5.02499C8.47412 4.39999 9.14913 4.27499 9.72413 4.27499C9.84913 4.27499 10.5241 4.325 10.9241 4.85C10.9241 4.85 11.0991 5 11.2741 5.35C11.3241 5.425 11.3741 5.625 11.4991 5.625C11.4741 5.625 11.5741 5.72499 11.5991 5.27499C11.5991 4.99999 11.5241 4.65 11.4991 4.6C11.0741 2.85 9.74913 2.05 8.22413 2.075C7.07413 2.1 5.69912 2.875 5.19912 4.075C4.74912 5.325 4.47413 7.975 4.47413 11.075C4.47413 14.6 4.47413 17.35 4.84913 18.65C5.19913 19.95 5.87412 21.5 7.77412 21.525C9.57412 21.55 10.7991 20.225 10.8241 14.85L10.8491 13.65Z" fill="black"/>
  <path d="M21.6746 10.5031C20.1246 12.1031 18.3496 13.7031 17.7246 14.4031C17.0746 15.1281 16.3496 16.4531 16.2246 17.3031C15.7246 20.6531 17.1996 21.5031 18.2496 21.5031C21.1246 21.5031 21.7996 17.8531 21.7496 14.5281L21.6746 10.5031ZM16.4246 2.50313C15.2496 2.92813 14.6996 4.22812 14.6246 4.40312C14.5496 4.55312 14.4996 4.92812 14.4996 5.05312C14.4996 5.37812 14.6496 5.52812 14.6246 5.55312C14.8996 4.97812 15.3496 4.37813 16.1996 4.25313C16.8496 4.15313 17.1996 4.22812 17.5996 4.52812C17.7996 4.67812 17.9746 4.82812 18.1246 5.02812C18.3746 5.40312 18.4496 5.67813 18.4496 6.25313C18.4496 7.07813 18.2996 7.62812 17.7746 8.22812C17.1996 8.82812 16.6996 9.07812 15.9746 9.05312C15.1246 9.02812 14.6746 8.75313 13.9996 8.12813C13.3246 7.47813 13.0496 6.62812 12.9996 5.57812C12.9246 3.80312 13.5996 2.47813 14.9246 1.37813C16.2746 0.253128 17.8496 0.103125 19.8246 0.078125C22.1246 0.078125 23.6496 0.703126 24.8996 2.35313C25.2746 2.85313 25.4496 3.35313 25.6996 4.00313C25.8996 4.52813 25.9496 5.40312 25.9496 6.77812L25.8996 18.4531C25.8996 19.7031 25.6246 21.5031 26.7746 21.5031C27.1496 21.5031 27.8996 21.5031 27.8746 19.7281L27.8496 16.0531L29.3996 16.0781L29.4246 18.3281C29.4996 21.6781 29.0996 23.7781 25.5496 23.8281C23.7746 23.8531 22.3246 23.0781 21.7996 20.8781C20.5746 23.0781 19.1246 23.8281 17.2996 23.8281C15.8996 23.8281 14.2246 23.1281 13.2996 22.0531C12.3746 20.9781 12.4246 19.4281 12.4496 17.8031C12.5246 15.0781 13.8746 13.4031 16.0996 12.0781L18.7246 10.4781C20.6996 9.40312 21.8246 7.67812 21.8246 5.90312C21.8246 4.87812 21.5246 4.00313 20.9746 3.35313C20.4246 2.70313 18.9496 1.67812 16.5746 2.45312" fill="black"/>
</svg>