<svg xmlns="http://www.w3.org/2000/svg" width="25" height="30" viewBox="0 0 25 30" fill="none">
  <path d="M12.1973 20.4688L14.3409 18.8438L11.1406 19.5625L12.1973 20.4688Z" fill="black"/>
  <path d="M10.7775 16.0937C10.7775 16.0937 11.4115 16.8125 12.2871 15.0312L11.5021 13.5C11.5323 13.5 10.3246 15.2812 10.7775 16.0937Z" fill="black"/>
  <path d="M7.42719 16.125C7.42719 16.125 10.0236 12.7812 9.08769 9.5L5.79688 15.125C5.79688 15.125 5.94783 16.1563 5.97802 16.3125C5.97802 16.2813 6.21955 17.8125 7.42719 16.125Z" fill="black"/>
  <path d="M12.9833 9.46828C12.9833 9.46828 13.1947 8.93703 12.9229 8.84328C12.9229 8.84328 12.5305 8.71828 12.1078 9.49953C12.1078 9.49953 11.6851 10.312 12.1078 11.062C12.138 11.0308 12.8927 9.96828 12.9833 9.46828Z" fill="black"/>
  <path d="M12.4085 0L0 7.4375V22.5938L12.3481 30L24.7566 22.5625V7.4375L12.4085 0ZM11.3216 9.21875C12.3179 7.59375 13.2538 7.46875 13.2538 7.46875C14.2199 7.25 14.1898 8.28125 14.1898 8.28125C14.3407 9.78125 12.65 12 12.65 12C12.7406 12.375 13.284 13.25 13.284 13.25C13.5859 12.7812 14.0086 11.1875 14.0086 11.1875L15.488 10.4062C15.3068 11.7812 13.9482 14.5 13.9482 14.5C14.0388 14.5938 14.854 16.1875 14.854 16.1875L13.3142 16.9375L12.9217 16.1875C11.1707 18.8125 10.1442 18.1875 10.1442 18.1875C9.38939 17.9375 9.54035 16.0938 9.54035 16.0938C9.6913 14.4375 11.0197 12.4062 11.0197 12.4062C10.2045 10.8438 11.3216 9.21875 11.3216 9.21875ZM9.66111 6.3125C11.0801 10.3438 10.2045 13 10.2045 13C9.11767 16.75 6.97412 18.5 6.97412 18.5C6.34011 19.0312 5.70609 18.8125 5.49476 18.4375C5.22304 18 5.13247 17.3438 5.13247 17.3438C5.07208 17.0938 4.6796 14.9062 4.6796 14.9062L9.66111 6.3125ZM10.5668 23.5312L9.26863 22.6562L11.0801 21.2812L9.44977 19.9375L6.40049 20.625L5.04189 19.6562L16.1824 17.25L17.1485 18.2812L10.5668 23.5312ZM19.5034 16.7188L19.2618 16.4375C19.2618 16.9062 19.2015 17.0938 19.2015 17.0938C18.8996 18.25 18.1146 18.1875 18.1146 18.1875C16.6352 18.1562 15.6087 15.6562 15.6087 15.6562C14.3105 12.9687 15.3974 11.5625 15.3974 11.5625C15.8805 10.9688 16.4541 11.0312 16.4541 11.0312L15.337 8.9375L16.0314 7.96875L20.077 15.625L19.5034 16.7188Z" fill="black"/>
  <path d="M16.4542 14.8442C17.0882 16.2504 17.6618 16.8442 18.0845 16.5942C18.5071 16.3754 18.5675 15.2192 18.1147 14.0629C17.6316 12.8442 17.058 12.0942 16.4843 12.3754C15.9711 12.6567 15.9409 13.7504 16.4542 14.8442Z" fill="black"/>
</svg>