<?xml version="1.0" encoding="utf-8"?>
<!-- Generator: Adobe Illustrator 27.7.0, SVG Export Plug-In . SVG Version: 6.00 Build 0)  -->
<svg version="1.1" id="Layer_1" xmlns="http://www.w3.org/2000/svg" xmlns:xlink="http://www.w3.org/1999/xlink" x="0px" y="0px"
	 viewBox="0 0 25 30" style="enable-background:new 0 0 25 30;" xml:space="preserve">
<style type="text/css">
	.st0{fill:#FF3C00;}
</style>
<path class="st0" d="M12.2,20.5l2.1-1.6l-3.2,0.7L12.2,20.5z"/>
<path class="st0" d="M10.8,16.1c0,0,0.6,0.7,1.5-1.1l-0.8-1.5C11.5,13.5,10.3,15.3,10.8,16.1z"/>
<path class="st0" d="M7.4,16.1c0,0,2.6-3.3,1.7-6.6l-3.3,5.6c0,0,0.2,1,0.2,1.2C6,16.3,6.2,17.8,7.4,16.1z"/>
<path class="st0" d="M13,9.5c0,0,0.2-0.5-0.1-0.6c0,0-0.4-0.1-0.8,0.7c0,0-0.4,0.8,0,1.6C12.1,11,12.9,10,13,9.5z"/>
<path class="st0" d="M12.4,0L0,7.4v15.2L12.3,30l12.4-7.4V7.4L12.4,0z M11.3,9.2c1-1.6,1.9-1.8,1.9-1.8c1-0.2,0.9,0.8,0.9,0.8
	c0.2,1.5-1.5,3.7-1.5,3.7c0.1,0.4,0.6,1.2,0.6,1.2c0.3-0.5,0.7-2.1,0.7-2.1l1.5-0.8c-0.2,1.4-1.5,4.1-1.5,4.1
	c0.1,0.1,0.9,1.7,0.9,1.7l-1.5,0.8l-0.4-0.8c-1.8,2.6-2.8,2-2.8,2c-0.8-0.2-0.6-2.1-0.6-2.1c0.2-1.7,1.5-3.7,1.5-3.7
	C10.2,10.8,11.3,9.2,11.3,9.2z M9.7,6.3c1.4,4,0.5,6.7,0.5,6.7C9.1,16.8,7,18.5,7,18.5c-0.6,0.5-1.3,0.3-1.5-0.1
	c-0.3-0.4-0.4-1.1-0.4-1.1c-0.1-0.2-0.5-2.4-0.5-2.4L9.7,6.3z M10.6,23.5l-1.3-0.9l1.8-1.4l-1.6-1.3l-3,0.7l-1.4-1l11.1-2.4l1,1
	L10.6,23.5z M19.5,16.7l-0.2-0.3c0,0.5-0.1,0.7-0.1,0.7c-0.3,1.2-1.1,1.1-1.1,1.1c-1.5,0-2.5-2.5-2.5-2.5c-1.3-2.7-0.2-4.1-0.2-4.1
	c0.5-0.6,1.1-0.5,1.1-0.5l-1.1-2.1L16,8l4,7.7L19.5,16.7z"/>
<path class="st0" d="M16.5,14.8c0.6,1.4,1.2,2,1.6,1.8c0.4-0.2,0.5-1.4,0-2.5c-0.5-1.2-1.1-2-1.6-1.7C16,12.7,15.9,13.8,16.5,14.8z"
	/>
</svg>
