<svg xmlns="http://www.w3.org/2000/svg" width="44" height="32" viewBox="0 0 44 32" fill="none">
  <path d="M12.0255 0.5C12.9359 0.5 13.8463 0.5 14.7568 0.53125C15.2904 0.53125 15.7927 0.625 16.295 0.78125C17.1113 1.03125 17.7391 1.5 18.1472 2.25C18.4298 2.71875 18.524 3.25 18.5553 3.8125C18.5867 4.3125 18.524 4.84375 18.3356 5.3125C18.1158 5.90625 17.7391 6.40625 17.2368 6.78125C16.452 7.375 15.5416 7.59375 14.5684 7.59375C13.7522 7.59375 12.9045 7.59375 12.0883 7.59375C12.0569 7.59375 12.0255 7.59375 11.9941 7.59375C12.0255 5.25 12.0255 2.875 12.0255 0.5ZM13.5952 4.0625C13.5952 4.6875 13.5952 5.3125 13.5952 5.9375C13.5952 6.15625 13.5952 6.15625 13.815 6.15625C14.0347 6.15625 14.2859 6.15625 14.5056 6.15625C15.0079 6.15625 15.4788 6.09375 15.9497 5.84375C16.3892 5.625 16.7031 5.25 16.8601 4.78125C16.9857 4.4375 16.9857 4.09375 16.9543 3.75C16.9229 3.40625 16.7973 3.0625 16.5776 2.78125C16.2008 2.3125 15.6986 2.0625 15.1021 2C14.694 1.9375 14.2545 1.96875 13.815 1.9375C13.6266 1.9375 13.5952 1.9375 13.5952 2.15625C13.5952 2.78125 13.5952 3.40625 13.5952 4.0625Z" fill="black"/>
  <path d="M39.3057 0.03125C39.3057 0.53125 39.3057 0.53125 38.9604 0.875C38.6464 1.1875 38.3011 1.53125 37.9872 1.84375C37.9872 1.875 37.9558 1.90625 37.9244 1.90625C37.8616 1.96875 37.7988 1.9375 37.7988 1.84375C37.7988 1.75 37.7988 1.6875 37.7988 1.59375C37.7988 1.0625 37.7988 0.53125 37.7988 0C38.3011 0.03125 38.8034 0.03125 39.3057 0.03125Z" fill="black"/>
  <path d="M25.6795 23.9063C25.7109 23.8125 25.7423 23.75 25.7737 23.6562C25.8678 23.3125 25.962 23 26.0876 22.6563C26.1818 22.375 26.2446 22.0625 26.3387 21.7812C26.4015 21.5625 26.4643 21.3125 26.5585 21.0938C26.5899 21.0625 26.6527 21 26.7155 21C27.155 21 27.5945 21 28.034 21C28.1282 21 28.1595 21.0625 28.1282 21.1562C28.0026 21.5 27.877 21.8125 27.7514 22.1563C27.6259 22.5 27.5317 22.8437 27.4061 23.1875C27.2805 23.5312 27.155 23.8438 27.0294 24.1875C26.9352 24.4375 26.8724 24.6562 26.7782 24.9062C26.6841 25.2188 26.5585 25.5 26.4643 25.8125C26.4329 25.8438 26.3701 25.9063 26.3073 25.9063C25.8678 25.9063 25.4597 25.9063 25.0202 25.9063C24.9888 25.9063 24.8946 25.8438 24.8946 25.8125C24.8319 25.625 24.7691 25.4063 24.6749 25.1875C24.5807 24.875 24.4865 24.5937 24.3923 24.2812C24.2982 24.0312 24.2354 23.75 24.1412 23.5C24.0784 23.2812 24.0156 23.0625 23.9214 22.8438C23.9214 22.8125 23.89 22.8125 23.8587 22.75C23.8273 22.9062 23.7645 23.0312 23.7331 23.1875C23.6389 23.5312 23.5447 23.8438 23.4505 24.1875C23.3564 24.5 23.2936 24.8125 23.1994 25.125C23.1366 25.375 23.0738 25.5938 22.9796 25.8125C22.9796 25.8438 22.8855 25.9063 22.8541 25.9063C22.4146 25.9063 21.9751 25.9063 21.5355 25.9063C21.4728 25.9063 21.41 25.8438 21.41 25.8125C21.2844 25.5313 21.1902 25.25 21.096 24.9688C20.9705 24.625 20.8449 24.3125 20.7193 23.9687C20.6251 23.75 20.5624 23.5313 20.4682 23.2813C20.374 23.0313 20.2798 22.7813 20.1856 22.5313C20.0915 22.3125 20.0287 22.0938 19.9345 21.875C19.8403 21.625 19.7461 21.375 19.6519 21.1562C19.6206 21.0312 19.6519 20.9688 19.7775 20.9688C20.2484 20.9688 20.6879 20.9688 21.1588 20.9688C21.253 20.9688 21.2844 21 21.3158 21.0938C21.4414 21.5 21.5669 21.875 21.6925 22.2812C21.8181 22.6562 21.9437 23.0313 22.0378 23.4063C22.0692 23.5313 22.1006 23.6563 22.1634 23.7813C22.1634 23.8125 22.2262 23.8438 22.2576 23.875C22.289 23.8438 22.3204 23.8125 22.3204 23.7813C22.446 23.2813 22.6029 22.7812 22.7285 22.2812C22.8227 21.9062 22.9483 21.5 23.0424 21.125C23.0738 21.0312 23.1366 20.9688 23.2308 20.9688C23.7017 20.9688 24.1412 20.9688 24.6121 20.9688C24.7063 20.9688 24.7691 21 24.8005 21.0938C24.8946 21.4063 24.9888 21.6875 25.083 22C25.1772 22.3125 25.2714 22.625 25.3655 22.9375C25.4597 23.2188 25.5225 23.5 25.6167 23.7813C25.6167 23.8125 25.6481 23.8438 25.6481 23.9063C25.6481 23.9063 25.6481 23.9063 25.6795 23.9063Z" fill="black"/>
  <path d="M43.0094 22.0625C43.0094 23.25 43.0094 24.4375 43.0094 25.625C43.0094 25.8438 43.0094 25.875 42.7582 25.875C42.4443 25.875 42.099 25.875 41.785 25.875C41.5967 25.875 41.5653 25.8438 41.5653 25.6563C41.5653 25.5938 41.5653 25.5 41.5653 25.4375C41.5653 25.4063 41.5339 25.375 41.5339 25.3438C41.5025 25.3438 41.4711 25.375 41.4397 25.375C41.3141 25.4688 41.1886 25.5938 41.063 25.6875C40.6235 25.9688 40.0898 26.0313 39.5875 25.9375C39.0538 25.8438 38.6143 25.5938 38.269 25.1875C37.9237 24.7813 37.7353 24.2813 37.7039 23.7813C37.6725 23.375 37.6725 22.9688 37.8295 22.5938C38.0492 21.9375 38.3946 21.4063 39.0538 21.0938C39.5875 20.8438 40.1212 20.8438 40.6863 21C40.9688 21.0625 41.1886 21.1875 41.3769 21.4063C41.4083 21.4375 41.4397 21.4375 41.4397 21.4375C41.4711 21.4375 41.4711 21.4063 41.4711 21.375C41.4711 21.3125 41.4711 21.25 41.4711 21.1875C41.4711 20.2812 41.4711 19.4063 41.4711 18.5C41.4711 18.4062 41.5025 18.3438 41.6281 18.3438C42.0676 18.3438 42.4757 18.3438 42.9152 18.3438C43.0408 18.3438 43.0722 18.4062 43.0722 18.5C43.0094 19.6563 43.0094 20.875 43.0094 22.0625ZM40.4351 24.625C40.6235 24.6562 40.8432 24.5938 41.0316 24.4688C41.3141 24.2812 41.4711 24.0312 41.5025 23.6875C41.5339 23.4062 41.5339 23.125 41.4083 22.875C41.2514 22.5313 40.9688 22.3125 40.5607 22.2812C40.2782 22.25 40.027 22.25 39.7759 22.375C39.4933 22.5 39.305 22.7188 39.2422 23.0313C39.148 23.375 39.148 23.7188 39.2736 24.0313C39.5247 24.4375 39.9014 24.625 40.4351 24.625Z" fill="black"/>
  <path d="M40.8123 6.87562C40.8437 8.28187 39.6821 9.40687 38.2694 9.40687C36.8881 9.40687 35.7266 8.31312 35.7266 6.87562C35.7266 5.46937 36.8567 4.34437 38.2694 4.34437C39.6821 4.31312 40.8437 5.46937 40.8123 6.87562ZM38.8345 5.93812C38.7403 5.93812 38.6775 5.93812 38.5834 5.93812C38.395 5.93812 38.3636 5.96937 38.3008 6.15687C38.2694 6.34437 38.238 6.56312 38.2066 6.75062C38.1752 6.90687 38.3008 7.00062 38.4578 6.96937C38.4892 6.96937 38.552 6.90687 38.5834 6.90687C38.7089 6.81312 38.8973 6.84437 38.9915 6.93812C39.0856 7.06312 39.0856 7.25062 38.9915 7.34437C38.8973 7.43812 38.7089 7.43812 38.5834 7.34437C38.552 7.31312 38.5206 7.28187 38.4892 7.25062C38.4264 7.18812 38.238 7.18812 38.2066 7.25062C38.1438 7.34437 38.2066 7.40687 38.2694 7.50062C38.3636 7.62562 38.5206 7.71937 38.6775 7.75062C39.0229 7.81312 39.3996 7.56312 39.4624 7.25062C39.5252 6.87562 39.2112 6.43812 38.7717 6.53187C38.7089 6.53187 38.6461 6.56312 38.6461 6.46937C38.6147 6.34437 38.6775 6.25062 38.8031 6.25062C38.9287 6.25062 39.0543 6.25062 39.1798 6.25062C39.274 6.25062 39.3682 6.25062 39.3682 6.09437C39.3682 5.96937 39.3054 5.90687 39.1798 5.90687C39.0543 5.93812 38.9287 5.93812 38.8345 5.93812ZM37.8299 6.87562C37.8299 6.62562 37.8299 6.37562 37.8299 6.15687C37.8299 6.00062 37.7985 5.96937 37.6416 5.96937C37.5474 5.96937 37.4218 5.96937 37.3276 5.96937C37.1707 5.96937 37.1393 6.00062 37.1393 6.12562C37.1393 6.25062 37.202 6.28187 37.2962 6.28187C37.4218 6.28187 37.4532 6.34437 37.4532 6.43812C37.4532 6.81312 37.4532 7.18812 37.4532 7.56312C37.4532 7.71937 37.4846 7.75062 37.6102 7.75062C37.7671 7.75062 37.7985 7.71937 37.7985 7.56312C37.8299 7.34437 37.8299 7.09437 37.8299 6.87562Z" fill="black"/>
  <path d="M31.6156 25.3455C31.5528 25.3767 31.5528 25.3767 31.5528 25.3767C31.3017 25.7205 30.9564 25.8767 30.5482 25.9392C29.9204 26.0642 29.3239 26.0017 28.8216 25.5642C28.4135 25.2205 28.2565 24.7517 28.3507 24.2205C28.4135 23.6267 28.7902 23.2205 29.3553 23.033C29.9204 22.8142 30.5168 22.7517 31.1447 22.7517C31.2703 22.7517 31.3959 22.7517 31.5214 22.7517C31.647 22.7517 31.6784 22.7205 31.647 22.5955C31.5842 22.283 31.2703 22.0017 30.9564 21.9392C30.4541 21.8767 30.0146 22.0017 29.6378 22.3767C29.5123 22.5017 29.4809 22.5017 29.3867 22.3767C29.1983 22.1892 29.01 21.9705 28.7902 21.783C28.696 21.6892 28.696 21.6267 28.7902 21.5642C29.1355 21.283 29.5123 21.1267 29.9204 21.0017C30.3913 20.8767 30.8622 20.8767 31.3645 20.908C31.9923 20.9705 32.526 21.2205 32.8086 21.8142C32.9341 22.0642 32.9969 22.3455 33.0283 22.6267C33.0911 23.0642 33.0911 23.5017 33.0911 23.9392C33.0911 24.533 33.0911 25.1267 33.0911 25.7205C33.0911 25.908 33.0597 25.9392 32.8713 25.9392C32.526 25.9392 32.1807 25.9392 31.8354 25.9392C31.6784 25.9392 31.647 25.908 31.647 25.7517C31.6156 25.5642 31.6156 25.4705 31.6156 25.3455ZM31.6156 24.0017C31.6156 23.9392 31.6156 23.908 31.6156 23.8455C31.6156 23.7517 31.5842 23.7205 31.49 23.7205C31.1447 23.7517 30.8308 23.7517 30.4855 23.783C30.2657 23.8142 30.0773 23.908 29.9204 24.0642C29.732 24.283 29.7634 24.6267 30.0146 24.7517C30.1401 24.8142 30.2971 24.8767 30.4227 24.8767C30.611 24.8767 30.7994 24.8455 30.9564 24.783C31.3645 24.7205 31.647 24.408 31.6156 24.0017Z" fill="black"/>
  <path d="M39.1786 15.436C39.0844 15.5297 38.9903 15.6235 38.8961 15.686C38.4566 16.0297 37.9543 16.0922 37.3892 16.0297C37.0125 15.9985 36.6672 15.8735 36.3846 15.5922C36.0079 15.2485 35.8823 14.811 35.9451 14.311C36.0393 13.6547 36.4474 13.2797 37.0439 13.061C37.6717 12.8422 38.3624 12.811 39.0217 12.811C39.21 12.811 39.2414 12.7485 39.1786 12.561C39.0217 12.0922 38.5194 11.936 38.0799 11.9985C37.7345 12.061 37.4206 12.2172 37.1694 12.4672C37.1067 12.5297 37.0125 12.5297 36.9497 12.4672C36.7299 12.2485 36.5416 12.0297 36.3218 11.811C36.259 11.7485 36.259 11.6547 36.3532 11.5922C36.6672 11.3422 36.9811 11.186 37.3578 11.061C37.9857 10.8735 38.6135 10.8422 39.2728 10.9985C39.8065 11.1235 40.1832 11.436 40.4344 11.936C40.6227 12.3735 40.6541 12.8735 40.6855 13.3422C40.6855 14.1547 40.6855 14.936 40.6855 15.7485C40.6855 15.9047 40.6541 15.936 40.4971 15.936C40.1518 15.936 39.7751 15.936 39.4298 15.936C39.3042 15.936 39.2728 15.8735 39.2728 15.7797C39.2728 15.6547 39.2728 15.561 39.2728 15.436C39.21 15.436 39.21 15.436 39.1786 15.436ZM38.7391 13.8422C38.3938 13.8422 38.0485 13.8735 37.7345 14.061C37.5148 14.186 37.4206 14.3735 37.4206 14.561C37.452 14.7797 37.609 14.9047 37.8287 14.9672C38.0799 15.0297 38.331 14.9985 38.5508 14.936C38.7077 14.8735 38.8647 14.7797 39.0217 14.6547C39.2414 14.4672 39.2414 14.186 39.21 13.9047C39.21 13.8735 39.1472 13.811 39.0844 13.811C38.9903 13.811 38.8647 13.8422 38.7391 13.8422Z" fill="black"/>
  <path d="M24.832 5.15799C24.832 4.40799 24.832 3.62674 24.832 2.87674C24.832 2.78299 24.8634 2.72049 24.989 2.72049C25.3657 2.72049 25.7424 2.72049 26.1506 2.72049C26.2761 2.72049 26.3075 2.75174 26.3075 2.90799C26.3075 3.00174 26.3075 3.06424 26.3075 3.15799C26.3075 3.18924 26.3389 3.22049 26.3389 3.25174C26.3703 3.22049 26.4331 3.22049 26.4331 3.18924C26.5587 3.00174 26.747 2.84549 26.9668 2.78299C27.1551 2.72049 27.3435 2.62674 27.5319 2.62674C27.8772 2.59549 28.1911 2.59549 28.5364 2.72049C28.8818 2.84549 29.1015 3.06424 29.2899 3.37674C29.5096 3.75174 29.541 4.15799 29.5724 4.56424C29.6038 5.53299 29.6038 6.50174 29.6038 7.43924C29.6038 7.56424 29.5724 7.59549 29.4155 7.59549C29.0387 7.59549 28.6306 7.59549 28.2539 7.59549C28.0969 7.59549 28.0655 7.56424 28.0655 7.40799C28.0655 6.59549 28.0655 5.78299 28.0655 4.97049C28.0655 4.78299 28.0342 4.59549 27.9714 4.40799C27.9086 4.15799 27.7202 4.00174 27.4377 3.97049C27.1237 3.93924 26.8412 3.97049 26.6215 4.25174C26.4645 4.43924 26.4331 4.68924 26.4017 4.90799C26.3703 5.22049 26.4017 5.56424 26.4017 5.87674C26.4017 6.37674 26.4017 6.90799 26.4017 7.40799C26.4017 7.59549 26.3703 7.59549 26.2133 7.59549C25.8366 7.59549 25.4913 7.59549 25.1146 7.59549C24.9576 7.59549 24.9262 7.56424 24.9262 7.40799C24.832 6.65799 24.832 5.90799 24.832 5.15799Z" fill="black"/>
  <path d="M23.8906 6.12674C23.8906 6.56424 23.8906 7.00174 23.8906 7.40799C23.8906 7.56424 23.8592 7.59549 23.7022 7.59549C23.3569 7.59549 23.0116 7.59549 22.6662 7.59549C22.5093 7.59549 22.4779 7.56424 22.4779 7.40799C22.4779 7.34549 22.4779 7.25174 22.4779 7.18924C22.4779 7.15799 22.4465 7.12674 22.4465 7.09549C22.4151 7.09549 22.3837 7.09549 22.3523 7.12674C21.8814 7.65799 21.2849 7.75174 20.6571 7.68924C20.1234 7.62674 19.6839 7.40799 19.4013 6.93924C19.3385 6.81424 19.2758 6.72049 19.2444 6.59549C19.1816 6.25174 19.1816 5.93924 19.3072 5.62674C19.4327 5.31424 19.6525 5.09549 19.935 4.93924C20.4373 4.65799 20.971 4.59549 21.5047 4.53299C21.7558 4.50174 22.0384 4.50174 22.2895 4.50174C22.4465 4.50174 22.4779 4.47049 22.4465 4.31424C22.3837 4.00174 22.1012 3.72049 21.7558 3.65799C21.2535 3.56424 20.814 3.72049 20.4373 4.06424C20.3117 4.18924 20.3117 4.18924 20.1548 4.06424C19.9664 3.87674 19.7781 3.68924 19.5897 3.50174C19.4955 3.40799 19.4955 3.37674 19.5897 3.28299C19.935 3.00174 20.3117 2.81424 20.7512 2.72049C21.1908 2.59549 21.6617 2.59549 22.1012 2.62674C22.5407 2.65799 22.9488 2.81424 23.2627 3.12674C23.5453 3.40799 23.7022 3.78299 23.765 4.15799C23.7964 4.37674 23.8278 4.59549 23.8278 4.81424C23.8906 5.25174 23.8906 5.68924 23.8906 6.12674ZM21.3791 6.68924C21.693 6.68924 21.9442 6.59549 22.1639 6.47049C22.4151 6.28299 22.5721 5.90799 22.4779 5.59549C22.4465 5.50174 22.3837 5.50174 22.3209 5.50174C21.9756 5.53299 21.6303 5.53299 21.3163 5.59549C21.1594 5.62674 21.0024 5.72049 20.8454 5.81424C20.5943 5.97049 20.6257 6.40799 20.814 6.56424C21.0024 6.62674 21.1908 6.68924 21.3791 6.68924Z" fill="black"/>
  <path d="M26.7471 15.4688C26.6215 15.5625 26.5273 15.6563 26.4018 15.7188C25.9309 16 25.4286 16.0625 24.8949 15.9375C24.7379 15.9063 24.5495 15.8438 24.3926 15.7813C24.267 15.75 24.267 15.6562 24.3298 15.5937C24.6437 15.2812 24.9577 14.9687 25.2716 14.6562C25.303 14.625 25.3972 14.5938 25.4913 14.625C25.9622 14.6875 26.339 14.5625 26.6529 14.1875C26.8727 13.9062 26.9982 13.5938 26.8727 13.2187C26.8413 13.125 26.904 13.0313 26.9668 12.9688C27.3122 12.625 27.6889 12.25 28.0342 11.9062C28.097 11.8437 28.1284 11.7812 28.1912 11.75C28.2226 11.7187 28.254 11.7188 28.2854 11.7188C28.3167 11.7188 28.3167 11.7812 28.3167 11.8125C28.3167 11.9062 28.3167 12 28.3167 12.0625C28.3167 13.2812 28.3167 14.5 28.3167 15.7188C28.3167 16.125 28.254 16.5312 28.0656 16.9375C27.8458 17.4687 27.4377 17.875 26.8727 18.0938C26.3076 18.3125 25.7111 18.375 25.1146 18.3125C24.7693 18.2812 24.4554 18.25 24.1414 18.1562C23.7333 18.0625 23.3566 17.875 23.0113 17.5938C22.9171 17.5313 22.8229 17.4375 22.7287 17.3438C22.6659 17.2813 22.6659 17.25 22.7287 17.1875C23.0113 16.875 23.3252 16.5938 23.6077 16.2812C23.7019 16.1875 23.7647 16.25 23.8589 16.2812C24.0473 16.4062 24.267 16.5625 24.4868 16.6875C24.8949 16.9062 25.303 16.9688 25.7739 16.9062C26.0878 16.875 26.3704 16.75 26.5587 16.5C26.7157 16.3125 26.7785 16.0625 26.7785 15.8437C26.7785 15.7187 26.7785 15.5625 26.7785 15.4375C26.7785 15.4687 26.7471 15.4688 26.7471 15.4688Z" fill="black"/>
  <path d="M32.5883 13.5938C32.5883 13.2188 32.5883 12.8438 32.5883 12.4688C32.5883 12.3125 32.5569 12.3125 32.4313 12.3125C32.2116 12.3125 32.0232 12.3125 31.8035 12.3125C31.6465 12.3125 31.6465 12.2812 31.6465 12.1562C31.6465 11.875 31.6465 11.5937 31.6465 11.3125C31.6465 11.125 31.6779 11.0938 31.8662 11.0938C32.0546 11.0938 32.243 11.0938 32.4313 11.0938C32.5569 11.0938 32.5883 11.0625 32.5883 10.9375C32.5883 10.5938 32.5883 10.25 32.5883 9.90625C32.5883 9.71875 32.6197 9.6875 32.808 9.6875C33.1848 9.6875 33.5301 9.6875 33.9068 9.6875C34.0952 9.6875 34.1266 9.71875 34.1266 9.90625C34.1266 10.25 34.1266 10.5938 34.1266 10.9375C34.1266 11.0938 34.158 11.0938 34.3149 11.0938C34.6289 11.0938 34.9428 11.0938 35.2567 11.0938C35.4137 11.0938 35.4451 11.1563 35.4451 11.2813C35.4451 11.5938 35.4451 11.875 35.4451 12.1875C35.4451 12.3125 35.3823 12.3438 35.2567 12.3438C34.9428 12.3438 34.5975 12.3438 34.2835 12.3438C34.1266 12.3438 34.0952 12.3438 34.1266 12.5C34.1266 13.0625 34.1266 13.625 34.1266 14.2188C34.1266 14.4375 34.1893 14.625 34.4091 14.75C34.4719 14.7812 34.5033 14.8125 34.5661 14.8125C34.8172 14.8438 35.0684 14.8437 35.3195 14.75C35.4137 14.7187 35.4451 14.75 35.4451 14.8438C35.4451 15.1875 35.4451 15.5312 35.4451 15.8437C35.4451 15.875 35.4137 15.9375 35.3509 15.9688C35.2881 16 35.2253 16.0313 35.1625 16.0313C34.6602 16.125 34.158 16.1563 33.6557 16.0313C33.2161 15.9375 32.8394 15.6875 32.6825 15.2187C32.6197 15.0312 32.5883 14.8438 32.5883 14.625C32.5569 14.2813 32.5883 13.9375 32.5883 13.5938Z" fill="black"/>
  <path d="M35.509 21.6592C35.5404 21.5967 35.5718 21.5967 35.6032 21.5654C35.9171 21.0654 36.388 20.8467 36.9845 20.8779C37.0786 20.8779 37.1728 20.8779 37.267 20.9092C37.3612 20.9092 37.424 20.9717 37.424 21.0342C37.424 21.4092 37.424 21.7842 37.424 22.1904C37.424 22.2842 37.3612 22.3154 37.267 22.3154C36.9531 22.2529 36.6391 22.2217 36.3252 22.3154C35.9799 22.3779 35.7287 22.5967 35.6346 22.9717C35.5404 23.2842 35.5404 23.5967 35.5404 23.9092C35.5404 24.5029 35.5404 25.1279 35.5404 25.7217C35.5404 25.9092 35.509 25.9404 35.3206 25.9404C34.9439 25.9404 34.5672 25.9404 34.1905 25.9404C34.0021 25.9404 33.9707 25.9092 33.9707 25.7217C33.9707 24.2842 33.9707 22.8154 33.9707 21.3779C33.9707 21.0342 33.9707 21.0342 34.316 21.0342C34.6614 21.0342 35.0067 21.0342 35.352 21.0342C35.509 21.0342 35.5404 21.0654 35.5404 21.2217C35.5404 21.3154 35.5404 21.4404 35.5404 21.5342C35.4776 21.5342 35.509 21.5654 35.509 21.6592Z" fill="black"/>
  <path d="M31.0498 13.5C31.0498 14.25 31.0498 15 31.0498 15.75C31.0498 15.9062 31.0185 15.9375 30.8615 15.9375C30.4848 15.9375 30.0767 15.9375 29.6999 15.9375C29.5744 15.9375 29.543 15.9062 29.543 15.75C29.543 14.8437 29.543 13.9687 29.543 13.0625C29.543 12.4687 29.543 11.875 29.543 11.25C29.543 11.0625 29.5744 11.0312 29.7627 11.0312C30.1081 11.0312 30.4848 11.0312 30.8301 11.0312C31.0185 11.0312 31.0498 11.0625 31.0498 11.25C31.0498 12.0313 31.0498 12.75 31.0498 13.5Z" fill="black"/>
  <path d="M16.5784 24.3753C16.3272 24.3753 16.0761 24.3753 15.7935 24.3753C15.7621 24.3753 15.6994 24.3441 15.668 24.3441C15.6994 24.3128 15.6994 24.2503 15.7308 24.2191C16.4842 23.4691 17.2376 22.7191 17.9911 21.9691C18.1166 21.8441 18.148 21.8441 18.2108 22.0003C18.3678 22.3753 18.5562 22.7816 18.7131 23.1566C18.8701 23.5003 19.0271 23.8753 19.184 24.2191C19.341 24.5628 19.498 24.9378 19.6549 25.2816C19.7177 25.4066 19.7805 25.5316 19.8119 25.6566C19.9061 25.8441 19.8747 25.9066 19.6549 25.9066C19.2154 25.9066 18.7445 25.9066 18.305 25.9066C18.1166 25.9066 18.0853 25.9066 18.0225 25.7191C17.8655 25.3128 17.6771 24.9066 17.5202 24.5003C17.4888 24.4066 17.426 24.4066 17.3318 24.4066C17.1121 24.3753 16.8609 24.3753 16.5784 24.3753Z" fill="black"/>
  <path d="M30.5801 5.15625C30.5801 4.40625 30.5801 3.65625 30.5801 2.90625C30.5801 2.75 30.6115 2.75 30.737 2.75C31.1138 2.75 31.5219 2.75 31.8986 2.75C32.0556 2.75 32.087 2.78125 32.087 2.9375C32.087 3.9375 32.087 4.9375 32.087 5.9375C32.087 6.4375 32.087 6.90625 32.087 7.40625C32.087 7.59375 32.0556 7.59375 31.8986 7.59375C31.5219 7.59375 31.1452 7.59375 30.7684 7.59375C30.6115 7.59375 30.5801 7.5625 30.5801 7.40625C30.5801 6.65625 30.5801 5.90625 30.5801 5.15625Z" fill="black"/>
  <path d="M32.9941 4.31258C32.9941 3.62508 33.3709 3.06258 33.9673 2.81258C34.5638 2.56258 35.1917 2.56258 35.8195 2.68758C36.1021 2.75008 36.3532 2.84383 36.573 3.00008C36.6672 3.06258 36.6672 3.12508 36.6044 3.21883C36.3532 3.46883 36.1335 3.68758 35.8823 3.93758C35.8195 4.00008 35.7568 4.00008 35.694 3.93758C35.4742 3.75008 35.1917 3.71883 34.9091 3.75008C34.6894 3.78133 34.5324 3.90633 34.5324 4.09383C34.5324 4.21883 34.5638 4.34383 34.6894 4.37508C34.815 4.43758 34.9405 4.46883 35.0661 4.50008C35.2231 4.53133 35.2231 4.59383 35.1289 4.71883C34.8777 4.96883 34.5952 5.21883 34.3441 5.50008C34.2499 5.59383 34.1871 5.62508 34.0615 5.56258C33.8732 5.46883 33.6534 5.40633 33.465 5.25008C33.1197 5.03133 32.9941 4.65633 32.9941 4.31258Z" fill="black"/>
  <path d="M31.3655 0.345567C31.805 0.314317 32.2445 0.751817 32.2131 1.25182C32.2131 1.72057 31.805 2.09557 31.3341 2.09557C30.8632 2.09557 30.4551 1.68932 30.4551 1.22057C30.4865 0.689317 30.8632 0.314317 31.3655 0.345567Z" fill="black"/>
  <path d="M30.2664 10.4692C30.1408 10.4379 29.9839 10.4067 29.8583 10.3442C29.7327 10.2817 29.7327 10.2504 29.8269 10.1567C30.0467 9.93792 30.2664 9.71917 30.4862 9.50042C30.6117 9.37542 30.7059 9.25042 30.8315 9.15667C30.9257 9.06292 30.9885 9.06292 31.0198 9.18792C31.0826 9.34417 31.1454 9.50042 31.1454 9.65667C31.1768 10.0629 30.7687 10.4692 30.2664 10.4692Z" fill="black"/>
  <path d="M42.3481 28.7808C42.505 28.7496 42.662 28.7808 42.7876 28.9058C42.8504 28.9996 42.9132 29.0933 42.9132 29.2183C42.9132 29.1246 42.8818 28.9996 42.7876 28.9058C42.6934 28.7808 42.5364 28.7496 42.3481 28.7808C42.3167 28.7808 42.2539 28.8433 42.2539 28.9058C42.2853 28.8433 42.3167 28.7808 42.3481 28.7808Z" fill="black"/>
  <path d="M12.7777 29.5625C12.6835 29.6562 12.4951 29.6875 12.3696 29.6563C12.3382 29.6563 12.2754 29.5938 12.2754 29.5312C12.2754 29.5625 12.3382 29.6563 12.3696 29.6563C12.5265 29.7188 12.6835 29.6562 12.7777 29.5625Z" fill="black"/>
  <path d="M12.401 28.7816C12.5265 28.7816 12.6207 28.8128 12.7463 28.8441C12.8719 28.9066 12.9347 29.0628 12.9347 29.2191C12.9347 29.0628 12.9033 28.9066 12.7463 28.8441C12.6521 28.7816 12.5265 28.7816 12.401 28.7816C12.3068 28.7503 12.2754 28.8128 12.2754 28.9066C12.2754 28.8128 12.3068 28.7816 12.401 28.7816Z" fill="black"/>
  <path d="M42.3795 29.6875C42.2853 29.6875 42.2539 29.6563 42.2539 29.5625C42.2539 29.625 42.3167 29.6875 42.3795 29.6875C42.5051 29.6875 42.662 29.6875 42.7562 29.5937C42.662 29.6562 42.5051 29.6875 42.3795 29.6875Z" fill="black"/>
  <path d="M35.0977 29.6875C35.0349 29.6875 35.0035 29.75 34.9407 29.75C34.7524 29.75 34.6896 29.7187 34.6582 30.0312H35.3802C35.3802 29.7187 35.2861 29.6875 35.0977 29.6875Z" fill="black"/>
  <path d="M37.0438 29.2188C36.981 29.4375 36.9183 29.4062 36.8555 30.0312H37.295C37.2322 29.4062 37.2008 29.5 37.0752 29.25L37.0438 29.2188Z" fill="black"/>
  <path d="M35.0368 29.375C35.0681 29.375 35.0995 29.375 35.1309 29.375C35.1623 29.3438 35.1937 29.3125 35.1937 29.2812C35.1623 29.1562 35.0995 29.0625 35.0681 28.9375H35.0368C35.0054 29.0312 34.9426 29.125 34.9112 29.1875C34.8484 29.375 34.8798 29.375 35.0368 29.375Z" fill="black"/>
  <path d="M30.7638 29.375C30.7952 29.375 30.858 29.375 30.8894 29.375C30.9208 29.375 30.9522 29.3125 30.9522 29.3125C30.9208 29.1875 30.858 29.0625 30.8266 28.9375C30.7952 28.9375 30.7952 28.9375 30.7638 28.9375C30.7325 29.0312 30.6697 29.125 30.6383 29.2188C30.6069 29.3438 30.6383 29.375 30.7638 29.375Z" fill="black"/>
  <path d="M30.8614 29.6875C30.7986 29.6875 30.7672 29.75 30.7044 29.7187C30.5474 29.7187 30.4533 29.6875 30.4219 30H31.1125C31.1125 29.7188 31.0497 29.6875 30.8614 29.6875Z" fill="black"/>
  <path d="M42.8818 29.407C42.9132 29.3445 42.9132 29.282 42.9132 29.2195C42.9132 29.1257 42.8818 29.0007 42.7876 28.907C42.6934 28.7507 42.505 28.7507 42.3481 28.782C42.3167 28.782 42.2539 28.9382 42.2539 29.0007C42.2539 29.0945 42.2539 29.407 42.2539 29.407C42.2539 29.407 42.2539 29.532 42.2539 29.657C42.2539 29.7507 42.2853 29.7195 42.3795 29.7507C42.5051 29.7507 42.662 29.7195 42.7562 29.6257C42.819 29.5632 42.8504 29.4695 42.8818 29.407Z" fill="black"/>
  <path d="M40.8093 29.4375C40.7151 29.3125 40.7465 29.2812 40.9035 29.25C41.0919 29.2187 41.186 29.0312 41.0605 28.8437C40.9977 28.75 40.8721 28.75 40.7779 28.75C40.6837 28.75 40.6523 28.7813 40.6523 28.875C40.6523 29.1875 40.6523 29.5937 40.6523 29.875V30H41.0291C41.0291 30 41.0291 29.875 40.9977 29.875C40.9349 29.7812 40.8721 29.5625 40.8093 29.4375Z" fill="black"/>
  <path d="M39.1464 29.6875C39.115 29.6875 39.0522 29.75 39.0208 29.75C38.8325 29.75 38.7697 29.7187 38.7383 30.0312H39.4603C39.4289 29.7187 39.3348 29.6875 39.1464 29.6875Z" fill="black"/>
  <path d="M38.9611 29.375C39.0553 29.375 39.118 29.375 39.2122 29.375C39.2122 29.375 39.2436 29.3125 39.2436 29.2812C39.2122 29.1875 39.1494 29.0625 39.118 28.9375C38.9925 29.0625 38.9925 29.1875 38.9297 29.3125C38.9297 29.3125 38.9611 29.375 38.9611 29.375Z" fill="black"/>
  <path d="M23.7975 28.9688C23.7033 28.8125 23.515 28.7188 23.3266 28.7813C23.2952 28.7813 23.2324 28.8438 23.2324 28.9063C23.2324 29.0313 23.2324 29.125 23.2324 29.25C23.2324 29.375 23.2324 29.4688 23.2324 29.5938C23.2324 29.625 23.2638 29.6875 23.3266 29.7188C23.4836 29.7813 23.7033 29.6875 23.7975 29.5625C23.8603 29.375 23.8603 29.125 23.7975 28.9688Z" fill="black"/>
  <path d="M15.9492 29.1562C15.9492 29.4062 15.9492 29.4063 15.9492 30.0313H16.5771C16.3887 29.4063 16.2004 29.4375 16.012 29.1562C15.9806 29.1875 15.9492 29.1562 15.9492 29.1562Z" fill="black"/>
  <path d="M12.3678 29.6875C12.4933 29.7188 12.6817 29.6875 12.7759 29.5937C12.8073 29.5625 12.8387 29.5312 12.8701 29.4687C12.9014 29.4062 12.9014 29.3125 12.9014 29.2188C12.9014 29.0625 12.8701 28.9062 12.7131 28.8437C12.6189 28.7812 12.4933 28.7812 12.3678 28.7812C12.2736 28.7812 12.2422 28.9062 12.2422 29C12.2422 29.125 12.2422 29.4062 12.2422 29.4062C12.2422 29.4062 12.2422 29.5625 12.2422 29.6563C12.305 29.6875 12.3364 29.6563 12.3678 29.6875Z" fill="black"/>
  <path d="M14.502 29.6875C14.4392 29.6875 14.4078 29.75 14.345 29.75C14.1567 29.75 14.0939 29.7187 14.0625 30.0312H14.7532C14.7532 29.7187 14.659 29.6875 14.502 29.6875Z" fill="black"/>
  <path d="M14.3167 29.375C14.3795 29.375 14.4423 29.375 14.5051 29.375C14.5364 29.375 14.5678 29.3125 14.5678 29.2812C14.5364 29.1562 14.4737 29.0625 14.4423 28.9375C14.4109 28.9375 14.4109 28.9375 14.3795 28.9375C14.3481 29.0625 14.2853 29.1875 14.2539 29.3125C14.2539 29.3125 14.2853 29.375 14.3167 29.375Z" fill="black"/>
  <path d="M20.9093 29.532C20.9093 29.3445 20.9093 29.3132 20.7209 29.3132C20.3756 29.3132 20.407 29.282 20.407 29.6257C20.407 29.657 20.407 29.7507 20.407 29.782C20.407 29.8132 20.407 29.8445 20.407 29.8445H20.9407V29.8132C20.8779 29.7507 20.9093 29.6257 20.9093 29.532Z" fill="black"/>
  <path d="M32.5531 29.7812C32.5217 29.7812 32.4903 29.7187 32.4903 29.75C32.3647 29.75 32.3333 29.6875 32.3333 29.5625C32.3333 29.2812 32.3333 29 32.3333 28.7188C32.3333 28.625 32.2705 28.5625 32.1764 28.5625C32.0822 28.5625 32.0508 28.625 32.0508 28.7188C32.0508 29.0938 32.0508 29.5312 32.0508 29.9062V30.0312H32.7728C32.7728 29.7187 32.7728 29.7812 32.5531 29.7812Z" fill="black"/>
  <path d="M17.8293 30.0312C17.8293 29.4062 17.8293 29.1875 17.8293 28.8125C17.8293 28.7187 17.8293 28.5938 17.7037 28.5938C17.5781 28.5938 17.5781 28.6562 17.5781 28.75C17.5781 29.125 17.5781 29.5625 17.5781 29.9375V30.0625H17.8293V30.0312Z" fill="black"/>
  <path d="M28.0987 30.0312C28.0987 29.4062 28.0987 29.1875 28.0987 28.8125C28.0987 28.7187 28.0673 28.5938 27.9731 28.5938C27.8789 28.5938 27.9103 28.625 27.9103 28.75C27.9103 28.9375 28.0045 29.1563 28.0045 29.3438C28.0045 29.5313 28.0045 29.7187 28.0045 30.0312H27.8789H28.0987Z" fill="black"/>
  <path d="M29.2916 29.875C29.2916 29.625 29.2916 29.3125 29.2916 29.0313C29.2916 28.8438 29.2916 28.8125 29.48 28.7813C29.5114 28.7813 29.5742 28.6875 29.5742 28.6563C29.5742 28.625 29.5114 28.5312 29.48 28.5312C29.2603 28.5312 29.0405 28.5312 28.8207 28.5312C28.7894 28.5312 28.7266 28.5938 28.7266 28.625C28.7266 28.6563 28.7894 28.6875 28.8207 28.7188C28.8521 28.7188 28.8835 28.7188 28.8835 28.7188C28.9777 28.7188 29.0091 28.75 29.0091 28.8437C29.0091 29.1562 29.0091 29.5625 29.0091 29.875V29.9688H29.2602C29.2916 30.0313 29.2916 29.9063 29.2916 29.875Z" fill="black"/>
  <path d="M19.2767 29.9375C19.5278 29.6875 19.4337 29.3437 19.1825 29.2187C19.0883 29.1875 18.9942 29.125 18.9314 29.0937C18.8686 29.0625 18.8372 29 18.8372 28.9375C18.8372 28.9062 18.8686 28.8125 18.9314 28.8125C18.9942 28.7812 19.0569 28.8125 19.1197 28.8437C19.1511 28.8437 19.1511 28.875 19.1825 28.9062C19.2453 28.9687 19.3081 29 19.3709 28.9375C19.4023 28.9062 19.4023 28.8125 19.3709 28.75C19.2767 28.5937 19.1197 28.5625 18.9628 28.5625C18.7744 28.5938 18.6174 28.7188 18.586 28.875C18.5547 29.0312 18.6174 29.1562 18.8058 29.2812C18.9 29.3437 19.0256 29.375 19.1197 29.4375C19.1511 29.4687 19.2139 29.5625 19.1825 29.625C19.1825 29.6875 19.1197 29.75 19.0569 29.75C18.9942 29.75 18.9314 29.7187 18.8686 29.6875C18.8372 29.6875 18.8372 29.625 18.8058 29.5937C18.743 29.5312 18.6488 29.5 18.586 29.5625C18.5547 29.5937 18.5547 29.7812 18.586 29.8437C18.6174 29.9062 18.6488 29.7812 18.6802 30.0937H19.2767C19.2767 30.0312 19.2767 29.9375 19.2767 29.9375Z" fill="black"/>
  <path d="M12.8391 29.9375C13.0275 29.8437 13.1217 29.625 13.1845 29.4375C13.2787 29.0625 12.8391 28.5625 12.3682 28.5937C12.2113 28.5937 12.0229 28.5625 11.709 28.5625C11.709 29 11.709 29.4375 11.709 30.0625H12.8705C12.8391 30.0312 12.8391 29.9375 12.8391 29.9375ZM12.3055 29.6562C12.3055 29.5312 12.3055 29.4062 12.3055 29.4062C12.3055 29.4062 12.3055 29.0937 12.3055 29C12.3055 28.9062 12.3369 28.8125 12.431 28.8437C12.5566 28.8437 12.6508 28.8437 12.7764 28.9062C12.9019 28.9687 12.9647 29.125 12.9647 29.2812C12.9647 29.375 12.9333 29.4375 12.9333 29.5312C12.9019 29.5625 12.8705 29.625 12.8391 29.6562C12.745 29.75 12.5566 29.8438 12.431 29.8125C12.3369 29.7188 12.3055 29.6875 12.3055 29.6562Z" fill="black"/>
  <path d="M12.7754 29.5625C12.8068 29.5312 12.8382 29.5 12.8696 29.4375C12.901 29.375 12.901 29.2813 12.901 29.1875C12.901 29.2813 12.8696 29.375 12.8696 29.4375C12.8696 29.5 12.8382 29.5312 12.7754 29.5625Z" fill="black"/>
  <path d="M37.0426 29.2191C37.074 29.2191 37.074 29.2503 37.1054 29.2503C37.1996 29.4691 37.231 29.4066 37.3252 30.0316H37.5763C37.6077 29.7191 37.6077 29.7816 37.6391 29.7191C37.7333 29.4066 37.7961 29.0628 37.8903 28.7816C37.9217 28.7191 37.9531 28.6253 37.8589 28.5941C37.7647 28.5628 37.7019 28.5628 37.6391 28.6566C37.6391 28.6878 37.6077 28.7191 37.6077 28.7191C37.5763 28.9066 37.5135 29.0941 37.4822 29.2816C37.4822 29.3128 37.4508 29.3441 37.4194 29.4066C37.388 29.3441 37.3566 29.2816 37.3566 29.2503C37.2938 29.0628 37.2624 28.8753 37.1996 28.6878C37.1682 28.6253 37.1368 28.5628 37.074 28.5628C36.9799 28.5316 36.9485 28.5941 36.9485 28.6878C36.8857 28.9066 36.8543 29.0941 36.7915 29.3128C36.7915 29.3441 36.7601 29.4066 36.7287 29.4378H36.6973C36.6973 29.4066 36.6659 29.3441 36.6659 29.3128C36.6031 29.0941 36.5717 28.9066 36.509 28.6878C36.4776 28.5941 36.4148 28.5628 36.3206 28.5941C36.2264 28.6253 36.2578 28.6878 36.2892 28.7816C36.3834 29.0941 36.4776 29.5003 36.5717 29.8441C36.5717 29.9066 36.6031 29.7816 36.6031 30.0941H36.8857C36.9171 29.4066 36.9799 29.4691 37.0426 29.2191Z" fill="black"/>
  <path d="M25.0539 28.7812C25.0539 28.6875 25.0225 28.5938 24.9283 28.5938C24.8341 28.5938 24.8027 28.625 24.8027 28.7188C24.8027 29.0938 24.8027 29.5312 24.8027 29.9062C24.8027 29.9375 24.8027 30.0312 24.8027 30.0312H25.0539C25.0225 29.4062 25.0539 29.1875 25.0539 28.7812Z" fill="black"/>
  <path d="M26.8418 29.9067C26.9988 29.8129 27.0929 29.6254 27.1557 29.4379C27.1871 29.3129 27.1557 29.2192 27.0301 29.2192C26.8418 29.2192 26.622 29.1879 26.4337 29.2192C26.4023 29.2192 26.3395 29.2817 26.3081 29.3129C26.3395 29.3442 26.3709 29.4067 26.4337 29.4067C26.5279 29.4067 26.622 29.4067 26.7476 29.4067C26.779 29.4067 26.8418 29.4379 26.8418 29.4692C26.8418 29.4692 26.8104 29.5317 26.8104 29.5629C26.6848 29.7192 26.4965 29.7504 26.3081 29.6879C26.1197 29.6254 26.0256 29.5004 25.9942 29.3442C25.9628 29.1567 26.0256 28.9379 26.2139 28.8442C26.3709 28.7504 26.5906 28.7817 26.7476 28.9067C26.8104 28.9379 26.8418 28.9692 26.9046 29.0004C26.936 29.0004 26.9988 28.9692 27.0615 28.9692C27.0615 28.9379 27.0615 28.8754 27.0301 28.8442C26.8418 28.5942 26.4337 28.5004 26.1825 28.6254C25.9314 28.7504 25.7744 28.9379 25.743 29.2192C25.7116 29.5004 25.8372 29.8129 26.0883 29.9692C26.0883 29.9692 26.0883 30.0942 26.1197 30.0942H26.8418C26.8418 30.0317 26.8418 29.9067 26.8418 29.9067Z" fill="black"/>
  <path d="M23.8577 29.875C24.0774 29.7187 24.1088 29.4375 24.1088 29.1875C24.0774 28.9375 23.9832 28.6875 23.7321 28.625C23.5123 28.5625 23.2926 28.5625 23.0414 28.5625C23.0101 28.5625 22.9473 28.6562 22.9473 28.6875C22.9473 29.0312 22.9473 29.4687 22.9473 29.8437C22.9473 29.875 22.9473 30 22.9473 30H23.7635C23.7949 30.0312 23.8263 29.9062 23.8577 29.875ZM23.2926 29.6875C23.2612 29.6875 23.2298 29.625 23.1984 29.5625C23.1984 29.4375 23.1984 29.3437 23.1984 29.2187C23.1984 29.0937 23.1984 29 23.1984 28.875C23.1984 28.8437 23.2612 28.7812 23.2926 28.75C23.481 28.7187 23.6693 28.7812 23.7635 28.9375C23.8577 29.0625 23.8263 29.3437 23.7321 29.4687C23.6693 29.6562 23.4496 29.7187 23.2926 29.6875Z" fill="black"/>
  <path d="M30.7018 29.6875C30.7646 29.6875 30.796 29.75 30.8588 29.75C31.0471 29.75 31.1099 29.7187 31.1413 30.0312H31.4238C31.2669 29.4062 31.1099 29.1562 30.9529 28.7812C30.9216 28.7187 30.8902 28.5938 30.796 28.5938C30.7018 28.5938 30.639 28.625 30.6076 28.7188C30.5448 28.875 30.482 29 30.4193 29.1562C30.3251 29.4062 30.2309 29.7187 30.1367 29.9375V30.0312H30.4193C30.4507 29.7187 30.5448 29.6875 30.7018 29.6875ZM30.639 29.2188C30.6704 29.125 30.7018 29.0312 30.7646 28.9375C30.796 28.9375 30.796 28.9375 30.8274 28.9375C30.8588 29.0625 30.9216 29.1875 30.9529 29.3125C30.9529 29.3437 30.9216 29.375 30.8902 29.375C30.8588 29.375 30.796 29.375 30.7646 29.375C30.639 29.375 30.6076 29.3438 30.639 29.2188Z" fill="black"/>
  <path d="M39.0223 29.6875C39.0536 29.6875 39.1164 29.75 39.1478 29.75C39.3362 29.75 39.399 29.7187 39.4304 30.0312H39.6815C39.6501 29.7187 39.6187 29.7187 39.5559 29.625C39.4304 29.3437 39.3362 29 39.2106 28.7188C39.1792 28.6563 39.1164 28.5938 39.0536 28.5938C39.0223 28.5938 38.9281 28.625 38.9281 28.6562C38.7711 29.0625 38.5827 29.5312 38.4258 29.9375V30.0625H38.7083C38.7711 29.7187 38.8339 29.6875 39.0223 29.6875ZM39.1164 28.9375C39.1792 29.0625 39.2106 29.1562 39.242 29.2812C39.242 29.3125 39.2106 29.375 39.2106 29.375C39.1164 29.375 39.0536 29.375 38.9595 29.375C38.9595 29.375 38.9281 29.3437 38.9281 29.3125C38.9909 29.1875 38.9909 29.0625 39.1164 28.9375Z" fill="black"/>
  <path d="M20.3424 30.0312C20.3424 30.0312 20.3424 29.9062 20.3424 29.875C20.3424 29.8438 20.3424 29.75 20.3424 29.6875C20.3424 29.3438 20.3424 29.3438 20.6564 29.3438C20.8447 29.3438 20.8447 29.3438 20.8447 29.5313C20.8447 29.625 20.8447 29.8125 20.8447 29.9062V30H21.0959C21.0959 30 21.0959 29.875 21.0959 29.8438C21.0959 29.4688 21.0959 29.0625 21.0959 28.6875C21.0959 28.6562 21.0645 28.5625 21.0017 28.5312C20.9703 28.5 20.8761 28.5313 20.8447 28.5625C20.8133 28.5938 20.8133 28.6562 20.8133 28.6875C20.8133 29.0937 20.8761 29.0313 20.4366 29.0313C20.3424 29.0313 20.2796 29 20.2796 28.875C20.2796 28.7813 20.2796 28.7188 20.2796 28.625C20.2796 28.5312 20.2482 28.4688 20.1541 28.4688C20.0599 28.4688 19.9029 28.5312 19.9029 28.625C19.9029 28.8125 19.7773 29 19.7773 29.1875C19.7773 29.375 19.7773 29.6563 19.7773 29.9688H20.0599H20.3424V30.0312Z" fill="black"/>
  <path d="M15.9497 30.0313C15.9497 29.4063 15.9497 29.4062 15.9497 29.1562C15.9497 29.1562 15.9497 29.1875 15.9811 29.1562C16.1695 29.4375 16.3578 29.4063 16.5462 30.0313H16.8287C16.8287 30.0313 16.8287 29.9063 16.8287 29.875C16.8287 29.5 16.8287 29.0938 16.8287 28.75C16.8287 28.6563 16.7973 28.5625 16.7031 28.5625C16.609 28.5625 16.5776 28.625 16.5776 28.7188C16.5776 28.9063 16.5776 29.0625 16.5776 29.25C16.5776 29.2813 16.5776 29.3438 16.5462 29.375H16.5148C16.4834 29.3438 16.452 29.3125 16.4206 29.25C16.2636 29.0313 16.1381 28.8438 15.9811 28.625C15.9183 28.5313 15.8555 28.5 15.7299 28.5312C15.6358 28.5625 15.5416 28.625 15.5416 28.7188C15.5416 29.0625 15.416 29.375 15.416 29.7188C15.416 29.75 15.416 30.0313 15.416 30.0313H15.9497Z" fill="black"/>
  <path d="M34.9713 29.6875C35.0341 29.6875 35.0655 29.75 35.1283 29.75C35.3167 29.75 35.4108 29.7187 35.4108 30.0312H35.6934V29.9375C35.5364 29.5312 35.3794 29.0937 35.2225 28.6875C35.1911 28.6562 35.1283 28.5625 35.0655 28.5625C35.0027 28.5625 34.9399 28.5937 34.9085 28.625C34.7516 29 34.5946 29.4687 34.4376 29.875C34.4376 29.9062 34.4376 30 34.4062 30H34.6888C34.6888 29.7187 34.783 29.6875 34.9713 29.6875ZM34.9085 29.1875C34.9399 29.0938 34.9713 29 35.0341 28.9375H35.0655C35.0969 29.0625 35.1597 29.1562 35.1911 29.2812C35.1911 29.3125 35.1597 29.3437 35.1283 29.375C35.0969 29.375 35.0655 29.375 35.0341 29.375C34.8772 29.375 34.8458 29.375 34.9085 29.1875Z" fill="black"/>
  <path d="M43.0732 29.5937V28.875L43.0418 28.8437C42.9163 28.6562 42.7279 28.5625 42.5082 28.5625C42.414 28.5625 42.2884 28.5625 42.1942 28.5625C42.0372 28.5625 42.0059 28.5937 42.0059 28.75C42.0059 29.125 42.0059 29.5625 42.0059 29.9375V30.0625H42.8221C42.9163 29.7187 43.0732 29.6875 43.0732 29.5937ZM42.3826 29.6875C42.2884 29.6875 42.257 29.75 42.257 29.6562C42.257 29.5312 42.257 29.4062 42.257 29.4062C42.257 29.4062 42.257 29.0937 42.257 29C42.257 28.9687 42.3198 28.8437 42.3512 28.8437C42.5082 28.8125 42.6651 28.8125 42.7907 28.9375C42.8535 29.0312 42.9163 29.125 42.9163 29.2187C42.9163 29.2812 42.9163 29.3437 42.8849 29.4062C42.8535 29.4687 42.8221 29.5312 42.7907 29.5625C42.6651 29.6875 42.5082 29.6875 42.3826 29.6875Z" fill="black"/>
  <path d="M42.8852 29.4062C42.9166 29.3437 42.9166 29.2813 42.9166 29.2188C42.9166 29.2813 42.8852 29.3437 42.8852 29.4062C42.8538 29.4687 42.8224 29.5312 42.791 29.5625C42.8224 29.5312 42.8538 29.5 42.8852 29.4062Z" fill="black"/>
  <path d="M14.3463 29.6875C14.4091 29.6875 14.4405 29.75 14.5033 29.75C14.6917 29.75 14.7544 29.7188 14.7858 30.0312H15.0684C14.9114 29.4062 14.7544 29.1562 14.5975 28.7812C14.5661 28.7188 14.5347 28.625 14.4405 28.625C14.3463 28.625 14.2835 28.625 14.2522 28.7188C14.2208 28.7813 14.2208 28.8125 14.1894 28.875C14.0638 29.1875 13.9382 29.5937 13.8126 29.9062C13.8126 29.9062 13.8126 30.0312 13.7812 30.0312H14.0638C14.0952 29.7188 14.158 29.6875 14.3463 29.6875ZM14.3777 28.9375C14.4091 28.9375 14.4091 28.9375 14.4405 28.9375C14.4719 29.0625 14.5347 29.1562 14.5661 29.2812C14.5661 29.3125 14.5347 29.375 14.5033 29.375C14.4405 29.375 14.3777 29.375 14.3149 29.375C14.2835 29.375 14.2522 29.3125 14.2522 29.3125C14.2835 29.1875 14.3463 29.0625 14.3777 28.9375Z" fill="black"/>
  <path d="M43.1323 8.21875C43.1009 8.21875 43.0695 8.3125 43.0381 8.3125C42.63 8.3125 42.1905 8.34375 41.7824 8.34375C41.594 8.34375 41.5312 8.40625 41.5312 8.59375C41.5312 10.9687 41.5312 13.3438 41.5312 15.7188C41.5312 15.9063 41.6254 15.7813 41.8138 15.7813C42.1591 15.7813 42.5672 15.625 42.9126 15.625C42.9439 15.625 42.9753 15.625 42.9753 15.625H43.1323H43.1951L43.1323 8.21875Z" fill="black"/>
  <path d="M40.6222 29.9063C40.6222 29.5938 40.6222 29.25 40.6222 28.9375C40.6222 28.8438 40.6536 28.7813 40.7478 28.7813C40.842 28.7813 40.9676 28.75 41.0304 28.875C41.1559 29.0313 41.0617 29.2188 40.8734 29.25C40.7164 29.2813 40.7164 29.3125 40.7792 29.4375C40.842 29.5625 40.9362 29.75 40.999 29.875C40.999 29.875 40.999 30 41.0304 30H41.2815C41.2187 29.6875 41.1873 29.7188 41.1245 29.625C41.0617 29.5313 41.0617 29.4375 41.1559 29.375C41.3129 29.2813 41.3757 29.0625 41.3443 28.875C41.2815 28.6875 41.1559 28.5312 40.9676 28.5312C40.842 28.5312 40.7164 28.5312 40.5595 28.5312C40.4025 28.5312 40.3711 28.5625 40.3711 28.6875C40.3711 29.0625 40.3711 29.5 40.3711 29.875V30H40.6222C40.6222 30.0313 40.6222 29.9375 40.6222 29.9063Z" fill="black"/>
</svg>