<?xml version="1.0" encoding="utf-8"?>
<!-- Generator: Adobe Illustrator 27.7.0, SVG Export Plug-In . SVG Version: 6.00 Build 0)  -->
<svg version="1.1" id="Layer_1" xmlns="http://www.w3.org/2000/svg" xmlns:xlink="http://www.w3.org/1999/xlink" x="0px" y="0px"
	 viewBox="0 0 44 32" style="enable-background:new 0 0 44 32;" xml:space="preserve">
<style type="text/css">
	.st0{fill:#FF3C00;}
</style>
<path class="st0" d="M12,0.5c0.9,0,1.8,0,2.7,0c0.5,0,1,0.1,1.5,0.2c0.8,0.2,1.4,0.7,1.9,1.5c0.3,0.5,0.4,1,0.4,1.6
	c0,0.5,0,1-0.2,1.5c-0.2,0.6-0.6,1.1-1.1,1.5c-0.8,0.6-1.7,0.8-2.7,0.8c-0.8,0-1.7,0-2.5,0c0,0-0.1,0-0.1,0C12,5.2,12,2.9,12,0.5z
	 M13.6,4.1c0,0.6,0,1.2,0,1.9c0,0.2,0,0.2,0.2,0.2c0.2,0,0.5,0,0.7,0c0.5,0,1-0.1,1.4-0.3c0.4-0.2,0.8-0.6,0.9-1.1
	C17,4.4,17,4.1,17,3.8s-0.2-0.7-0.4-1c-0.4-0.5-0.9-0.7-1.5-0.8c-0.4-0.1-0.8,0-1.3-0.1c-0.2,0-0.2,0-0.2,0.2
	C13.6,2.8,13.6,3.4,13.6,4.1z"/>
<path class="st0" d="M39.3,0c0,0.5,0,0.5-0.3,0.8c-0.3,0.3-0.7,0.7-1,1c0,0,0,0.1-0.1,0.1c-0.1,0.1-0.1,0-0.1-0.1s0-0.2,0-0.2
	c0-0.5,0-1.1,0-1.6C38.3,0,38.8,0,39.3,0z"/>
<path class="st0" d="M25.7,23.9c0-0.1,0.1-0.2,0.1-0.3c0.1-0.3,0.2-0.7,0.3-1c0.1-0.3,0.2-0.6,0.3-0.9c0.1-0.2,0.1-0.5,0.2-0.7
	c0,0,0.1-0.1,0.2-0.1c0.4,0,0.9,0,1.3,0c0.1,0,0.1,0.1,0.1,0.2c-0.1,0.3-0.3,0.7-0.4,1c-0.1,0.3-0.2,0.7-0.3,1
	c-0.1,0.3-0.3,0.7-0.4,1c-0.1,0.2-0.2,0.5-0.3,0.7c-0.1,0.3-0.2,0.6-0.3,0.9c0,0-0.1,0.1-0.2,0.1c-0.4,0-0.8,0-1.3,0
	c0,0-0.1-0.1-0.1-0.1c-0.1-0.2-0.1-0.4-0.2-0.6c-0.1-0.3-0.2-0.6-0.3-0.9c-0.1-0.2-0.2-0.5-0.3-0.8c-0.1-0.2-0.1-0.4-0.2-0.7
	c0,0,0,0-0.1-0.1c0,0.2-0.1,0.3-0.1,0.4c-0.1,0.3-0.2,0.7-0.3,1c-0.1,0.3-0.2,0.6-0.3,0.9c-0.1,0.2-0.1,0.5-0.2,0.7
	c0,0-0.1,0.1-0.1,0.1c-0.4,0-0.9,0-1.3,0c-0.1,0-0.1-0.1-0.1-0.1c-0.1-0.3-0.2-0.6-0.3-0.8c-0.1-0.3-0.3-0.7-0.4-1
	c-0.1-0.2-0.2-0.4-0.3-0.7s-0.2-0.5-0.3-0.8c-0.1-0.2-0.2-0.4-0.3-0.7c-0.1-0.2-0.2-0.5-0.3-0.7c0-0.1,0-0.2,0.1-0.2
	c0.5,0,0.9,0,1.4,0c0.1,0,0.1,0,0.2,0.1c0.1,0.4,0.3,0.8,0.4,1.2c0.1,0.4,0.3,0.8,0.3,1.1c0,0.1,0.1,0.2,0.1,0.4
	c0,0,0.1,0.1,0.1,0.1c0,0,0.1-0.1,0.1-0.1c0.1-0.5,0.3-1,0.4-1.5c0.1-0.4,0.2-0.8,0.3-1.2c0-0.1,0.1-0.2,0.2-0.2c0.5,0,0.9,0,1.4,0
	c0.1,0,0.2,0,0.2,0.1c0.1,0.3,0.2,0.6,0.3,0.9s0.2,0.6,0.3,0.9c0.1,0.3,0.2,0.6,0.3,0.8C25.6,23.8,25.6,23.8,25.7,23.9
	C25.6,23.9,25.6,23.9,25.7,23.9z"/>
<path class="st0" d="M43,22.1c0,1.2,0,2.4,0,3.6c0,0.2,0,0.2-0.3,0.2c-0.3,0-0.7,0-1,0c-0.2,0-0.2,0-0.2-0.2c0-0.1,0-0.2,0-0.2
	c0,0,0-0.1,0-0.1c0,0-0.1,0-0.1,0c-0.1,0.1-0.3,0.2-0.4,0.3c-0.4,0.3-1,0.3-1.5,0.2c-0.5-0.1-1-0.3-1.3-0.8
	c-0.3-0.4-0.5-0.9-0.6-1.4c0-0.4,0-0.8,0.1-1.2c0.2-0.7,0.6-1.2,1.2-1.5c0.5-0.2,1.1-0.2,1.6-0.1c0.3,0.1,0.5,0.2,0.7,0.4
	c0,0,0.1,0,0.1,0c0,0,0,0,0-0.1c0-0.1,0-0.1,0-0.2c0-0.9,0-1.8,0-2.7c0-0.1,0-0.2,0.2-0.2c0.4,0,0.8,0,1.3,0c0.1,0,0.2,0.1,0.2,0.2
	C43,19.7,43,20.9,43,22.1z M40.4,24.6c0.2,0,0.4,0,0.6-0.2c0.3-0.2,0.4-0.4,0.5-0.8c0-0.3,0-0.6-0.1-0.8c-0.2-0.3-0.4-0.6-0.8-0.6
	c-0.3,0-0.5,0-0.8,0.1c-0.3,0.1-0.5,0.3-0.5,0.7c-0.1,0.3-0.1,0.7,0,1C39.5,24.4,39.9,24.6,40.4,24.6z"/>
<path class="st0" d="M40.8,6.9c0,1.4-1.1,2.5-2.5,2.5c-1.4,0-2.5-1.1-2.5-2.5c0-1.4,1.1-2.5,2.5-2.5C39.7,4.3,40.8,5.5,40.8,6.9z
	 M38.8,5.9c-0.1,0-0.2,0-0.3,0c-0.2,0-0.2,0-0.3,0.2c0,0.2-0.1,0.4-0.1,0.6c0,0.2,0.1,0.2,0.3,0.2c0,0,0.1-0.1,0.1-0.1
	c0.1-0.1,0.3-0.1,0.4,0c0.1,0.1,0.1,0.3,0,0.4c-0.1,0.1-0.3,0.1-0.4,0c0,0-0.1-0.1-0.1-0.1c-0.1-0.1-0.3-0.1-0.3,0
	c-0.1,0.1,0,0.2,0.1,0.2c0.1,0.1,0.3,0.2,0.4,0.2c0.3,0.1,0.7-0.2,0.8-0.5c0.1-0.4-0.3-0.8-0.7-0.7c-0.1,0-0.1,0-0.1-0.1
	c0-0.1,0-0.2,0.2-0.2s0.3,0,0.4,0c0.1,0,0.2,0,0.2-0.2c0-0.1-0.1-0.2-0.2-0.2C39.1,5.9,38.9,5.9,38.8,5.9z M37.8,6.9
	c0-0.2,0-0.5,0-0.7c0-0.2,0-0.2-0.2-0.2c-0.1,0-0.2,0-0.3,0c-0.2,0-0.2,0-0.2,0.2s0.1,0.2,0.2,0.2c0.1,0,0.2,0.1,0.2,0.2
	c0,0.4,0,0.8,0,1.1c0,0.2,0,0.2,0.2,0.2c0.2,0,0.2,0,0.2-0.2C37.8,7.3,37.8,7.1,37.8,6.9z"/>
<path class="st0" d="M31.6,25.3C31.6,25.4,31.6,25.4,31.6,25.3c-0.3,0.4-0.7,0.5-1.1,0.6c-0.6,0.1-1.2,0.1-1.7-0.4
	c-0.4-0.3-0.6-0.8-0.5-1.3c0.1-0.6,0.4-1,1-1.2c0.6-0.2,1.2-0.3,1.8-0.3c0.1,0,0.3,0,0.4,0c0.1,0,0.2,0,0.1-0.2
	c-0.1-0.3-0.4-0.6-0.7-0.7c-0.5-0.1-0.9,0.1-1.3,0.4c-0.1,0.1-0.2,0.1-0.3,0c-0.2-0.2-0.4-0.4-0.6-0.6c-0.1-0.1-0.1-0.2,0-0.2
	c0.3-0.3,0.7-0.4,1.1-0.6c0.5-0.1,0.9-0.1,1.4-0.1c0.6,0.1,1.2,0.3,1.4,0.9c0.1,0.2,0.2,0.5,0.2,0.8c0.1,0.4,0.1,0.9,0.1,1.3
	c0,0.6,0,1.2,0,1.8c0,0.2,0,0.2-0.2,0.2c-0.3,0-0.7,0-1,0c-0.2,0-0.2,0-0.2-0.2C31.6,25.6,31.6,25.5,31.6,25.3z M31.6,24
	c0-0.1,0-0.1,0-0.2c0-0.1,0-0.1-0.1-0.1c-0.3,0-0.7,0-1,0.1c-0.2,0-0.4,0.1-0.6,0.3c-0.2,0.2-0.2,0.6,0.1,0.7
	c0.1,0.1,0.3,0.1,0.4,0.1c0.2,0,0.4,0,0.5-0.1C31.4,24.7,31.6,24.4,31.6,24z"/>
<path class="st0" d="M39.2,15.4c-0.1,0.1-0.2,0.2-0.3,0.2C38.5,16,38,16.1,37.4,16c-0.4,0-0.7-0.2-1-0.4c-0.4-0.3-0.5-0.8-0.4-1.3
	c0.1-0.7,0.5-1,1.1-1.2c0.6-0.2,1.3-0.2,2-0.2c0.2,0,0.2-0.1,0.2-0.2c-0.2-0.5-0.7-0.6-1.1-0.6c-0.3,0.1-0.7,0.2-0.9,0.5
	c-0.1,0.1-0.2,0.1-0.2,0c-0.2-0.2-0.4-0.4-0.6-0.7c-0.1-0.1-0.1-0.2,0-0.2c0.3-0.2,0.6-0.4,1-0.5c0.6-0.2,1.3-0.2,1.9-0.1
	c0.5,0.1,0.9,0.4,1.2,0.9c0.2,0.4,0.2,0.9,0.3,1.4c0,0.8,0,1.6,0,2.4c0,0.2,0,0.2-0.2,0.2c-0.3,0-0.7,0-1.1,0
	c-0.1,0-0.2-0.1-0.2-0.2C39.3,15.7,39.3,15.6,39.2,15.4C39.2,15.4,39.2,15.4,39.2,15.4z M38.7,13.8c-0.3,0-0.7,0-1,0.2
	c-0.2,0.1-0.3,0.3-0.3,0.5c0,0.2,0.2,0.3,0.4,0.4c0.3,0.1,0.5,0,0.7,0c0.2-0.1,0.3-0.2,0.5-0.3c0.2-0.2,0.2-0.5,0.2-0.8
	c0,0-0.1-0.1-0.1-0.1C39,13.8,38.9,13.8,38.7,13.8z"/>
<path class="st0" d="M24.8,5.2c0-0.8,0-1.5,0-2.3c0-0.1,0-0.2,0.2-0.2c0.4,0,0.8,0,1.2,0c0.1,0,0.2,0,0.2,0.2c0,0.1,0,0.2,0,0.2
	c0,0,0,0.1,0,0.1c0,0,0.1,0,0.1-0.1C26.6,3,26.7,2.8,27,2.8c0.2-0.1,0.4-0.2,0.6-0.2c0.3,0,0.7,0,1,0.1c0.3,0.1,0.6,0.3,0.8,0.7
	c0.2,0.4,0.3,0.8,0.3,1.2c0,1,0,1.9,0,2.9c0,0.1,0,0.2-0.2,0.2c-0.4,0-0.8,0-1.2,0c-0.2,0-0.2,0-0.2-0.2c0-0.8,0-1.6,0-2.4
	c0-0.2,0-0.4-0.1-0.6C27.9,4.2,27.7,4,27.4,4c-0.3,0-0.6,0-0.8,0.3c-0.2,0.2-0.2,0.4-0.2,0.7c0,0.3,0,0.7,0,1c0,0.5,0,1,0,1.5
	c0,0.2,0,0.2-0.2,0.2c-0.4,0-0.7,0-1.1,0c-0.2,0-0.2,0-0.2-0.2C24.8,6.7,24.8,5.9,24.8,5.2z"/>
<path class="st0" d="M23.9,6.1c0,0.4,0,0.9,0,1.3c0,0.2,0,0.2-0.2,0.2c-0.3,0-0.7,0-1,0c-0.2,0-0.2,0-0.2-0.2c0-0.1,0-0.2,0-0.2
	c0,0,0-0.1,0-0.1c0,0-0.1,0-0.1,0c-0.5,0.5-1.1,0.6-1.7,0.6c-0.5-0.1-1-0.3-1.3-0.8c-0.1-0.1-0.1-0.2-0.2-0.3
	c-0.1-0.3-0.1-0.7,0.1-1c0.1-0.3,0.3-0.5,0.6-0.7c0.5-0.3,1-0.3,1.6-0.4c0.3,0,0.5,0,0.8,0c0.2,0,0.2,0,0.2-0.2
	c-0.1-0.3-0.3-0.6-0.7-0.7c-0.5-0.1-0.9,0.1-1.3,0.4c-0.1,0.1-0.1,0.1-0.3,0c-0.2-0.2-0.4-0.4-0.6-0.6c-0.1-0.1-0.1-0.1,0-0.2
	c0.3-0.3,0.7-0.5,1.2-0.6c0.4-0.1,0.9-0.1,1.4-0.1s0.8,0.2,1.2,0.5c0.3,0.3,0.4,0.7,0.5,1c0,0.2,0.1,0.4,0.1,0.7
	C23.9,5.3,23.9,5.7,23.9,6.1z M21.4,6.7c0.3,0,0.6-0.1,0.8-0.2c0.3-0.2,0.4-0.6,0.3-0.9c0-0.1-0.1-0.1-0.2-0.1c-0.3,0-0.7,0-1,0.1
	c-0.2,0-0.3,0.1-0.5,0.2c-0.3,0.2-0.2,0.6,0,0.8C21,6.6,21.2,6.7,21.4,6.7z"/>
<path class="st0" d="M26.7,15.5c-0.1,0.1-0.2,0.2-0.3,0.2c-0.5,0.3-1,0.3-1.5,0.2c-0.2,0-0.3-0.1-0.5-0.2c-0.1,0-0.1-0.1-0.1-0.2
	c0.3-0.3,0.6-0.6,0.9-0.9c0,0,0.1-0.1,0.2,0c0.5,0.1,0.8-0.1,1.2-0.4c0.2-0.3,0.3-0.6,0.2-1c0-0.1,0-0.2,0.1-0.2
	c0.3-0.3,0.7-0.7,1.1-1.1c0.1-0.1,0.1-0.1,0.2-0.2c0,0,0.1,0,0.1,0c0,0,0,0.1,0,0.1c0,0.1,0,0.2,0,0.2c0,1.2,0,2.4,0,3.7
	c0,0.4-0.1,0.8-0.3,1.2c-0.2,0.5-0.6,0.9-1.2,1.2c-0.6,0.2-1.2,0.3-1.8,0.2c-0.3,0-0.7-0.1-1-0.2c-0.4-0.1-0.8-0.3-1.1-0.6
	c-0.1-0.1-0.2-0.2-0.3-0.2c-0.1-0.1-0.1-0.1,0-0.2c0.3-0.3,0.6-0.6,0.9-0.9c0.1-0.1,0.2,0,0.3,0c0.2,0.1,0.4,0.3,0.6,0.4
	c0.4,0.2,0.8,0.3,1.3,0.2c0.3,0,0.6-0.2,0.8-0.4c0.2-0.2,0.2-0.4,0.2-0.7C26.8,15.7,26.8,15.6,26.7,15.5
	C26.8,15.5,26.7,15.5,26.7,15.5z"/>
<path class="st0" d="M32.6,13.6c0-0.4,0-0.8,0-1.1c0-0.2,0-0.2-0.2-0.2c-0.2,0-0.4,0-0.6,0c-0.2,0-0.2,0-0.2-0.2c0-0.3,0-0.6,0-0.8
	c0-0.2,0-0.2,0.2-0.2c0.2,0,0.4,0,0.6,0c0.1,0,0.2,0,0.2-0.2c0-0.3,0-0.7,0-1c0-0.2,0-0.2,0.2-0.2c0.4,0,0.7,0,1.1,0
	c0.2,0,0.2,0,0.2,0.2c0,0.3,0,0.7,0,1c0,0.2,0,0.2,0.2,0.2c0.3,0,0.6,0,0.9,0c0.2,0,0.2,0.1,0.2,0.2c0,0.3,0,0.6,0,0.9
	c0,0.1-0.1,0.2-0.2,0.2c-0.3,0-0.7,0-1,0c-0.2,0-0.2,0-0.2,0.2c0,0.6,0,1.1,0,1.7c0,0.2,0.1,0.4,0.3,0.5c0.1,0,0.1,0.1,0.2,0.1
	c0.3,0,0.5,0,0.8-0.1c0.1,0,0.1,0,0.1,0.1c0,0.3,0,0.7,0,1c0,0,0,0.1-0.1,0.1c-0.1,0-0.1,0.1-0.2,0.1c-0.5,0.1-1,0.1-1.5,0
	c-0.4-0.1-0.8-0.3-1-0.8c-0.1-0.2-0.1-0.4-0.1-0.6C32.6,14.3,32.6,13.9,32.6,13.6z"/>
<path class="st0" d="M35.5,21.7C35.5,21.6,35.6,21.6,35.5,21.7c0.4-0.6,0.9-0.8,1.5-0.8c0.1,0,0.2,0,0.3,0c0.1,0,0.2,0.1,0.2,0.1
	c0,0.4,0,0.8,0,1.2c0,0.1-0.1,0.1-0.2,0.1c-0.3-0.1-0.6-0.1-0.9,0c-0.3,0.1-0.6,0.3-0.7,0.7c-0.1,0.3-0.1,0.6-0.1,0.9
	c0,0.6,0,1.2,0,1.8c0,0.2,0,0.2-0.2,0.2c-0.4,0-0.8,0-1.1,0c-0.2,0-0.2,0-0.2-0.2c0-1.4,0-2.9,0-4.3c0-0.3,0-0.3,0.3-0.3
	c0.3,0,0.7,0,1,0c0.2,0,0.2,0,0.2,0.2c0,0.1,0,0.2,0,0.3C35.5,21.5,35.5,21.6,35.5,21.7z"/>
<path class="st0" d="M31,13.5c0,0.8,0,1.5,0,2.2c0,0.2,0,0.2-0.2,0.2c-0.4,0-0.8,0-1.2,0c-0.1,0-0.2,0-0.2-0.2c0-0.9,0-1.8,0-2.7
	c0-0.6,0-1.2,0-1.8c0-0.2,0-0.2,0.2-0.2c0.3,0,0.7,0,1.1,0c0.2,0,0.2,0,0.2,0.2C31,12,31,12.8,31,13.5z"/>
<path class="st0" d="M16.6,24.4c-0.3,0-0.5,0-0.8,0c0,0-0.1,0-0.1,0c0,0,0-0.1,0.1-0.1c0.8-0.8,1.5-1.5,2.3-2.2
	c0.1-0.1,0.2-0.1,0.2,0c0.2,0.4,0.3,0.8,0.5,1.2c0.2,0.3,0.3,0.7,0.5,1.1c0.2,0.3,0.3,0.7,0.5,1.1c0.1,0.1,0.1,0.2,0.2,0.4
	c0.1,0.2,0.1,0.2-0.2,0.2c-0.4,0-0.9,0-1.3,0c-0.2,0-0.2,0-0.3-0.2c-0.2-0.4-0.3-0.8-0.5-1.2c0-0.1-0.1-0.1-0.2-0.1
	C17.1,24.4,16.9,24.4,16.6,24.4z"/>
<path class="st0" d="M30.6,5.2c0-0.8,0-1.5,0-2.2c0-0.2,0-0.2,0.2-0.2c0.4,0,0.8,0,1.2,0c0.2,0,0.2,0,0.2,0.2c0,1,0,2,0,3
	c0,0.5,0,1,0,1.5c0,0.2,0,0.2-0.2,0.2c-0.4,0-0.8,0-1.1,0c-0.2,0-0.2,0-0.2-0.2C30.6,6.7,30.6,5.9,30.6,5.2z"/>
<path class="st0" d="M33,4.3c0-0.7,0.4-1.2,1-1.5c0.6-0.2,1.2-0.2,1.9-0.1c0.3,0.1,0.5,0.2,0.8,0.3c0.1,0.1,0.1,0.1,0,0.2
	c-0.3,0.2-0.5,0.5-0.7,0.7c-0.1,0.1-0.1,0.1-0.2,0c-0.2-0.2-0.5-0.2-0.8-0.2c-0.2,0-0.4,0.2-0.4,0.3c0,0.1,0,0.2,0.2,0.3
	c0.1,0.1,0.3,0.1,0.4,0.1c0.2,0,0.2,0.1,0.1,0.2c-0.3,0.2-0.5,0.5-0.8,0.8c-0.1,0.1-0.2,0.1-0.3,0.1c-0.2-0.1-0.4-0.2-0.6-0.3
	C33.1,5,33,4.7,33,4.3z"/>
<path class="st0" d="M31.4,0.3c0.4,0,0.9,0.4,0.8,0.9c0,0.5-0.4,0.8-0.9,0.8c-0.5,0-0.9-0.4-0.9-0.9C30.5,0.7,30.9,0.3,31.4,0.3z"/>
<path class="st0" d="M30.3,10.5c-0.1,0-0.3-0.1-0.4-0.1c-0.1-0.1-0.1-0.1,0-0.2c0.2-0.2,0.4-0.4,0.7-0.7c0.1-0.1,0.2-0.2,0.3-0.3
	c0.1-0.1,0.2-0.1,0.2,0c0.1,0.2,0.1,0.3,0.1,0.5C31.2,10.1,30.8,10.5,30.3,10.5z"/>
<path class="st0" d="M42.3,28.8c0.2,0,0.3,0,0.4,0.1c0.1,0.1,0.1,0.2,0.1,0.3c0-0.1,0-0.2-0.1-0.3C42.7,28.8,42.5,28.7,42.3,28.8
	c0,0-0.1,0.1-0.1,0.1C42.3,28.8,42.3,28.8,42.3,28.8z"/>
<path class="st0" d="M12.8,29.6c-0.1,0.1-0.3,0.1-0.4,0.1c0,0-0.1-0.1-0.1-0.1c0,0,0.1,0.1,0.1,0.1C12.5,29.7,12.7,29.7,12.8,29.6z"
	/>
<path class="st0" d="M12.4,28.8c0.1,0,0.2,0,0.3,0.1c0.1,0.1,0.2,0.2,0.2,0.4c0-0.2,0-0.3-0.2-0.4C12.7,28.8,12.5,28.8,12.4,28.8
	c-0.1,0-0.1,0-0.1,0.1C12.3,28.8,12.3,28.8,12.4,28.8z"/>
<path class="st0" d="M42.4,29.7c-0.1,0-0.1,0-0.1-0.1C42.3,29.6,42.3,29.7,42.4,29.7c0.1,0,0.3,0,0.4-0.1
	C42.7,29.7,42.5,29.7,42.4,29.7z"/>
<path class="st0" d="M35.1,29.7c-0.1,0-0.1,0.1-0.2,0.1c-0.2,0-0.3,0-0.3,0.3h0.7C35.4,29.7,35.3,29.7,35.1,29.7z"/>
<path class="st0" d="M37,29.2c-0.1,0.2-0.1,0.2-0.2,0.8h0.4C37.2,29.4,37.2,29.5,37,29.2L37,29.2z"/>
<path class="st0" d="M35,29.4C35.1,29.4,35.1,29.4,35,29.4c0.1,0,0.2-0.1,0.2-0.1c0-0.1-0.1-0.2-0.1-0.3h0c0,0.1-0.1,0.2-0.1,0.2
	C34.8,29.4,34.9,29.4,35,29.4z"/>
<path class="st0" d="M30.8,29.4c0,0,0.1,0,0.1,0c0,0,0.1-0.1,0.1-0.1c0-0.1-0.1-0.2-0.1-0.4c0,0,0,0-0.1,0c0,0.1-0.1,0.2-0.1,0.3
	C30.6,29.3,30.6,29.4,30.8,29.4z"/>
<path class="st0" d="M30.9,29.7c-0.1,0-0.1,0.1-0.2,0c-0.2,0-0.3,0-0.3,0.3h0.7C31.1,29.7,31,29.7,30.9,29.7z"/>
<path class="st0" d="M42.9,29.4c0-0.1,0-0.1,0-0.2c0-0.1,0-0.2-0.1-0.3c-0.1-0.2-0.3-0.2-0.4-0.1c0,0-0.1,0.2-0.1,0.2
	c0,0.1,0,0.4,0,0.4s0,0.1,0,0.2c0,0.1,0,0.1,0.1,0.1c0.1,0,0.3,0,0.4-0.1C42.8,29.6,42.9,29.5,42.9,29.4z"/>
<path class="st0" d="M40.8,29.4c-0.1-0.1-0.1-0.2,0.1-0.2c0.2,0,0.3-0.2,0.2-0.4c-0.1-0.1-0.2-0.1-0.3-0.1s-0.1,0-0.1,0.1
	c0,0.3,0,0.7,0,1V30H41c0,0,0-0.1,0-0.1C40.9,29.8,40.9,29.6,40.8,29.4z"/>
<path class="st0" d="M39.1,29.7c0,0-0.1,0.1-0.1,0.1c-0.2,0-0.3,0-0.3,0.3h0.7C39.4,29.7,39.3,29.7,39.1,29.7z"/>
<path class="st0" d="M39,29.4c0.1,0,0.2,0,0.3,0c0,0,0-0.1,0-0.1c0-0.1-0.1-0.2-0.1-0.3C39,29.1,39,29.2,39,29.4L39,29.4z"/>
<path class="st0" d="M23.8,29c-0.1-0.2-0.3-0.2-0.5-0.2c0,0-0.1,0.1-0.1,0.1c0,0.1,0,0.2,0,0.3s0,0.2,0,0.3c0,0,0,0.1,0.1,0.1
	c0.2,0.1,0.4,0,0.5-0.2C23.9,29.4,23.9,29.1,23.8,29z"/>
<path class="st0" d="M15.9,29.2c0,0.2,0,0.3,0,0.9h0.6C16.4,29.4,16.2,29.4,15.9,29.2C16,29.2,15.9,29.2,15.9,29.2z"/>
<path class="st0" d="M12.4,29.7c0.1,0,0.3,0,0.4-0.1c0,0,0.1-0.1,0.1-0.1c0-0.1,0-0.2,0-0.2c0-0.2,0-0.3-0.2-0.4
	c-0.1-0.1-0.2-0.1-0.3-0.1c-0.1,0-0.1,0.1-0.1,0.2c0,0.1,0,0.4,0,0.4s0,0.2,0,0.3C12.3,29.7,12.3,29.7,12.4,29.7z"/>
<path class="st0" d="M14.5,29.7c-0.1,0-0.1,0.1-0.2,0.1c-0.2,0-0.3,0-0.3,0.3h0.7C14.8,29.7,14.7,29.7,14.5,29.7z"/>
<path class="st0" d="M14.3,29.4c0.1,0,0.1,0,0.2,0c0,0,0.1-0.1,0.1-0.1c0-0.1-0.1-0.2-0.1-0.3c0,0,0,0-0.1,0
	C14.3,29.1,14.3,29.2,14.3,29.4C14.3,29.3,14.3,29.4,14.3,29.4z"/>
<path class="st0" d="M20.9,29.5c0-0.2,0-0.2-0.2-0.2c-0.3,0-0.3,0-0.3,0.3c0,0,0,0.1,0,0.2c0,0,0,0.1,0,0.1h0.5v0
	C20.9,29.8,20.9,29.6,20.9,29.5z"/>
<path class="st0" d="M32.6,29.8C32.5,29.8,32.5,29.7,32.6,29.8c-0.2,0-0.2-0.1-0.2-0.2c0-0.3,0-0.6,0-0.8c0-0.1-0.1-0.2-0.2-0.2
	c-0.1,0-0.1,0.1-0.1,0.2c0,0.4,0,0.8,0,1.2V30h0.7C32.8,29.7,32.8,29.8,32.6,29.8z"/>
<path class="st0" d="M17.8,30c0-0.6,0-0.8,0-1.2c0-0.1,0-0.2-0.1-0.2c-0.1,0-0.1,0.1-0.1,0.2c0,0.4,0,0.8,0,1.2v0.1L17.8,30L17.8,30
	z"/>
<path class="st0" d="M28.1,30c0-0.6,0-0.8,0-1.2c0-0.1,0-0.2-0.1-0.2s-0.1,0-0.1,0.2c0,0.2,0.1,0.4,0.1,0.6S28,29.7,28.1,30h-0.2
	H28.1z"/>
<path class="st0" d="M29.3,29.9c0-0.2,0-0.6,0-0.8c0-0.2,0-0.2,0.2-0.2c0,0,0.1-0.1,0.1-0.1c0,0-0.1-0.1-0.1-0.1c-0.2,0-0.4,0-0.7,0
	c0,0-0.1,0.1-0.1,0.1c0,0,0.1,0.1,0.1,0.1c0,0,0.1,0,0.1,0c0.1,0,0.1,0,0.1,0.1c0,0.3,0,0.7,0,1V30L29.3,29.9
	C29.3,30,29.3,29.9,29.3,29.9z"/>
<path class="st0" d="M19.3,29.9c0.3-0.2,0.2-0.6-0.1-0.7c-0.1,0-0.2-0.1-0.3-0.1c-0.1,0-0.1-0.1-0.1-0.2c0,0,0-0.1,0.1-0.1
	c0.1,0,0.1,0,0.2,0c0,0,0,0,0.1,0.1c0.1,0.1,0.1,0.1,0.2,0c0,0,0-0.1,0-0.2c-0.1-0.2-0.3-0.2-0.4-0.2c-0.2,0-0.3,0.2-0.4,0.3
	c0,0.2,0,0.3,0.2,0.4c0.1,0.1,0.2,0.1,0.3,0.2c0,0,0.1,0.1,0.1,0.2c0,0.1-0.1,0.1-0.1,0.1c-0.1,0-0.1,0-0.2-0.1c0,0,0-0.1-0.1-0.1
	c-0.1-0.1-0.2-0.1-0.2,0c0,0,0,0.2,0,0.3c0,0.1,0.1-0.1,0.1,0.2h0.6C19.3,30,19.3,29.9,19.3,29.9z"/>
<path class="st0" d="M12.8,29.9c0.2-0.1,0.3-0.3,0.3-0.5c0.1-0.4-0.3-0.9-0.8-0.8c-0.2,0-0.3,0-0.7,0c0,0.4,0,0.9,0,1.5h1.2
	C12.8,30,12.8,29.9,12.8,29.9z M12.3,29.7c0-0.1,0-0.2,0-0.2s0-0.3,0-0.4c0-0.1,0-0.2,0.1-0.2c0.1,0,0.2,0,0.3,0.1
	c0.1,0.1,0.2,0.2,0.2,0.4c0,0.1,0,0.2,0,0.2c0,0-0.1,0.1-0.1,0.1c-0.1,0.1-0.3,0.2-0.4,0.2C12.3,29.7,12.3,29.7,12.3,29.7z"/>
<path class="st0" d="M12.8,29.6c0,0,0.1-0.1,0.1-0.1c0-0.1,0-0.2,0-0.2c0,0.1,0,0.2,0,0.2S12.8,29.5,12.8,29.6z"/>
<path class="st0" d="M37,29.2C37.1,29.2,37.1,29.3,37,29.2c0.2,0.2,0.2,0.2,0.3,0.8h0.3c0-0.3,0-0.2,0.1-0.3
	c0.1-0.3,0.2-0.7,0.3-0.9c0-0.1,0.1-0.2,0-0.2c-0.1,0-0.2,0-0.2,0.1c0,0,0,0.1,0,0.1c0,0.2-0.1,0.4-0.1,0.6c0,0,0,0.1-0.1,0.1
	c0-0.1-0.1-0.1-0.1-0.2c-0.1-0.2-0.1-0.4-0.2-0.6c0-0.1-0.1-0.1-0.1-0.1c-0.1,0-0.1,0-0.1,0.1c-0.1,0.2-0.1,0.4-0.2,0.6
	c0,0,0,0.1-0.1,0.1h0c0,0,0-0.1,0-0.1c-0.1-0.2-0.1-0.4-0.2-0.6c0-0.1-0.1-0.1-0.2-0.1c-0.1,0-0.1,0.1,0,0.2
	c0.1,0.3,0.2,0.7,0.3,1.1c0,0.1,0-0.1,0,0.2h0.3C36.9,29.4,37,29.5,37,29.2z"/>
<path class="st0" d="M25.1,28.8c0-0.1,0-0.2-0.1-0.2c-0.1,0-0.1,0-0.1,0.1c0,0.4,0,0.8,0,1.2c0,0,0,0.1,0,0.1h0.3
	C25,29.4,25.1,29.2,25.1,28.8z"/>
<path class="st0" d="M26.8,29.9c0.2-0.1,0.3-0.3,0.3-0.5c0-0.1,0-0.2-0.1-0.2c-0.2,0-0.4,0-0.6,0c0,0-0.1,0.1-0.1,0.1
	c0,0,0.1,0.1,0.1,0.1c0.1,0,0.2,0,0.3,0c0,0,0.1,0,0.1,0.1c0,0,0,0.1,0,0.1c-0.1,0.2-0.3,0.2-0.5,0.1S26,29.5,26,29.3
	c0-0.2,0-0.4,0.2-0.5c0.2-0.1,0.4-0.1,0.5,0.1c0.1,0,0.1,0.1,0.2,0.1c0,0,0.1,0,0.2,0c0,0,0-0.1,0-0.1c-0.2-0.2-0.6-0.3-0.8-0.2
	c-0.3,0.1-0.4,0.3-0.4,0.6c0,0.3,0.1,0.6,0.3,0.8c0,0,0,0.1,0,0.1h0.7C26.8,30,26.8,29.9,26.8,29.9z"/>
<path class="st0" d="M23.9,29.9c0.2-0.2,0.3-0.4,0.3-0.7c0-0.2-0.1-0.5-0.4-0.6c-0.2-0.1-0.4-0.1-0.7-0.1c0,0-0.1,0.1-0.1,0.1
	c0,0.3,0,0.8,0,1.2c0,0,0,0.2,0,0.2h0.8C23.8,30,23.8,29.9,23.9,29.9z M23.3,29.7c0,0-0.1-0.1-0.1-0.1c0-0.1,0-0.2,0-0.3
	s0-0.2,0-0.3c0,0,0.1-0.1,0.1-0.1c0.2,0,0.4,0,0.5,0.2c0.1,0.1,0.1,0.4,0,0.5C23.7,29.7,23.4,29.7,23.3,29.7z"/>
<path class="st0" d="M30.7,29.7c0.1,0,0.1,0.1,0.2,0.1c0.2,0,0.3,0,0.3,0.3h0.3c-0.2-0.6-0.3-0.9-0.5-1.2c0-0.1-0.1-0.2-0.2-0.2
	s-0.2,0-0.2,0.1c-0.1,0.2-0.1,0.3-0.2,0.4c-0.1,0.2-0.2,0.6-0.3,0.8V30h0.3C30.5,29.7,30.5,29.7,30.7,29.7z M30.6,29.2
	c0-0.1,0.1-0.2,0.1-0.3c0,0,0,0,0.1,0c0,0.1,0.1,0.2,0.1,0.4c0,0,0,0.1-0.1,0.1c0,0-0.1,0-0.1,0C30.6,29.4,30.6,29.3,30.6,29.2z"/>
<path class="st0" d="M39,29.7c0,0,0.1,0.1,0.1,0.1c0.2,0,0.3,0,0.3,0.3h0.3c0-0.3-0.1-0.3-0.1-0.4c-0.1-0.3-0.2-0.6-0.3-0.9
	c0-0.1-0.1-0.1-0.2-0.1c0,0-0.1,0-0.1,0.1c-0.2,0.4-0.3,0.9-0.5,1.3v0.1h0.3C38.8,29.7,38.8,29.7,39,29.7z M39.1,28.9
	c0.1,0.1,0.1,0.2,0.1,0.3c0,0,0,0.1,0,0.1c-0.1,0-0.2,0-0.3,0c0,0,0,0,0-0.1C39,29.2,39,29.1,39.1,28.9z"/>
<path class="st0" d="M20.3,30c0,0,0-0.1,0-0.2s0-0.1,0-0.2c0-0.3,0-0.3,0.3-0.3c0.2,0,0.2,0,0.2,0.2c0,0.1,0,0.3,0,0.4V30h0.3
	c0,0,0-0.1,0-0.2c0-0.4,0-0.8,0-1.2c0,0,0-0.1-0.1-0.2c0,0-0.1,0-0.2,0c0,0,0,0.1,0,0.1c0,0.4,0.1,0.3-0.4,0.3c-0.1,0-0.2,0-0.2-0.2
	c0-0.1,0-0.2,0-0.2s0-0.2-0.1-0.2c-0.1,0-0.3,0.1-0.3,0.2c0,0.2-0.1,0.4-0.1,0.6s0,0.5,0,0.8h0.3L20.3,30L20.3,30z"/>
<path class="st0" d="M15.9,30c0-0.6,0-0.6,0-0.9c0,0,0,0,0,0c0.2,0.3,0.4,0.3,0.6,0.9h0.3c0,0,0-0.1,0-0.2c0-0.4,0-0.8,0-1.1
	c0-0.1,0-0.2-0.1-0.2c-0.1,0-0.1,0.1-0.1,0.2c0,0.2,0,0.3,0,0.5c0,0,0,0.1,0,0.1h0c0,0-0.1-0.1-0.1-0.1c-0.2-0.2-0.3-0.4-0.4-0.6
	c-0.1-0.1-0.1-0.1-0.3-0.1c-0.1,0-0.2,0.1-0.2,0.2c0,0.3-0.1,0.7-0.1,1c0,0,0,0.3,0,0.3H15.9z"/>
<path class="st0" d="M35,29.7c0.1,0,0.1,0.1,0.2,0.1c0.2,0,0.3,0,0.3,0.3h0.3v-0.1c-0.2-0.4-0.3-0.8-0.5-1.2c0,0-0.1-0.1-0.2-0.1
	c-0.1,0-0.1,0-0.2,0.1c-0.2,0.4-0.3,0.8-0.5,1.2c0,0,0,0.1,0,0.1h0.3C34.7,29.7,34.8,29.7,35,29.7z M34.9,29.2
	c0-0.1,0.1-0.2,0.1-0.2h0c0,0.1,0.1,0.2,0.1,0.3c0,0,0,0.1-0.1,0.1c0,0-0.1,0-0.1,0C34.9,29.4,34.8,29.4,34.9,29.2z"/>
<path class="st0" d="M43.1,29.6v-0.7l0,0c-0.1-0.2-0.3-0.3-0.5-0.3c-0.1,0-0.2,0-0.3,0c-0.2,0-0.2,0-0.2,0.2c0,0.4,0,0.8,0,1.2v0.1
	h0.8C42.9,29.7,43.1,29.7,43.1,29.6z M42.4,29.7c-0.1,0-0.1,0.1-0.1,0c0-0.1,0-0.2,0-0.2s0-0.3,0-0.4c0,0,0.1-0.2,0.1-0.2
	c0.2,0,0.3,0,0.4,0.1c0.1,0.1,0.1,0.2,0.1,0.3c0,0.1,0,0.1,0,0.2c0,0.1-0.1,0.1-0.1,0.2C42.7,29.7,42.5,29.7,42.4,29.7z"/>
<path class="st0" d="M42.9,29.4c0-0.1,0-0.1,0-0.2C42.9,29.3,42.9,29.3,42.9,29.4c0,0.1-0.1,0.1-0.1,0.2
	C42.8,29.5,42.9,29.5,42.9,29.4z"/>
<path class="st0" d="M14.3,29.7c0.1,0,0.1,0.1,0.2,0.1c0.2,0,0.3,0,0.3,0.3h0.3c-0.2-0.6-0.3-0.9-0.5-1.2c0-0.1-0.1-0.2-0.2-0.2
	s-0.2,0-0.2,0.1c0,0.1,0,0.1-0.1,0.2c-0.1,0.3-0.3,0.7-0.4,1c0,0,0,0.1,0,0.1h0.3C14.1,29.7,14.2,29.7,14.3,29.7z M14.4,28.9
	C14.4,28.9,14.4,28.9,14.4,28.9c0.1,0.1,0.2,0.2,0.2,0.3c0,0,0,0.1-0.1,0.1c-0.1,0-0.1,0-0.2,0c0,0-0.1-0.1-0.1-0.1
	C14.3,29.2,14.3,29.1,14.4,28.9z"/>
<path class="st0" d="M43.1,8.2C43.1,8.2,43.1,8.3,43.1,8.2c-0.5,0.1-0.9,0.1-1.3,0.1c-0.2,0-0.3,0.1-0.3,0.2c0,2.4,0,4.8,0,7.1
	c0,0.2,0.1,0.1,0.3,0.1c0.3,0,0.8-0.2,1.1-0.2c0,0,0.1,0,0.1,0h0.2h0.1L43.1,8.2z"/>
<path class="st0" d="M40.6,29.9c0-0.3,0-0.7,0-1c0-0.1,0-0.2,0.1-0.2s0.2,0,0.3,0.1c0.1,0.2,0,0.3-0.2,0.4c-0.2,0-0.2,0.1-0.1,0.2
	c0.1,0.1,0.2,0.3,0.2,0.4c0,0,0,0.1,0,0.1h0.3c-0.1-0.3-0.1-0.3-0.2-0.4c-0.1-0.1-0.1-0.2,0-0.2c0.2-0.1,0.2-0.3,0.2-0.5
	c-0.1-0.2-0.2-0.3-0.4-0.3c-0.1,0-0.3,0-0.4,0c-0.2,0-0.2,0-0.2,0.2c0,0.4,0,0.8,0,1.2V30L40.6,29.9C40.6,30,40.6,29.9,40.6,29.9z"
	/>
</svg>
