<svg xmlns="http://www.w3.org/2000/svg" width="55" height="17" viewBox="0 0 55 17" fill="none">
  <path d="M45.0478 9.3125H38.3281V11.5625H45.0478V9.3125Z" fill="black"/>
  <path d="M50.6466 4.5625H49.7755V3.6875C49.7755 1.6875 48.1578 0.0625002 46.1668 0.0625002H34.9673C33.5363 0.0625002 32.323 0.90625 31.7319 2.0625L30.4875 4.5625L29.2431 2.03125C28.652 0.84375 27.4388 0.0312501 26.0077 0.0312501C24.5767 0.0312501 23.3634 0.875 22.7723 2.03125L21.5279 4.53125L20.2835 2C19.6924 0.8125 18.4792 0 17.0481 0H8.08852C6.0975 0 4.4798 1.625 4.4798 3.625V4.5H3.60873C1.6177 4.5625 0 6.1875 0 8.1875C0 10.1875 1.6177 11.8125 3.60873 11.8125H4.4798V12.6875C4.4798 14.6875 6.0975 16.3125 8.08852 16.3125C10.0795 16.3125 11.6972 14.6875 11.6972 12.6875V11.8125H14.8082C15.5237 11.8125 16.2082 11.5938 16.7681 11.2188L18.2925 14.3125C18.8836 15.5 20.0969 16.3125 21.5279 16.3125C22.959 16.3125 24.1722 15.5 24.7633 14.3125L26.0077 11.7812L27.2521 14.3125C27.8432 15.5 29.0565 16.3125 30.4875 16.3125C31.9186 16.3125 33.1318 15.5 33.7229 14.3125L33.8474 14.0312C34.3762 15.375 35.6828 16.3125 37.2072 16.3125H46.1668C48.1578 16.3125 49.7755 14.6875 49.7755 12.6875V11.8125H50.6466C52.6376 11.8125 54.2553 10.1875 54.2553 8.1875C54.2553 6.1875 52.6376 4.5625 50.6466 4.5625ZM50.6466 9.3125H47.2867V12.6875C47.2867 13.3125 46.789 13.8125 46.1668 13.8125H37.2072C36.585 13.8125 36.0873 13.3125 36.0873 12.6875V8.1875C36.0873 7.5625 36.585 7.0625 37.2072 7.0625H45.0469V4.8125H35.6517L31.483 13.1875C31.2964 13.5625 30.923 13.8125 30.4875 13.8125C30.052 13.8125 29.6787 13.5625 29.492 13.1875L26.0077 6.21875L22.5234 13.1875C22.3368 13.5625 21.9634 13.8125 21.5279 13.8125C21.0924 13.8125 20.7191 13.5625 20.5324 13.1875L16.3637 4.8125H9.20847V7.0625H14.8082C15.4304 7.0625 15.9282 7.5625 15.9282 8.1875C15.9282 8.8125 15.4304 9.3125 14.8082 9.3125H9.20847V12.6875C9.20847 13.3125 8.71072 13.8125 8.08852 13.8125C7.46633 13.8125 6.96857 13.3125 6.96857 12.6875V9.3125H3.60873C2.98653 9.3125 2.48878 8.8125 2.48878 8.1875C2.48878 7.5625 2.98653 7.0625 3.60873 7.0625H6.96857V3.6875C6.96857 3.0625 7.46633 2.5625 8.08852 2.5625H17.0481C17.4837 2.5625 17.857 2.8125 18.0436 3.1875L21.5279 10.1875L25.0122 3.1875C25.1989 2.8125 25.5722 2.5625 26.0077 2.5625C26.4432 2.5625 26.8166 2.8125 27.0032 3.1875L30.4875 10.1562L33.9718 3.1875C34.1585 2.8125 34.5318 2.5625 34.9673 2.5625H46.1668C46.789 2.5625 47.2867 3.0625 47.2867 3.6875V7.0625H50.6466C51.2688 7.0625 51.7665 7.5625 51.7665 8.1875C51.7665 8.8125 51.2688 9.3125 50.6466 9.3125Z" fill="black"/>
</svg>