<?xml version="1.0" encoding="utf-8"?>
<!-- Generator: Adobe Illustrator 27.7.0, SVG Export Plug-In . SVG Version: 6.00 Build 0)  -->
<svg version="1.1" id="Layer_1" xmlns="http://www.w3.org/2000/svg" xmlns:xlink="http://www.w3.org/1999/xlink" x="0px" y="0px"
	 viewBox="0 0 34 27" style="enable-background:new 0 0 34 27;" xml:space="preserve">
<style type="text/css">
	.st0{fill:#FF3C00;}
</style>
<path class="st0" d="M28.7,0h-2.2v2.2h2.2V0z"/>
<path class="st0" d="M28.7,2.6h-2.2v2.2h2.2V2.6z"/>
<path class="st0" d="M28.7,5.3h-2.2v2.2h2.2V5.3z"/>
<path class="st0" d="M28.7,7.9h-2.2v2.2h2.2V7.9z"/>
<path class="st0" d="M28.7,10.6h-2.2v2.2h2.2V10.6z"/>
<path class="st0" d="M28.7,13.2h-2.2v2.2h2.2V13.2z"/>
<path class="st0" d="M28.7,15.9h-2.2v2.2h2.2V15.9z"/>
<path class="st0" d="M31.3,2.6h-2.2v2.2h2.2V2.6z"/>
<path class="st0" d="M31.3,5.3h-2.2v2.2h2.2V5.3z"/>
<path class="st0" d="M31.3,7.9h-2.2v2.2h2.2V7.9z"/>
<path class="st0" d="M31.3,10.6h-2.2v2.2h2.2V10.6z"/>
<path class="st0" d="M31.3,13.2h-2.2v2.2h2.2V13.2z"/>
<path class="st0" d="M34,5.3h-2.2v2.2H34V5.3z"/>
<path class="st0" d="M34,7.9h-2.2v2.2H34V7.9z"/>
<path class="st0" d="M34,10.6h-2.2v2.2H34V10.6z"/>
<path class="st0" d="M20.7,2.6h-2.2v2.2h2.2V2.6z"/>
<path class="st0" d="M20.7,5.3h-2.2v2.2h2.2V5.3z"/>
<path class="st0" d="M20.7,7.9h-2.2v2.2h2.2V7.9z"/>
<path class="st0" d="M20.7,10.6h-2.2v2.2h2.2V10.6z"/>
<path class="st0" d="M20.7,13.2h-2.2v2.2h2.2V13.2z"/>
<path class="st0" d="M20.7,15.9h-2.2v2.2h2.2V15.9z"/>
<path class="st0" d="M20.7,18.6h-2.2v2.2h2.2V18.6z"/>
<path class="st0" d="M20.7,21.2h-2.2v2.2h2.2V21.2z"/>
<path class="st0" d="M23.4,0h-2.2v2.2h2.2V0z"/>
<path class="st0" d="M23.4,2.6h-2.2v2.2h2.2V2.6z"/>
<path class="st0" d="M23.4,5.3h-2.2v2.2h2.2V5.3z"/>
<path class="st0" d="M23.4,7.9h-2.2v2.2h2.2V7.9z"/>
<path class="st0" d="M23.4,10.6h-2.2v2.2h2.2V10.6z"/>
<path class="st0" d="M23.4,13.2h-2.2v2.2h2.2V13.2z"/>
<path class="st0" d="M23.4,15.9h-2.2v2.2h2.2V15.9z"/>
<path class="st0" d="M23.4,18.6h-2.2v2.2h2.2V18.6z"/>
<path class="st0" d="M26,0h-2.2v2.2H26V0z"/>
<path class="st0" d="M26,2.6h-2.2v2.2H26V2.6z"/>
<path class="st0" d="M26,5.3h-2.2v2.2H26V5.3z"/>
<path class="st0" d="M26,7.9h-2.2v2.2H26V7.9z"/>
<path class="st0" d="M26,10.6h-2.2v2.2H26V10.6z"/>
<path class="st0" d="M26,13.2h-2.2v2.2H26V13.2z"/>
<path class="st0" d="M26,15.9h-2.2v2.2H26V15.9z"/>
<path class="st0" d="M12.7,0h-2.2v2.2h2.2V0z"/>
<path class="st0" d="M12.7,2.6h-2.2v2.2h2.2V2.6z"/>
<path class="st0" d="M12.7,5.3h-2.2v2.2h2.2V5.3z"/>
<path class="st0" d="M12.7,7.9h-2.2v2.2h2.2V7.9z"/>
<path class="st0" d="M12.7,10.6h-2.2v2.2h2.2V10.6z"/>
<path class="st0" d="M12.7,13.2h-2.2v2.2h2.2V13.2z"/>
<path class="st0" d="M12.7,15.9h-2.2v2.2h2.2V15.9z"/>
<path class="st0" d="M12.7,18.6h-2.2v2.2h2.2V18.6z"/>
<path class="st0" d="M15.4,2.6h-2.2v2.2h2.2V2.6z"/>
<path class="st0" d="M15.4,5.3h-2.2v2.2h2.2V5.3z"/>
<path class="st0" d="M15.4,7.9h-2.2v2.2h2.2V7.9z"/>
<path class="st0" d="M15.4,10.6h-2.2v2.2h2.2V10.6z"/>
<path class="st0" d="M15.4,13.2h-2.2v2.2h2.2V13.2z"/>
<path class="st0" d="M15.4,15.9h-2.2v2.2h2.2V15.9z"/>
<path class="st0" d="M15.4,18.6h-2.2v2.2h2.2V18.6z"/>
<path class="st0" d="M15.4,21.2h-2.2v2.2h2.2V21.2z"/>
<path class="st0" d="M18,5.3h-2.2v2.2H18V5.3z"/>
<path class="st0" d="M18,7.9h-2.2v2.2H18V7.9z"/>
<path class="st0" d="M18,10.6h-2.2v2.2H18V10.6z"/>
<path class="st0" d="M18,13.2h-2.2v2.2H18V13.2z"/>
<path class="st0" d="M18,15.9h-2.2v2.2H18V15.9z"/>
<path class="st0" d="M18,18.6h-2.2v2.2H18V18.6z"/>
<path class="st0" d="M18,21.2h-2.2v2.2H18V21.2z"/>
<path class="st0" d="M18,23.9h-2.2V26H18V23.9z"/>
<path class="st0" d="M4.8,2.6H2.6v2.2h2.2V2.6z"/>
<path class="st0" d="M4.8,5.3H2.6v2.2h2.2V5.3z"/>
<path class="st0" d="M4.8,7.9H2.6v2.2h2.2V7.9z"/>
<path class="st0" d="M4.8,10.6H2.6v2.2h2.2V10.6z"/>
<path class="st0" d="M4.8,13.2H2.6v2.2h2.2V13.2z"/>
<path class="st0" d="M7.4,0H5.2v2.2h2.2V0z"/>
<path class="st0" d="M7.4,5.3H5.2v2.2h2.2V5.3z"/>
<path class="st0" d="M7.4,7.9H5.2v2.2h2.2V7.9z"/>
<path class="st0" d="M7.4,10.6H5.2v2.2h2.2V10.6z"/>
<path class="st0" d="M7.4,13.2H5.2v2.2h2.2V13.2z"/>
<path class="st0" d="M7.4,15.9H5.2v2.2h2.2V15.9z"/>
<path class="st0" d="M10.1,0H7.9v2.2h2.2V0z"/>
<path class="st0" d="M10.1,2.6H7.9v2.2h2.2V2.6z"/>
<path class="st0" d="M10.1,5.3H7.9v2.2h2.2V5.3z"/>
<path class="st0" d="M10.1,7.9H7.9v2.2h2.2V7.9z"/>
<path class="st0" d="M10.1,10.6H7.9v2.2h2.2V10.6z"/>
<path class="st0" d="M10.1,13.2H7.9v2.2h2.2V13.2z"/>
<path class="st0" d="M10.1,15.9H7.9v2.2h2.2V15.9z"/>
<path class="st0" d="M2.2,5.3H0v2.2h2.2V5.3z"/>
<path class="st0" d="M2.2,7.9H0v2.2h2.2V7.9z"/>
<path class="st0" d="M2.2,10.6H0v2.2h2.2V10.6z"/>
</svg>
