<svg xmlns="http://www.w3.org/2000/svg" width="47" height="26" viewBox="0 0 47 26" fill="none">
  <g clip-path="url(#fzkxzdvxej-clip0_4610_39299)">
    <path d="M46.8419 18.8677C46.7076 19.243 46.627 19.645 46.4122 19.9666C46.0899 20.4223 45.6601 20.7975 45.2841 21.1727C45.0155 21.4407 44.7469 21.7892 44.4246 21.95C44.0217 22.1644 43.5383 22.3252 43.0548 22.352C41.8193 22.4056 40.5838 22.352 39.3483 22.4056C38.7574 22.4056 38.3008 22.1644 37.8442 21.816C37.0116 21.1727 36.931 20.3151 36.931 19.3502C36.931 18.8409 36.743 18.3317 36.6624 17.8225C36.555 17.0988 36.4475 16.3751 36.4207 15.6247C36.3938 15.0082 36.4207 14.3918 36.4744 13.7753C36.555 12.8909 36.7161 12.0064 36.7698 11.1219C36.8236 10.3983 36.5818 10.0499 35.8298 10.0231C34.836 9.99625 34.5674 9.72823 34.4331 8.79016C34.4063 8.54894 34.5406 8.22731 34.7017 8.0129C35.1852 7.42325 35.8298 7.02122 36.6087 6.83361C36.7698 6.8068 36.9847 6.51198 36.9847 6.32437C36.9847 5.76152 36.9847 5.19868 36.8773 4.63584C36.5818 2.81329 37.4413 2.62568 38.8917 2.8401C39.3752 2.9205 39.8855 3.00091 40.3958 3.02771C41.1747 3.08131 41.7656 4.26061 41.497 4.98426C41.2821 5.60071 40.933 6.29756 41.3358 6.99442C41.4164 7.10163 41.6044 7.20883 41.7119 7.20883C42.7862 7.15523 43.8874 7.07482 44.9618 6.99442C45.311 6.96762 45.5527 7.10163 45.6064 7.45005C45.7138 8.14691 45.7944 8.81696 45.875 9.51381C45.9287 9.94265 45.7138 10.2643 45.2572 10.2911C44.3978 10.3447 43.5383 10.4519 42.6788 10.3447C41.6313 10.2107 41.0404 10.5055 40.9061 11.8724C40.7718 13.2393 41.1747 14.499 41.2015 15.8123C41.2284 16.4288 41.1747 17.0452 41.0673 17.6348C40.933 18.4389 41.2553 18.975 42.0073 18.8677C42.249 18.8409 42.5982 18.5729 42.6788 18.3585C42.9474 17.608 43.028 16.804 43.3234 16.0803C43.5383 15.5443 43.9412 15.0618 44.344 14.633C44.4515 14.5258 44.7738 14.633 45.0155 14.6866C45.1767 14.7134 45.311 14.8474 45.4452 14.9278C45.5795 15.0082 45.7407 15.0618 45.7944 15.1959C46.1436 15.9731 46.439 16.7504 46.7613 17.5276C46.7613 17.5544 46.815 17.5812 46.8419 17.6348C46.8419 18.0101 46.8419 18.4389 46.8419 18.8677Z" fill="black"/>
    <path d="M32.9291 8.41455C32.8485 8.33414 32.7411 8.30734 32.6336 8.25373C32.0159 8.01252 31.425 7.7445 30.8072 7.53008C30.2432 7.34246 29.5986 7.07444 29.0346 7.12805C28.0945 7.23526 27.1813 7.55688 26.2681 7.7981C25.0057 8.14653 23.9314 8.84338 23.0719 9.83506C22.7764 10.1835 22.3467 10.5319 22.2661 10.9607C21.9707 12.5421 21.6752 14.1234 21.5678 15.7315C21.5141 16.6696 21.5141 17.7417 22.3467 18.5189C22.481 18.6529 22.5347 18.8942 22.669 19.1622C22.1587 19.1622 21.729 19.1354 21.3261 19.1622C20.8695 19.189 20.7352 19.0282 20.8158 18.5725C20.8695 18.3581 20.8426 18.1169 20.8158 17.8757C20.7889 16.9376 20.7083 15.9727 20.7083 15.0347C20.7083 14.311 20.8426 13.5605 20.8158 12.8369C20.7889 12.1668 20.5472 11.4968 20.4666 10.8535C20.386 10.0495 20.1443 9.32582 19.634 8.73617C19.4997 8.57536 19.2848 8.41455 19.1237 8.41455C18.5328 8.41455 18.1567 8.11972 17.7539 7.7445C17.5658 7.55688 17.3241 7.36927 17.0824 7.34246C16.5989 7.28886 16.1155 7.31566 15.6589 7.36927C14.1816 7.55688 12.9193 8.17333 11.9792 9.35262C11.8718 9.48663 11.6032 9.67425 11.5226 9.64744C11.3346 9.56704 11.1466 9.35262 11.0929 9.16501C10.878 8.38775 10.7168 8.22693 9.93793 8.22693C9.64248 8.22693 9.32018 8.30734 8.99787 8.30734C8.38012 8.28054 7.76237 8.22693 7.17147 8.14653C6.31199 8.03932 5.45251 8.20013 5.47937 9.40622C5.50623 9.88866 5.5868 10.3443 5.61366 10.7999C5.64052 11.1484 5.80167 11.2824 6.15084 11.2556C6.60744 11.2288 7.0909 11.202 7.52064 11.1752C8.0041 11.738 7.81608 12.3008 7.70865 12.9441C7.49378 14.3914 7.46692 15.8923 7.78923 17.3664C8.13839 19.0282 8.24583 18.9746 6.6343 19.0282C6.55372 19.0282 6.44629 19.0014 6.39257 19.0282C6.15084 19.1622 5.80167 19.2694 5.7211 19.4838C5.50623 20.1271 5.37193 20.7971 5.29135 21.4672C5.2645 21.628 5.47937 21.8424 5.64052 21.9496C6.36571 22.432 7.17147 22.3248 7.97724 22.2712C8.64871 22.2444 9.34704 22.164 10.0185 22.2176C10.4483 22.2444 10.878 22.4588 11.3077 22.4856C11.7643 22.5124 12.2478 22.4588 12.7044 22.432C13.7519 22.3784 14.4234 21.7888 13.9668 20.6363C13.8862 20.4755 13.8593 20.2611 13.8593 20.0735C13.8593 18.4653 13.6713 18.787 12.5432 18.6529C12.5432 18.6529 12.5164 18.6529 12.4895 18.6261C12.4358 18.3849 12.3015 18.1169 12.3015 17.8757C12.3284 17.3664 12.5164 16.8304 12.5164 16.3212C12.5164 15.7047 12.3284 15.0615 12.3821 14.445C12.4358 13.7214 12.5432 12.9441 12.8118 12.2472C13.1878 11.336 13.5102 11.3092 14.2085 11.3896C14.5039 11.4164 14.7994 11.3896 15.068 11.4968C15.4977 11.6844 16.008 11.8184 16.2498 12.1668C16.8138 12.9977 16.7601 13.9626 16.6258 14.9275C16.4915 15.8387 16.4915 16.7768 16.5721 17.6881C16.6526 18.4385 16.1692 19.0818 15.444 18.921C14.7457 18.7602 14.4234 19.0014 14.5039 19.6982C14.5845 20.3683 14.7188 21.0383 14.7994 21.7084C14.88 22.2176 15.1754 22.4052 15.6589 22.3516C16.2498 22.2712 16.8675 22.1372 17.4584 22.164C19.1237 22.1908 20.7889 22.298 22.4273 22.3248C22.6422 22.3248 22.9913 22.1372 23.045 21.9496C23.2331 21.494 23.2868 21.0115 23.3942 20.4755C23.7434 20.7167 24.1463 20.9311 24.4954 21.1187C25.7309 22.0568 27.1276 22.4052 28.6854 22.2176C28.954 22.1908 29.2494 22.2444 29.518 22.2176C30.0283 22.164 30.5655 22.1104 31.049 21.9764C31.7742 21.7888 32.4993 21.6012 33.144 21.2795C33.6811 20.9847 34.1646 20.5291 34.5406 20.0467C34.8361 19.6714 34.9166 19.1086 35.1584 18.6797C35.4538 18.1705 35.3732 17.7417 34.9166 17.4737C34.46 17.1788 33.9497 16.9912 33.4394 16.8036C33.2783 16.75 33.0634 16.8572 32.8754 16.9108C32.5799 17.018 32.3113 17.1252 32.0427 17.286C31.3981 17.6613 30.6998 18.0365 30.1626 18.5189C29.5717 19.055 28.2557 19.2694 27.6379 18.7333C27.1544 18.3045 26.6978 17.8489 26.2144 17.3932C25.7846 16.9644 25.8921 16.4284 26.1338 15.9727C26.2681 15.7583 26.6978 15.7047 27.0201 15.6243C27.3156 15.5439 27.6648 15.5439 27.9602 15.4367C28.8734 15.1151 29.7597 15.1419 30.6461 15.4367C31.989 15.9191 33.332 15.8387 34.6481 15.3831C35.1315 15.2223 35.4001 14.847 35.3464 14.311C35.3195 14.043 35.3464 13.7482 35.3464 13.4801C35.5344 11.4164 34.4869 9.78145 32.9291 8.41455ZM30.6998 12.6493C29.9746 12.8369 29.2226 12.9441 28.3362 13.1049C27.8528 12.9709 27.3156 12.7833 26.7784 12.6225C26.295 12.4885 26.295 12.14 26.5098 11.872C26.9664 11.336 27.4499 10.7999 27.9871 10.3443C28.6585 9.80826 29.4106 9.94227 29.9746 10.6123C30.2969 10.9875 30.6192 11.3896 30.9415 11.7648C31.2907 12.2204 31.237 12.5153 30.6998 12.6493Z" fill="black"/>
    <path d="M2.283 18.3867C3.59908 18.3867 4.59286 19.3784 4.59286 20.6649C4.59286 21.9514 3.54537 22.9699 2.283 22.9431C1.02064 22.9431 0 21.9246 0 20.6649C0 19.4052 0.993777 18.3867 2.283 18.3867Z" fill="black"/>
  </g>
  <defs>
    <clipPath id="fzkxzdvxej-clip0_4610_39299">
      <rect width="46.8418" height="25.73" fill="white"/>
    </clipPath>
  </defs>
</svg>