<svg xmlns="http://www.w3.org/2000/svg" width="40" height="26" viewBox="0 0 40 26" fill="none">
  <path d="M9.75701 15.275H10.2725C10.7067 15.275 11.0323 14.95 11.0323 14.5167V11.3479C11.0323 10.9146 10.7067 10.5896 10.2725 10.5896H9.75701C9.32289 10.5896 8.97016 10.9417 8.97016 11.3479V14.4896C8.97016 14.9229 9.32289 15.275 9.75701 15.275ZM29.0757 9.20833V0.297917C29.0757 0.135417 28.9401 0 28.7773 0H19.7691C19.6063 0 19.3621 0.108333 19.2536 0.216667L9.89268 9.45208H10.2725C11.4664 9.45208 12.2804 10.2104 12.2804 11.3479V14.4896C12.2804 15.6271 11.4935 16.3854 10.2725 16.3854H9.75701C8.53603 16.3854 7.74917 15.6271 7.74917 14.4896V11.5917L3.27222 16.0063C3.16369 16.1146 3.05516 16.3583 3.05516 16.5208V25.4313C3.05516 25.5938 3.19082 25.7292 3.35362 25.7292H12.3618C12.5246 25.7292 12.7688 25.6208 12.8773 25.5125L22.2382 16.25H19.5249C19.4435 16.25 19.4164 16.2229 19.4164 16.1417V9.64167C19.4164 9.56042 19.4435 9.53333 19.5249 9.53333H23.3235C23.3778 9.53333 23.4321 9.56042 23.4321 9.64167V10.5354C23.4321 10.6167 23.4049 10.6438 23.3235 10.6438H20.773C20.6916 10.6438 20.6645 10.6708 20.6645 10.7521V12.1604C20.6645 12.2417 20.6916 12.2688 20.773 12.2688H22.8623C22.9437 12.2688 22.9708 12.2958 22.9708 12.3771V13.2708C22.9708 13.3521 22.9437 13.3792 22.8623 13.3792H20.773C20.6916 13.3792 20.6645 13.4063 20.6645 13.4875V15.0042C20.6645 15.0854 20.6916 15.1125 20.773 15.1125H23.3235C23.3507 15.1125 23.3507 15.1125 23.3778 15.1125L28.8858 9.66875C28.9943 9.5875 29.0757 9.37083 29.0757 9.20833ZM17.9512 16.1688C17.9512 16.25 17.9241 16.2771 17.8427 16.2771H16.9473L16.8387 16.2229L14.641 11.9438L14.7224 16.1688C14.7224 16.25 14.6952 16.2771 14.6138 16.2771H13.6099C13.5285 16.2771 13.5014 16.25 13.5014 16.1688V9.66875C13.5014 9.5875 13.5285 9.56042 13.6099 9.56042H14.5053L14.6138 9.61458L16.8116 13.9479L16.7573 9.66875C16.7573 9.5875 16.7845 9.56042 16.8659 9.56042H17.8427C17.8969 9.56042 17.9512 9.5875 17.9512 9.66875V16.1688V16.1688ZM1.75277 9.45208H0.151922C0.124789 9.45208 0.0976562 9.45208 0.0976562 9.50625V9.88542C0.0976562 9.9125 0.0976562 9.93958 0.151922 9.93958H0.640317C0.66745 9.93958 0.694583 9.93958 0.694583 9.99375V12.2417C0.694583 12.2688 0.694583 12.2958 0.748849 12.2958H1.18298C1.21011 12.2958 1.23724 12.2958 1.23724 12.2417V9.99375C1.23724 9.96667 1.23724 9.93958 1.29151 9.93958H1.7799C1.80704 9.93958 1.83417 9.93958 1.83417 9.88542V9.50625C1.80704 9.47917 1.7799 9.45208 1.75277 9.45208ZM3.62495 11.1312V12.2417C3.62495 12.2688 3.62495 12.2958 3.67922 12.2958H4.11334C4.14048 12.2958 4.16761 12.2958 4.16761 12.2417V9.50625C4.16761 9.47917 4.16761 9.45208 4.11334 9.45208H3.67922C3.65208 9.45208 3.62495 9.45208 3.62495 9.50625V10.5625C3.62495 10.5896 3.62495 10.6167 3.57068 10.6167H2.72956C2.70243 10.6167 2.67529 10.6167 2.67529 10.5625V9.50625C2.67529 9.47917 2.64816 9.45208 2.62103 9.45208H2.1869C2.15977 9.45208 2.13263 9.45208 2.13263 9.50625V12.2417C2.13263 12.2688 2.13263 12.2958 2.1869 12.2958H2.62103C2.64816 12.2958 2.67529 12.2958 2.67529 12.2417V11.1312C2.67529 11.1042 2.67529 11.0771 2.72956 11.0771H3.57068C3.59782 11.0771 3.62495 11.1042 3.62495 11.1312ZM4.68314 12.2688H6.28399C6.31112 12.2688 6.33825 12.2688 6.33825 12.2146V11.8354C6.33825 11.8083 6.31112 11.7813 6.28399 11.7813H5.19867C5.17153 11.7813 5.1444 11.7813 5.1444 11.7271V11.1042C5.1444 11.0771 5.1444 11.05 5.19867 11.05H6.06692C6.09406 11.05 6.12119 11.05 6.12119 10.9958V10.6167C6.12119 10.5896 6.12119 10.5625 6.06692 10.5625H5.19867C5.17153 10.5625 5.1444 10.5625 5.1444 10.5083V9.9125C5.1444 9.88542 5.1444 9.85833 5.19867 9.85833H6.28399C6.31112 9.85833 6.33825 9.85833 6.33825 9.80417V9.425C6.33825 9.39792 6.31112 9.37083 6.28399 9.37083H4.68314C4.65601 9.37083 4.62887 9.37083 4.62887 9.425V12.1604C4.62887 12.2688 4.65601 12.2688 4.68314 12.2688ZM26.471 15.8438H26.281C26.1725 15.8438 26.064 15.7896 26.0097 15.6813C25.9554 15.6 25.9554 15.5458 25.9283 15.5458C25.9283 15.5458 25.9283 15.5458 25.9012 15.5458L25.5213 15.7354C25.4942 15.7354 25.4942 15.7625 25.4942 15.7625C25.4942 15.8167 25.5484 15.925 25.7112 16.0875C25.8469 16.2229 26.0368 16.3042 26.3082 16.3042H26.4981C27.0136 16.3042 27.3392 15.9792 27.3392 15.5188C27.3392 15.0854 27.1222 14.8417 26.6338 14.5979C26.3082 14.4625 26.1182 14.3813 26.1182 14.1917C26.1182 14.0021 26.2539 13.8667 26.4438 13.8667H26.4981C26.6338 13.8667 26.7152 13.9479 26.7966 14.0833C26.8237 14.1104 26.8237 14.1375 26.8508 14.1375H26.878L27.2578 13.9479C27.285 13.9479 27.285 13.9208 27.285 13.9208C27.285 13.8667 27.1764 13.6771 26.9865 13.5417C26.8508 13.4333 26.688 13.4063 26.471 13.4063H26.4167C25.9012 13.4063 25.5756 13.7313 25.5756 14.1917C25.5756 14.625 25.8198 14.8417 26.3353 15.0854C26.6338 15.2208 26.8237 15.3021 26.8237 15.5188C26.7966 15.7083 26.6609 15.8438 26.471 15.8438ZM28.2346 14.5979C28.2075 14.5979 28.1803 14.5979 28.1803 14.5438V13.4875C28.1803 13.4604 28.1532 13.4333 28.1261 13.4333H27.6919C27.6648 13.4333 27.6377 13.4333 27.6377 13.4875V16.2229C27.6377 16.25 27.6377 16.2771 27.6919 16.2771H28.1261C28.1532 16.2771 28.1803 16.2771 28.1803 16.2229V15.1125C28.1803 15.0854 28.1803 15.0583 28.2346 15.0583H29.0757C29.1029 15.0583 29.13 15.0583 29.13 15.1125V16.2229C29.13 16.25 29.13 16.2771 29.1843 16.2771H29.6184C29.6455 16.2771 29.6727 16.2771 29.6727 16.2229V13.4875C29.6727 13.4604 29.6727 13.4333 29.6184 13.4333H29.1843C29.1571 13.4333 29.13 13.4333 29.13 13.4875V14.5438C29.13 14.5708 29.1029 14.5979 29.0757 14.5979H28.2346ZM30.8936 16.3042H31.1107C31.6262 16.3042 31.9518 15.9792 31.9518 15.5188V14.1917C31.9518 13.7042 31.6262 13.4063 31.1107 13.4063H30.8936C30.3781 13.4063 30.0525 13.7313 30.0525 14.1917V15.5188C30.0525 16.0063 30.3781 16.3042 30.8936 16.3042ZM30.568 14.1917C30.568 14.0021 30.7037 13.8667 30.8936 13.8667H31.1107C31.3006 13.8667 31.4363 14.0021 31.4363 14.1917V15.5188C31.4363 15.7083 31.3006 15.8438 31.1107 15.8438H30.8936C30.7037 15.8438 30.568 15.7083 30.568 15.5188V14.1917V14.1917ZM32.8201 16.2229C32.8201 16.25 32.8472 16.25 32.8744 16.25H33.2C33.2271 16.25 33.2271 16.25 33.2542 16.2229L33.7155 14.4625L34.1767 16.2229C34.1767 16.25 34.2039 16.25 34.231 16.25H34.5566C34.5837 16.25 34.5837 16.25 34.6109 16.2229L35.2078 13.4875C35.2078 13.4875 35.2078 13.4875 35.2078 13.4604C35.2078 13.4333 35.1807 13.4333 35.1535 13.4333H34.6923C34.6651 13.4333 34.6651 13.4333 34.638 13.4604L34.2581 15.3021L33.824 13.4604C33.824 13.4333 33.7969 13.4333 33.7697 13.4333H33.5527C33.5255 13.4333 33.5255 13.4333 33.4984 13.4604L33.0643 15.3021L32.7387 13.4875C32.7387 13.4604 32.7116 13.4604 32.6844 13.4604H32.2232C32.196 13.4604 32.1689 13.4604 32.1689 13.4875C32.1689 13.4875 32.1689 13.4875 32.1689 13.5146L32.8201 16.2229ZM26.7423 17.4417C26.7423 17.4146 26.7152 17.4146 26.688 17.4146H26.3624C26.3353 17.4146 26.3353 17.4146 26.3082 17.4417L25.467 20.2042C25.467 20.2042 25.467 20.2042 25.467 20.2312C25.467 20.2583 25.4942 20.2583 25.5213 20.2583H25.9826C26.0097 20.2583 26.0368 20.2583 26.0368 20.2312L26.1725 19.7708C26.1725 19.7438 26.1996 19.7438 26.2268 19.7438H26.878C26.9051 19.7438 26.9322 19.7438 26.9322 19.7708L27.0679 20.2312C27.0679 20.2583 27.095 20.2583 27.1222 20.2583H27.5834C27.6105 20.2583 27.6377 20.2583 27.6377 20.2312C27.6377 20.2312 27.6377 20.2313 27.6377 20.2042L26.7423 17.4417ZM26.688 19.2563H26.3624C26.3353 19.2563 26.3082 19.2563 26.3082 19.2292C26.3082 19.2292 26.3082 19.2292 26.3082 19.2021L26.471 18.6062C26.471 18.5792 26.4981 18.4979 26.5252 18.3625H26.5524C26.5795 18.4979 26.6066 18.5792 26.6066 18.6062L26.7694 19.2021C26.7694 19.2021 26.7694 19.2021 26.7694 19.2292C26.7423 19.2292 26.7152 19.2563 26.688 19.2563ZM30.4595 17.4417C30.4595 17.4146 30.4324 17.4146 30.4053 17.4146H29.944C29.9169 17.4146 29.8897 17.4146 29.8897 17.4417L29.5641 19.2833L29.13 17.4417C29.13 17.4146 29.1029 17.4146 29.0757 17.4146H28.8587C28.8315 17.4146 28.8044 17.4146 28.8044 17.4417L28.3703 19.2833L28.0447 17.4417C28.0447 17.4146 28.0175 17.4146 27.9904 17.4146H27.5291C27.502 17.4146 27.4749 17.4146 27.4749 17.4417C27.4749 17.4417 27.4749 17.4417 27.4749 17.4688L28.0718 20.2312C28.0718 20.2583 28.0989 20.2583 28.1261 20.2583H28.4517C28.4788 20.2583 28.5059 20.2583 28.5059 20.2312L28.9672 18.4438L29.4285 20.2312C29.4285 20.2583 29.4556 20.2583 29.4827 20.2583H29.8083C29.8355 20.2583 29.8626 20.2583 29.8626 20.2312L30.4595 17.4417C30.4595 17.4417 30.4324 17.4688 30.4595 17.4417ZM31.5991 17.4417C31.5991 17.4146 31.572 17.4146 31.5448 17.4146H31.2192C31.1921 17.4146 31.1921 17.4146 31.165 17.4417L30.3239 20.2042C30.3239 20.2042 30.3239 20.2042 30.3239 20.2312C30.3239 20.2583 30.351 20.2583 30.3781 20.2583H30.8394C30.8665 20.2583 30.8936 20.2583 30.8936 20.2312L31.0293 19.7708C31.0293 19.7438 31.0564 19.7438 31.0836 19.7438H31.7348C31.7619 19.7438 31.789 19.7438 31.789 19.7708L31.9247 20.2312C31.9247 20.2583 31.9518 20.2583 31.979 20.2583H32.4402C32.4674 20.2583 32.4945 20.2583 32.4945 20.2312C32.4945 20.2312 32.4945 20.2313 32.4945 20.2042L31.5991 17.4417ZM31.572 19.2563H31.2464C31.2192 19.2563 31.1921 19.2563 31.1921 19.2292C31.1921 19.2292 31.1921 19.2292 31.1921 19.2021L31.3549 18.6062C31.3549 18.5792 31.382 18.4979 31.4092 18.3625H31.4363C31.4634 18.4979 31.4906 18.5792 31.4906 18.6062L31.6534 19.2021C31.6534 19.2021 31.6534 19.2021 31.6534 19.2292C31.5991 19.2292 31.5991 19.2563 31.572 19.2563ZM34.2581 18.9583C34.2581 18.9042 34.3667 18.85 34.4481 18.7958C34.5295 18.6875 34.638 18.525 34.638 18.3083V18.2542C34.638 17.7396 34.3124 17.4146 33.7969 17.4146H32.7658C32.7387 17.4146 32.7116 17.4146 32.7116 17.4688V20.2312C32.7116 20.2583 32.7387 20.2854 32.7658 20.2854H33.2C33.2271 20.2854 33.2542 20.2854 33.2542 20.2312V19.0938C33.2542 19.0667 33.2814 19.0396 33.3085 19.0396H33.7155L33.7426 19.0667L34.1496 20.2042C34.1767 20.2313 34.1767 20.2312 34.2039 20.2312H34.6651C34.6923 20.2312 34.7194 20.2313 34.7194 20.2042C34.7194 20.2042 34.7194 20.2042 34.7194 20.1771L34.2581 18.9583ZM34.1225 18.2542C34.1225 18.4438 33.9597 18.5792 33.7969 18.5792H33.3085C33.2814 18.5792 33.2542 18.5792 33.2542 18.525V17.9292C33.2542 17.9021 33.2814 17.875 33.3085 17.875H33.7969C33.9868 17.875 34.1225 18.0104 34.1225 18.2V18.2542ZM36.1846 17.4146H35.1535C35.1264 17.4146 35.0993 17.4146 35.0993 17.4688V20.2312C35.0993 20.2583 35.1264 20.2854 35.1535 20.2854H36.1846C36.7001 20.2854 37.0257 19.9604 37.0257 19.4458V18.2813C37.0257 17.7396 36.7001 17.4146 36.1846 17.4146ZM36.5102 19.4458C36.5102 19.6354 36.3745 19.7708 36.1846 19.7708H35.6962C35.6691 19.7708 35.6419 19.7438 35.6419 19.7167V17.9021C35.6419 17.875 35.6691 17.8479 35.6962 17.8479H36.1846C36.3745 17.8479 36.5102 17.9833 36.5102 18.1729V19.4458ZM38.4909 18.5792C38.1653 18.4438 37.9754 18.3625 37.9754 18.1729C37.9754 17.9833 38.1382 17.8479 38.301 17.8479H38.3824C38.518 17.8479 38.5994 17.9292 38.6808 18.0646C38.708 18.0917 38.708 18.1188 38.7351 18.1188H38.7622L39.1692 17.9292C39.1964 17.9292 39.1963 17.9021 39.1963 17.9021C39.1963 17.8479 39.0878 17.6583 38.8979 17.5229C38.7622 17.4146 38.5994 17.3875 38.3824 17.3875H38.301C37.7854 17.3875 37.4598 17.7125 37.4598 18.1729C37.4598 18.6063 37.704 18.8229 38.2196 19.0667C38.518 19.2021 38.708 19.2833 38.708 19.5C38.708 19.6896 38.5452 19.825 38.3824 19.825H38.1924C38.0839 19.825 37.9754 19.7708 37.9211 19.6625C37.8668 19.5813 37.8668 19.5271 37.8397 19.5271H37.8126L37.4056 19.7167C37.3784 19.7167 37.3784 19.7438 37.3784 19.7438C37.3784 19.7979 37.4327 19.9063 37.5955 20.0688C37.7312 20.2042 37.9211 20.2854 38.1924 20.2854H38.3824C38.8979 20.2854 39.2235 19.9604 39.2235 19.5C39.1964 19.0396 38.9793 18.7958 38.4909 18.5792Z" fill="black"/>
</svg>