<?xml version="1.0" encoding="utf-8"?>
<!-- Generator: Adobe Illustrator 27.7.0, SVG Export Plug-In . SVG Version: 6.00 Build 0)  -->
<svg version="1.1" id="Layer_1" xmlns="http://www.w3.org/2000/svg" xmlns:xlink="http://www.w3.org/1999/xlink" x="0px" y="0px"
	 viewBox="0 0 40 26" style="enable-background:new 0 0 40 26;" xml:space="preserve">
<style type="text/css">
	.st0{fill:#FF3C00;}
</style>
<path class="st0" d="M9.8,15.3h0.5c0.4,0,0.8-0.3,0.8-0.8v-3.2c0-0.4-0.3-0.8-0.8-0.8H9.8c-0.4,0-0.8,0.4-0.8,0.8v3.1
	C9,14.9,9.3,15.3,9.8,15.3z M29.1,9.2V0.3c0-0.2-0.1-0.3-0.3-0.3h-9c-0.2,0-0.4,0.1-0.5,0.2L9.9,9.5h0.4c1.2,0,2,0.8,2,1.9v3.1
	c0,1.1-0.8,1.9-2,1.9H9.8c-1.2,0-2-0.8-2-1.9v-2.9L3.3,16c-0.1,0.1-0.2,0.4-0.2,0.5v8.9c0,0.2,0.1,0.3,0.3,0.3h9
	c0.2,0,0.4-0.1,0.5-0.2l9.4-9.3h-2.7c-0.1,0-0.1,0-0.1-0.1V9.6c0-0.1,0-0.1,0.1-0.1h3.8c0.1,0,0.1,0,0.1,0.1v0.9
	c0,0.1,0,0.1-0.1,0.1h-2.6c-0.1,0-0.1,0-0.1,0.1v1.4c0,0.1,0,0.1,0.1,0.1h2.1c0.1,0,0.1,0,0.1,0.1v0.9c0,0.1,0,0.1-0.1,0.1h-2.1
	c-0.1,0-0.1,0-0.1,0.1V15c0,0.1,0,0.1,0.1,0.1h2.6c0,0,0,0,0.1,0l5.5-5.4C29,9.6,29.1,9.4,29.1,9.2z M18,16.2c0,0.1,0,0.1-0.1,0.1
	h-0.9l-0.1-0.1l-2.2-4.3l0.1,4.2c0,0.1,0,0.1-0.1,0.1h-1c-0.1,0-0.1,0-0.1-0.1V9.7c0-0.1,0-0.1,0.1-0.1h0.9l0.1,0.1l2.2,4.3
	l-0.1-4.3c0-0.1,0-0.1,0.1-0.1h1c0.1,0,0.1,0,0.1,0.1V16.2L18,16.2z M1.8,9.5H0.2c0,0-0.1,0-0.1,0.1v0.4c0,0,0,0.1,0.1,0.1h0.5
	c0,0,0.1,0,0.1,0.1v2.2c0,0,0,0.1,0.1,0.1h0.4c0,0,0.1,0,0.1-0.1V10c0,0,0-0.1,0.1-0.1h0.5c0,0,0.1,0,0.1-0.1L1.8,9.5
	C1.8,9.5,1.8,9.5,1.8,9.5z M3.6,11.1v1.1c0,0,0,0.1,0.1,0.1h0.4c0,0,0.1,0,0.1-0.1V9.5c0,0,0-0.1-0.1-0.1H3.7c0,0-0.1,0-0.1,0.1v1.1
	c0,0,0,0.1-0.1,0.1H2.7c0,0-0.1,0-0.1-0.1V9.5c0,0,0-0.1-0.1-0.1H2.2c0,0-0.1,0-0.1,0.1v2.7c0,0,0,0.1,0.1,0.1h0.4
	c0,0,0.1,0,0.1-0.1v-1.1c0,0,0-0.1,0.1-0.1L3.6,11.1C3.6,11.1,3.6,11.1,3.6,11.1z M4.7,12.3h1.6c0,0,0.1,0,0.1-0.1v-0.4
	c0,0,0-0.1-0.1-0.1H5.2c0,0-0.1,0-0.1-0.1v-0.6c0,0,0-0.1,0.1-0.1h0.9c0,0,0.1,0,0.1-0.1v-0.4c0,0,0-0.1-0.1-0.1H5.2
	c0,0-0.1,0-0.1-0.1V9.9c0,0,0-0.1,0.1-0.1h1.1c0,0,0.1,0,0.1-0.1V9.4c0,0,0-0.1-0.1-0.1H4.7c0,0-0.1,0-0.1,0.1v2.7
	C4.6,12.3,4.7,12.3,4.7,12.3z M26.5,15.8h-0.2c-0.1,0-0.2-0.1-0.3-0.2c-0.1-0.1-0.1-0.1-0.1-0.1c0,0,0,0,0,0l-0.4,0.2c0,0,0,0,0,0
	c0,0.1,0.1,0.2,0.2,0.3c0.1,0.1,0.3,0.2,0.6,0.2h0.2c0.5,0,0.8-0.3,0.8-0.8c0-0.4-0.2-0.7-0.7-0.9c-0.3-0.1-0.5-0.2-0.5-0.4
	s0.1-0.3,0.3-0.3h0.1c0.1,0,0.2,0.1,0.3,0.2c0,0,0,0.1,0.1,0.1h0l0.4-0.2c0,0,0,0,0,0c0-0.1-0.1-0.2-0.3-0.4
	c-0.1-0.1-0.3-0.1-0.5-0.1h-0.1c-0.5,0-0.8,0.3-0.8,0.8c0,0.4,0.2,0.6,0.8,0.9c0.3,0.1,0.5,0.2,0.5,0.4
	C26.8,15.7,26.7,15.8,26.5,15.8z M28.2,14.6C28.2,14.6,28.2,14.6,28.2,14.6l-0.1-1.1c0,0,0-0.1-0.1-0.1h-0.4c0,0-0.1,0-0.1,0.1v2.7
	c0,0,0,0.1,0.1,0.1h0.4c0,0,0.1,0,0.1-0.1v-1.1c0,0,0-0.1,0.1-0.1h0.8c0,0,0.1,0,0.1,0.1v1.1c0,0,0,0.1,0.1,0.1h0.4
	c0,0,0.1,0,0.1-0.1v-2.7c0,0,0-0.1-0.1-0.1h-0.4c0,0-0.1,0-0.1,0.1v1.1c0,0,0,0.1-0.1,0.1H28.2z M30.9,16.3h0.2
	c0.5,0,0.8-0.3,0.8-0.8v-1.3c0-0.5-0.3-0.8-0.8-0.8h-0.2c-0.5,0-0.8,0.3-0.8,0.8v1.3C30.1,16,30.4,16.3,30.9,16.3z M30.6,14.2
	c0-0.2,0.1-0.3,0.3-0.3h0.2c0.2,0,0.3,0.1,0.3,0.3v1.3c0,0.2-0.1,0.3-0.3,0.3h-0.2c-0.2,0-0.3-0.1-0.3-0.3V14.2L30.6,14.2z
	 M32.8,16.2C32.8,16.2,32.8,16.2,32.8,16.2l0.4,0c0,0,0,0,0.1,0l0.5-1.8l0.5,1.8c0,0,0,0,0.1,0h0.3c0,0,0,0,0.1,0l0.6-2.7
	c0,0,0,0,0,0c0,0,0,0-0.1,0h-0.5c0,0,0,0-0.1,0l-0.4,1.8l-0.4-1.8c0,0,0,0-0.1,0h-0.2c0,0,0,0-0.1,0l-0.4,1.8l-0.3-1.8
	c0,0,0,0-0.1,0h-0.5c0,0-0.1,0-0.1,0c0,0,0,0,0,0L32.8,16.2z M26.7,17.4C26.7,17.4,26.7,17.4,26.7,17.4l-0.4,0c0,0,0,0-0.1,0
	l-0.8,2.8c0,0,0,0,0,0c0,0,0,0,0.1,0H26c0,0,0.1,0,0.1,0l0.1-0.5c0,0,0,0,0.1,0h0.7c0,0,0.1,0,0.1,0l0.1,0.5c0,0,0,0,0.1,0h0.5
	c0,0,0.1,0,0.1,0c0,0,0,0,0,0L26.7,17.4z M26.7,19.3h-0.3c0,0-0.1,0-0.1,0c0,0,0,0,0,0l0.2-0.6c0,0,0-0.1,0.1-0.2h0
	c0,0.1,0.1,0.2,0.1,0.2L26.7,19.3C26.8,19.2,26.8,19.2,26.7,19.3C26.7,19.2,26.7,19.3,26.7,19.3z M30.5,17.4
	C30.5,17.4,30.4,17.4,30.5,17.4l-0.5,0c0,0-0.1,0-0.1,0l-0.3,1.8l-0.4-1.8c0,0,0,0-0.1,0h-0.2c0,0-0.1,0-0.1,0l-0.4,1.8L28,17.4
	c0,0,0,0-0.1,0h-0.5c0,0-0.1,0-0.1,0c0,0,0,0,0,0l0.6,2.8c0,0,0,0,0.1,0h0.3c0,0,0.1,0,0.1,0l0.5-1.8l0.5,1.8c0,0,0,0,0.1,0h0.3
	c0,0,0.1,0,0.1,0L30.5,17.4C30.5,17.4,30.4,17.5,30.5,17.4z M31.6,17.4C31.6,17.4,31.6,17.4,31.6,17.4l-0.4,0c0,0,0,0-0.1,0
	l-0.8,2.8c0,0,0,0,0,0c0,0,0,0,0.1,0h0.5c0,0,0.1,0,0.1,0l0.1-0.5c0,0,0,0,0.1,0h0.7c0,0,0.1,0,0.1,0l0.1,0.5c0,0,0,0,0.1,0h0.5
	c0,0,0.1,0,0.1,0c0,0,0,0,0,0L31.6,17.4z M31.6,19.3h-0.3c0,0-0.1,0-0.1,0c0,0,0,0,0,0l0.2-0.6c0,0,0-0.1,0.1-0.2h0
	c0,0.1,0.1,0.2,0.1,0.2L31.6,19.3C31.7,19.2,31.7,19.2,31.6,19.3C31.6,19.2,31.6,19.3,31.6,19.3z M34.3,19c0-0.1,0.1-0.1,0.2-0.2
	c0.1-0.1,0.2-0.3,0.2-0.5v-0.1c0-0.5-0.3-0.8-0.8-0.8h-1c0,0-0.1,0-0.1,0.1v2.8c0,0,0,0.1,0.1,0.1h0.4c0,0,0.1,0,0.1-0.1v-1.1
	c0,0,0-0.1,0.1-0.1h0.4l0,0l0.4,1.1c0,0,0,0,0.1,0h0.5c0,0,0.1,0,0.1,0c0,0,0,0,0,0L34.3,19z M34.1,18.3c0,0.2-0.2,0.3-0.3,0.3h-0.5
	c0,0-0.1,0-0.1-0.1v-0.6c0,0,0-0.1,0.1-0.1h0.5C34,17.9,34.1,18,34.1,18.3L34.1,18.3z M36.2,17.4h-1c0,0-0.1,0-0.1,0.1v2.8
	c0,0,0,0.1,0.1,0.1h1c0.5,0,0.8-0.3,0.8-0.8v-1.2C37,17.7,36.7,17.4,36.2,17.4z M36.5,19.4c0,0.2-0.1,0.3-0.3,0.3h-0.5
	c0,0-0.1,0-0.1-0.1v-1.8c0,0,0-0.1,0.1-0.1h0.5c0.2,0,0.3,0.1,0.3,0.3V19.4z M38.5,18.6c-0.3-0.1-0.5-0.2-0.5-0.4s0.2-0.3,0.3-0.3
	h0.1c0.1,0,0.2,0.1,0.3,0.2c0,0,0,0.1,0.1,0.1h0l0.4-0.2c0,0,0,0,0,0c0-0.1-0.1-0.2-0.3-0.4c-0.1-0.1-0.3-0.1-0.5-0.1h-0.1
	c-0.5,0-0.8,0.3-0.8,0.8c0,0.4,0.2,0.7,0.8,0.9c0.3,0.1,0.5,0.2,0.5,0.4c0,0.2-0.2,0.3-0.3,0.3h-0.2c-0.1,0-0.2-0.1-0.3-0.2
	c-0.1-0.1-0.1-0.1-0.1-0.1h0l-0.4,0.2c0,0,0,0,0,0c0,0.1,0.1,0.2,0.2,0.3c0.1,0.1,0.3,0.2,0.6,0.2h0.2c0.5,0,0.8-0.3,0.8-0.8
	C39.2,19,39,18.8,38.5,18.6z"/>
</svg>
