<svg xmlns="http://www.w3.org/2000/svg" width="37" height="30" viewBox="0 0 37 30" fill="none">
  <path d="M11.0539 0.03125C10.3727 0.03125 9.81537 0.59375 9.81537 1.28125C9.81537 1.96875 10.3727 2.53125 11.0539 2.53125C11.7351 2.53125 12.2924 1.96875 12.2924 1.28125C12.2924 0.59375 11.7351 0.03125 11.0539 0.03125ZM14.7385 1.28125C14.7385 0.59375 14.1812 0.03125 13.5 0.03125C12.8188 0.03125 12.2615 0.59375 12.2615 1.28125C12.2615 1.96875 12.8188 2.53125 13.5 2.53125C14.1812 2.5 14.7385 1.96875 14.7385 1.28125ZM24.5539 1.28125C24.5539 0.59375 23.9966 0.03125 23.3154 0.03125C22.6342 0.03125 22.0768 0.59375 22.0768 1.28125C22.0768 1.96875 22.6342 2.53125 23.3154 2.53125C24.0275 2.5 24.5539 1.96875 24.5539 1.28125ZM25.7924 2.5C26.4736 2.5 27.031 1.9375 27.031 1.25C27.031 0.5625 26.4736 0 25.7924 0C25.1112 0 24.5539 0.5625 24.5539 1.25C24.5539 1.96875 25.1112 2.5 25.7924 2.5ZM14.7385 3.75C14.7385 3.0625 14.1812 2.5 13.5 2.5C12.8188 2.5 12.2615 3.0625 12.2615 3.75C12.2615 4.4375 12.8188 5 13.5 5C14.1812 5 14.7385 4.4375 14.7385 3.75ZM19.6617 3.75C19.6617 3.0625 19.1044 2.5 18.4232 2.5C17.742 2.5 17.1846 3.0625 17.1846 3.75C17.1846 4.4375 17.742 5 18.4232 5C19.1044 5 19.6617 4.4375 19.6617 3.75ZM24.5539 3.75C24.5539 3.0625 23.9966 2.5 23.3154 2.5C22.6342 2.5 22.0768 3.0625 22.0768 3.75C22.0768 4.4375 22.6342 5 23.3154 5C24.0275 5 24.5539 4.4375 24.5539 3.75ZM12.2924 6.21875C12.2924 5.53125 11.7351 4.96875 11.0539 4.96875C10.3727 4.96875 9.81537 5.53125 9.81537 6.21875C9.81537 6.90625 10.3727 7.46875 11.0539 7.46875C11.7351 7.46875 12.2924 6.90625 12.2924 6.21875ZM13.5 7.46875C14.1812 7.46875 14.7385 6.90625 14.7385 6.21875C14.7385 5.53125 14.1812 4.96875 13.5 4.96875C12.8188 4.96875 12.2615 5.53125 12.2615 6.21875C12.2924 6.90625 12.8188 7.46875 13.5 7.46875ZM15.9771 7.46875C16.6583 7.46875 17.2156 6.90625 17.2156 6.21875C17.2156 5.53125 16.6583 4.96875 15.9771 4.96875C15.2959 4.96875 14.7385 5.53125 14.7385 6.21875C14.7385 6.90625 15.2959 7.46875 15.9771 7.46875ZM18.4232 7.46875C19.1044 7.46875 19.6617 6.90625 19.6617 6.21875C19.6617 5.53125 19.1044 4.96875 18.4232 4.96875C17.742 4.96875 17.1846 5.53125 17.1846 6.21875C17.1846 6.90625 17.742 7.46875 18.4232 7.46875ZM20.8693 7.46875C21.5505 7.46875 22.1078 6.90625 22.1078 6.21875C22.1078 5.53125 21.5505 4.96875 20.8693 4.96875C20.1881 4.96875 19.6307 5.53125 19.6307 6.21875C19.6617 6.90625 20.1881 7.46875 20.8693 7.46875ZM23.3463 7.46875C24.0275 7.46875 24.5849 6.90625 24.5849 6.21875C24.5849 5.53125 24.0275 4.96875 23.3463 4.96875C22.6651 4.96875 22.1078 5.53125 22.1078 6.21875C22.1078 6.90625 22.6651 7.46875 23.3463 7.46875ZM25.7924 7.46875C26.4736 7.46875 27.031 6.90625 27.031 6.21875C27.031 5.53125 26.4736 4.96875 25.7924 4.96875C25.1112 4.96875 24.5539 5.53125 24.5539 6.21875C24.5539 6.90625 25.1112 7.46875 25.7924 7.46875ZM9.81537 8.71875C9.81537 8.03125 9.25803 7.46875 8.57684 7.46875C7.89564 7.46875 7.3383 8.03125 7.3383 8.71875C7.3383 9.40625 7.89564 9.96875 8.57684 9.96875C9.28899 9.9375 9.81537 9.40625 9.81537 8.71875ZM11.0539 9.9375C11.7351 9.9375 12.2924 9.375 12.2924 8.6875C12.2924 8 11.7351 7.4375 11.0539 7.4375C10.3727 7.4375 9.81537 8 9.81537 8.6875C9.81537 9.40625 10.3727 9.9375 11.0539 9.9375ZM13.5 7.46875C12.8188 7.46875 12.2615 8.03125 12.2615 8.71875C12.2615 9.40625 12.8188 9.96875 13.5 9.96875C14.1812 9.96875 14.7385 9.40625 14.7385 8.71875C14.7385 8.03125 14.1812 7.46875 13.5 7.46875ZM15.9771 7.46875C15.2959 7.46875 14.7385 8.03125 14.7385 8.71875C14.7385 9.40625 15.2959 9.96875 15.9771 9.96875C16.6583 9.96875 17.2156 9.40625 17.2156 8.71875C17.1846 8.03125 16.6583 7.46875 15.9771 7.46875ZM18.4232 7.46875C17.742 7.46875 17.1846 8.03125 17.1846 8.71875C17.1846 9.40625 17.742 9.96875 18.4232 9.96875C19.1044 9.96875 19.6617 9.40625 19.6617 8.71875C19.6617 8.03125 19.1044 7.46875 18.4232 7.46875ZM20.8693 7.46875C20.1881 7.46875 19.6307 8.03125 19.6307 8.71875C19.6307 9.40625 20.1881 9.96875 20.8693 9.96875C21.5505 9.96875 22.1078 9.40625 22.1078 8.71875C22.1078 8.03125 21.5505 7.46875 20.8693 7.46875ZM23.3463 7.46875C22.6651 7.46875 22.1078 8.03125 22.1078 8.71875C22.1078 9.40625 22.6651 9.96875 23.3463 9.96875C24.0275 9.96875 24.5849 9.40625 24.5849 8.71875C24.5539 8.03125 24.0275 7.46875 23.3463 7.46875ZM24.5539 8.71875C24.5539 9.40625 25.1112 9.96875 25.7924 9.96875C26.4736 9.96875 27.031 9.40625 27.031 8.71875C27.031 8.03125 26.4736 7.46875 25.7924 7.46875C25.1112 7.46875 24.5539 8.03125 24.5539 8.71875ZM28.2385 9.9375C28.9197 9.9375 29.4771 9.375 29.4771 8.6875C29.4771 8 28.9197 7.4375 28.2385 7.4375C27.5573 7.4375 27 8 27 8.6875C27.031 9.40625 27.5573 9.9375 28.2385 9.9375ZM7.36927 11.1875C7.36927 10.5 6.81193 9.9375 6.13073 9.9375C5.44954 9.9375 4.8922 10.5 4.8922 11.1875C4.8922 11.875 5.44954 12.4375 6.13073 12.4375C6.81193 12.4375 7.36927 11.875 7.36927 11.1875ZM8.6078 12.4375C9.28899 12.4375 9.84633 11.875 9.84633 11.1875C9.84633 10.5 9.28899 9.9375 8.6078 9.9375C7.92661 9.9375 7.36927 10.5 7.36927 11.1875C7.36927 11.875 7.92661 12.4375 8.6078 12.4375ZM17.1846 11.1875C17.1846 11.875 17.742 12.4375 18.4232 12.4375C19.1044 12.4375 19.6617 11.875 19.6617 11.1875C19.6617 10.5 19.1044 9.9375 18.4232 9.9375C17.742 9.9375 17.1846 10.5 17.1846 11.1875ZM27.031 11.1875C27.031 11.875 27.5883 12.4375 28.2695 12.4375C28.9507 12.4375 29.508 11.875 29.508 11.1875C29.508 10.5 28.9507 9.9375 28.2695 9.9375C27.5573 9.9375 27.031 10.5 27.031 11.1875ZM30.7156 12.4375C31.3968 12.4375 31.9541 11.875 31.9541 11.1875C31.9541 10.5 31.3968 9.9375 30.7156 9.9375C30.0344 9.9375 29.4771 10.5 29.4771 11.1875C29.4771 11.875 30.0344 12.4375 30.7156 12.4375ZM7.36927 13.6562C7.36927 12.9688 6.81193 12.4062 6.13073 12.4062C5.44954 12.4062 4.8922 12.9688 4.8922 13.6562C4.8922 14.3438 5.44954 14.9062 6.13073 14.9062C6.81193 14.9062 7.36927 14.3438 7.36927 13.6562ZM7.36927 13.6562C7.36927 14.3438 7.92661 14.9062 8.6078 14.9062C9.28899 14.9062 9.84633 14.3438 9.84633 13.6562C9.84633 12.9688 9.28899 12.4062 8.6078 12.4062C7.92661 12.4375 7.36927 12.9688 7.36927 13.6562ZM17.1846 13.6562C17.1846 14.3438 17.742 14.9062 18.4232 14.9062C19.1044 14.9062 19.6617 14.3438 19.6617 13.6562C19.6617 12.9688 19.1044 12.4062 18.4232 12.4062C17.742 12.4375 17.1846 12.9688 17.1846 13.6562ZM28.2385 12.4375C27.5573 12.4375 27 13 27 13.6875C27 14.375 27.5573 14.9375 28.2385 14.9375C28.9197 14.9375 29.4771 14.375 29.4771 13.6875C29.4771 12.9688 28.9197 12.4375 28.2385 12.4375ZM29.4771 13.6562C29.4771 14.3438 30.0344 14.9062 30.7156 14.9062C31.3968 14.9062 31.9541 14.3438 31.9541 13.6562C31.9541 12.9688 31.3968 12.4062 30.7156 12.4062C30.0344 12.4375 29.4771 12.9688 29.4771 13.6562ZM1.23853 14.9062C0.557339 14.9062 0 15.4688 0 16.1562C0 16.8438 0.557339 17.4062 1.23853 17.4062C1.91972 17.4062 2.47706 16.8438 2.47706 16.1562C2.4461 15.4688 1.91972 14.9062 1.23853 14.9062ZM4.92316 16.1562C4.92316 15.4688 4.36583 14.9062 3.68463 14.9062C3.00344 14.9062 2.4461 15.4688 2.4461 16.1562C2.4461 16.8438 3.00344 17.4062 3.68463 17.4062C4.36583 17.375 4.92316 16.8438 4.92316 16.1562ZM6.13073 14.9062C5.44954 14.9062 4.8922 15.4688 4.8922 16.1562C4.8922 16.8438 5.44954 17.4062 6.13073 17.4062C6.81193 17.4062 7.36927 16.8438 7.36927 16.1562C7.36927 15.4688 6.81193 14.9062 6.13073 14.9062ZM8.6078 14.9062C7.92661 14.9062 7.36927 15.4688 7.36927 16.1562C7.36927 16.8438 7.92661 17.4062 8.6078 17.4062C9.28899 17.4062 9.84633 16.8438 9.84633 16.1562C9.81537 15.4688 9.28899 14.9062 8.6078 14.9062ZM12.2924 16.1562C12.2924 15.4688 11.7351 14.9062 11.0539 14.9062C10.3727 14.9062 9.81537 15.4688 9.81537 16.1562C9.81537 16.8438 10.3727 17.4062 11.0539 17.4062C11.7351 17.375 12.2924 16.8438 12.2924 16.1562ZM14.7385 16.1562C14.7385 15.4688 14.1812 14.9062 13.5 14.9062C12.8188 14.9062 12.2615 15.4688 12.2615 16.1562C12.2615 16.8438 12.8188 17.4062 13.5 17.4062C14.1812 17.375 14.7385 16.8438 14.7385 16.1562ZM15.9771 17.375C16.6583 17.375 17.2156 16.8125 17.2156 16.125C17.2156 15.4375 16.6583 14.875 15.9771 14.875C15.2959 14.875 14.7385 15.4375 14.7385 16.125C14.7385 16.8438 15.2959 17.375 15.9771 17.375ZM17.1846 16.1562C17.1846 16.8438 17.742 17.4062 18.4232 17.4062C19.1044 17.4062 19.6617 16.8438 19.6617 16.1562C19.6617 15.4688 19.1044 14.9062 18.4232 14.9062C17.742 14.9062 17.1846 15.4688 17.1846 16.1562ZM20.8693 17.375C21.5505 17.375 22.1078 16.8125 22.1078 16.125C22.1078 15.4375 21.5505 14.875 20.8693 14.875C20.1881 14.875 19.6307 15.4375 19.6307 16.125C19.6617 16.8438 20.1881 17.375 20.8693 17.375ZM23.3463 17.375C24.0275 17.375 24.5849 16.8125 24.5849 16.125C24.5849 15.4375 24.0275 14.875 23.3463 14.875C22.6651 14.875 22.1078 15.4375 22.1078 16.125C22.1078 16.8438 22.6651 17.375 23.3463 17.375ZM25.7924 14.9062C25.1112 14.9062 24.5539 15.4688 24.5539 16.1562C24.5539 16.8438 25.1112 17.4062 25.7924 17.4062C26.4736 17.4062 27.031 16.8438 27.031 16.1562C27.031 15.4688 26.4736 14.9062 25.7924 14.9062ZM28.2385 14.9062C27.5573 14.9062 27 15.4688 27 16.1562C27 16.8438 27.5573 17.4062 28.2385 17.4062C28.9197 17.4062 29.4771 16.8438 29.4771 16.1562C29.4771 15.4688 28.9197 14.9062 28.2385 14.9062ZM31.9232 16.1562C31.9232 15.4688 31.3658 14.9062 30.6846 14.9062C30.0034 14.9062 29.4461 15.4688 29.4461 16.1562C29.4461 16.8438 30.0034 17.4062 30.6846 17.4062C31.3968 17.375 31.9232 16.8438 31.9232 16.1562ZM33.1617 14.9062C32.4805 14.9062 31.9232 15.4688 31.9232 16.1562C31.9232 16.8438 32.4805 17.4062 33.1617 17.4062C33.8429 17.4062 34.4002 16.8438 34.4002 16.1562C34.4002 15.4688 33.8429 14.9062 33.1617 14.9062ZM35.6078 14.9062C34.9266 14.9062 34.3693 15.4688 34.3693 16.1562C34.3693 16.8438 34.9266 17.4062 35.6078 17.4062C36.289 17.4062 36.8463 16.8438 36.8463 16.1562C36.8463 15.4688 36.289 14.9062 35.6078 14.9062ZM3.68463 17.375C3.00344 17.375 2.4461 17.9375 2.4461 18.625C2.4461 19.3125 3.00344 19.875 3.68463 19.875C4.36583 19.875 4.92316 19.3125 4.92316 18.625C4.92316 17.9375 4.36583 17.375 3.68463 17.375ZM4.92316 18.625C4.92316 19.3125 5.4805 19.875 6.1617 19.875C6.84289 19.875 7.40023 19.3125 7.40023 18.625C7.40023 17.9375 6.84289 17.375 6.1617 17.375C5.44954 17.375 4.92316 17.9375 4.92316 18.625ZM11.0539 17.375C10.3727 17.375 9.81537 17.9375 9.81537 18.625C9.81537 19.3125 10.3727 19.875 11.0539 19.875C11.7351 19.875 12.2924 19.3125 12.2924 18.625C12.2924 17.9375 11.7351 17.375 11.0539 17.375ZM14.7385 18.625C14.7385 17.9375 14.1812 17.375 13.5 17.375C12.8188 17.375 12.2615 17.9375 12.2615 18.625C12.2615 19.3125 12.8188 19.875 13.5 19.875C14.1812 19.875 14.7385 19.3125 14.7385 18.625ZM15.9771 17.375C15.2959 17.375 14.7385 17.9375 14.7385 18.625C14.7385 19.3125 15.2959 19.875 15.9771 19.875C16.6583 19.875 17.2156 19.3125 17.2156 18.625C17.1846 17.9375 16.6583 17.375 15.9771 17.375ZM18.4232 17.375C17.742 17.375 17.1846 17.9375 17.1846 18.625C17.1846 19.3125 17.742 19.875 18.4232 19.875C19.1044 19.875 19.6617 19.3125 19.6617 18.625C19.6617 17.9375 19.1044 17.375 18.4232 17.375ZM20.8693 17.375C20.1881 17.375 19.6307 17.9375 19.6307 18.625C19.6307 19.3125 20.1881 19.875 20.8693 19.875C21.5505 19.875 22.1078 19.3125 22.1078 18.625C22.1078 17.9375 21.5505 17.375 20.8693 17.375ZM23.3463 17.375C22.6651 17.375 22.1078 17.9375 22.1078 18.625C22.1078 19.3125 22.6651 19.875 23.3463 19.875C24.0275 19.875 24.5849 19.3125 24.5849 18.625C24.5539 17.9375 24.0275 17.375 23.3463 17.375ZM24.5539 18.625C24.5539 19.3125 25.1112 19.875 25.7924 19.875C26.4736 19.875 27.031 19.3125 27.031 18.625C27.031 17.9375 26.4736 17.375 25.7924 17.375C25.1112 17.375 24.5539 17.9375 24.5539 18.625ZM30.7156 17.375C30.0344 17.375 29.4771 17.9375 29.4771 18.625C29.4771 19.3125 30.0344 19.875 30.7156 19.875C31.3968 19.875 31.9541 19.3125 31.9541 18.625C31.9232 17.9375 31.3968 17.375 30.7156 17.375ZM31.9232 18.625C31.9232 19.3125 32.4805 19.875 33.1617 19.875C33.8429 19.875 34.4002 19.3125 34.4002 18.625C34.4002 17.9375 33.8429 17.375 33.1617 17.375C32.4805 17.375 31.9232 17.9375 31.9232 18.625ZM14.7385 21.0938C14.7385 20.4062 14.1812 19.8438 13.5 19.8438C12.8188 19.8438 12.2615 20.4062 12.2615 21.0938C12.2615 21.7812 12.8188 22.3438 13.5 22.3438C14.1812 22.3438 14.7385 21.7812 14.7385 21.0938ZM15.9771 19.875C15.2959 19.875 14.7385 20.4375 14.7385 21.125C14.7385 21.8125 15.2959 22.375 15.9771 22.375C16.6583 22.375 17.2156 21.8125 17.2156 21.125C17.1846 20.4062 16.6583 19.875 15.9771 19.875ZM18.4232 19.875C17.742 19.875 17.1846 20.4375 17.1846 21.125C17.1846 21.8125 17.742 22.375 18.4232 22.375C19.1044 22.375 19.6617 21.8125 19.6617 21.125C19.6617 20.4062 19.1044 19.875 18.4232 19.875ZM22.1078 21.0938C22.1078 20.4062 21.5505 19.8438 20.8693 19.8438C20.1881 19.8438 19.6307 20.4062 19.6307 21.0938C19.6307 21.7812 20.1881 22.3438 20.8693 22.3438C21.5505 22.3438 22.1078 21.7812 22.1078 21.0938ZM22.1078 21.0938C22.1078 21.7812 22.6651 22.3438 23.3463 22.3438C24.0275 22.3438 24.5849 21.7812 24.5849 21.0938C24.5849 20.4062 24.0275 19.8438 23.3463 19.8438C22.6651 19.875 22.1078 20.4062 22.1078 21.0938ZM9.81537 23.5938C9.81537 22.9062 9.25803 22.3438 8.57684 22.3438C7.89564 22.3438 7.3383 22.9062 7.3383 23.5938C7.3383 24.2812 7.89564 24.8438 8.57684 24.8438C9.28899 24.8125 9.81537 24.2812 9.81537 23.5938ZM11.0539 24.8125C11.7351 24.8125 12.2924 24.25 12.2924 23.5625C12.2924 22.875 11.7351 22.3125 11.0539 22.3125C10.3727 22.3125 9.81537 22.875 9.81537 23.5625C9.81537 24.2812 10.3727 24.8125 11.0539 24.8125ZM13.5 22.3438C12.8188 22.3438 12.2615 22.9062 12.2615 23.5938C12.2615 24.2812 12.8188 24.8438 13.5 24.8438C14.1812 24.8438 14.7385 24.2812 14.7385 23.5938C14.7385 22.9062 14.1812 22.3438 13.5 22.3438ZM14.7385 23.5938C14.7385 24.2812 15.2959 24.8438 15.9771 24.8438C16.6583 24.8438 17.2156 24.2812 17.2156 23.5938C17.2156 22.9062 16.6583 22.3438 15.9771 22.3438C15.2959 22.3438 14.7385 22.9062 14.7385 23.5938ZM20.8693 22.3438C20.1881 22.3438 19.6307 22.9062 19.6307 23.5938C19.6307 24.2812 20.1881 24.8438 20.8693 24.8438C21.5505 24.8438 22.1078 24.2812 22.1078 23.5938C22.1078 22.9062 21.5505 22.3438 20.8693 22.3438ZM22.1078 23.5938C22.1078 24.2812 22.6651 24.8438 23.3463 24.8438C24.0275 24.8438 24.5849 24.2812 24.5849 23.5938C24.5849 22.9062 24.0275 22.3438 23.3463 22.3438C22.6651 22.3438 22.1078 22.9062 22.1078 23.5938ZM25.7924 24.8125C26.4736 24.8125 27.031 24.25 27.031 23.5625C27.031 22.875 26.4736 22.3125 25.7924 22.3125C25.1112 22.3125 24.5539 22.875 24.5539 23.5625C24.5539 24.2812 25.1112 24.8125 25.7924 24.8125ZM28.2385 24.8125C28.9197 24.8125 29.4771 24.25 29.4771 23.5625C29.4771 22.875 28.9197 22.3125 28.2385 22.3125C27.5573 22.3125 27 22.875 27 23.5625C27.031 24.2812 27.5573 24.8125 28.2385 24.8125ZM7.36927 26.0625C7.36927 25.375 6.81193 24.8125 6.13073 24.8125C5.44954 24.8125 4.8922 25.375 4.8922 26.0625C4.8922 26.75 5.44954 27.3125 6.13073 27.3125C6.81193 27.3125 7.36927 26.75 7.36927 26.0625ZM8.6078 27.3125C9.28899 27.3125 9.84633 26.75 9.84633 26.0625C9.84633 25.375 9.28899 24.8125 8.6078 24.8125C7.92661 24.8125 7.36927 25.375 7.36927 26.0625C7.36927 26.75 7.92661 27.3125 8.6078 27.3125ZM9.81537 26.0625C9.81537 26.75 10.3727 27.3125 11.0539 27.3125C11.7351 27.3125 12.2924 26.75 12.2924 26.0625C12.2924 25.375 11.7351 24.8125 11.0539 24.8125C10.3727 24.8125 9.81537 25.375 9.81537 26.0625ZM12.2924 26.0625C12.2924 26.75 12.8498 27.3125 13.531 27.3125C14.2122 27.3125 14.7695 26.75 14.7695 26.0625C14.7695 25.375 14.2122 24.8125 13.531 24.8125C12.8188 24.8125 12.2924 25.375 12.2924 26.0625ZM24.5539 26.0625C24.5539 25.375 23.9966 24.8125 23.3154 24.8125C22.6342 24.8125 22.0768 25.375 22.0768 26.0625C22.0768 26.75 22.6342 27.3125 23.3154 27.3125C24.0275 27.3125 24.5539 26.75 24.5539 26.0625ZM25.7924 27.3125C26.4736 27.3125 27.031 26.75 27.031 26.0625C27.031 25.375 26.4736 24.8125 25.7924 24.8125C25.1112 24.8125 24.5539 25.375 24.5539 26.0625C24.5539 26.75 25.1112 27.3125 25.7924 27.3125ZM27.031 26.0625C27.031 26.75 27.5883 27.3125 28.2695 27.3125C28.9507 27.3125 29.508 26.75 29.508 26.0625C29.508 25.375 28.9507 24.8125 28.2695 24.8125C27.5573 24.8125 27.031 25.375 27.031 26.0625ZM30.7156 27.3125C31.3968 27.3125 31.9541 26.75 31.9541 26.0625C31.9541 25.375 31.3968 24.8125 30.7156 24.8125C30.0344 24.8125 29.4771 25.375 29.4771 26.0625C29.4771 26.75 30.0344 27.3125 30.7156 27.3125ZM6.13073 27.3125C5.44954 27.3125 4.8922 27.875 4.8922 28.5625C4.8922 29.25 5.44954 29.8125 6.13073 29.8125C6.81193 29.8125 7.36927 29.25 7.36927 28.5625C7.36927 27.875 6.81193 27.3125 6.13073 27.3125ZM8.6078 27.3125C7.92661 27.3125 7.36927 27.875 7.36927 28.5625C7.36927 29.25 7.92661 29.8125 8.6078 29.8125C9.28899 29.8125 9.84633 29.25 9.84633 28.5625C9.84633 27.875 9.28899 27.3125 8.6078 27.3125ZM11.0539 27.3125C10.3727 27.3125 9.81537 27.875 9.81537 28.5625C9.81537 29.25 10.3727 29.8125 11.0539 29.8125C11.7351 29.8125 12.2924 29.25 12.2924 28.5625C12.2924 27.875 11.7351 27.3125 11.0539 27.3125ZM12.2924 28.5312C12.2924 29.2187 12.8498 29.7812 13.531 29.7812C14.2122 29.7812 14.7695 29.2187 14.7695 28.5312C14.7695 27.8437 14.2122 27.2812 13.531 27.2812C12.8188 27.3125 12.2924 27.8437 12.2924 28.5312ZM23.3463 27.3125C22.6651 27.3125 22.1078 27.875 22.1078 28.5625C22.1078 29.25 22.6651 29.8125 23.3463 29.8125C24.0275 29.8125 24.5849 29.25 24.5849 28.5625C24.5849 27.875 24.0275 27.3125 23.3463 27.3125ZM25.7924 27.3125C25.1112 27.3125 24.5539 27.875 24.5539 28.5625C24.5539 29.25 25.1112 29.8125 25.7924 29.8125C26.4736 29.8125 27.031 29.25 27.031 28.5625C27.031 27.875 26.4736 27.3125 25.7924 27.3125ZM28.2385 27.3125C27.5573 27.3125 27 27.875 27 28.5625C27 29.25 27.5573 29.8125 28.2385 29.8125C28.9197 29.8125 29.4771 29.25 29.4771 28.5625C29.4771 27.875 28.9197 27.3125 28.2385 27.3125ZM29.4771 28.5312C29.4771 29.2187 30.0344 29.7812 30.7156 29.7812C31.3968 29.7812 31.9541 29.2187 31.9541 28.5312C31.9541 27.8437 31.3968 27.2812 30.7156 27.2812C30.0344 27.3125 29.4771 27.8437 29.4771 28.5312Z" fill="black"/>
</svg>