<?xml version="1.0" encoding="utf-8"?>
<!-- Generator: Adobe Illustrator 27.7.0, SVG Export Plug-In . SVG Version: 6.00 Build 0)  -->
<svg version="1.1" id="Layer_1" xmlns="http://www.w3.org/2000/svg" xmlns:xlink="http://www.w3.org/1999/xlink" x="0px" y="0px"
	 viewBox="0 0 37 30" style="enable-background:new 0 0 37 30;" xml:space="preserve">
<style type="text/css">
	.st0{fill:#FF3C00;}
</style>
<path class="st0" d="M11.1,0c-0.7,0-1.2,0.6-1.2,1.2s0.6,1.2,1.2,1.2s1.2-0.6,1.2-1.2S11.7,0,11.1,0z M14.7,1.3
	c0-0.7-0.6-1.2-1.2-1.2s-1.2,0.6-1.2,1.2s0.6,1.2,1.2,1.2C14.2,2.5,14.7,2,14.7,1.3z M24.6,1.3C24.6,0.6,24,0,23.3,0
	s-1.2,0.6-1.2,1.2s0.6,1.2,1.2,1.2C24,2.5,24.6,2,24.6,1.3z M25.8,2.5c0.7,0,1.2-0.6,1.2-1.2S26.5,0,25.8,0s-1.2,0.6-1.2,1.2
	C24.6,2,25.1,2.5,25.8,2.5z M14.7,3.8c0-0.7-0.6-1.2-1.2-1.2s-1.2,0.6-1.2,1.2S12.8,5,13.5,5S14.7,4.4,14.7,3.8z M19.7,3.8
	c0-0.7-0.6-1.2-1.2-1.2s-1.2,0.6-1.2,1.2S17.7,5,18.4,5S19.7,4.4,19.7,3.8z M24.6,3.8c0-0.7-0.6-1.2-1.2-1.2s-1.2,0.6-1.2,1.2
	S22.6,5,23.3,5C24,5,24.6,4.4,24.6,3.8z M12.3,6.2c0-0.7-0.6-1.2-1.2-1.2S9.8,5.5,9.8,6.2s0.6,1.2,1.2,1.2S12.3,6.9,12.3,6.2z
	 M13.5,7.5c0.7,0,1.2-0.6,1.2-1.2S14.2,5,13.5,5s-1.2,0.6-1.2,1.2C12.3,6.9,12.8,7.5,13.5,7.5z M16,7.5c0.7,0,1.2-0.6,1.2-1.2
	S16.7,5,16,5s-1.2,0.6-1.2,1.2S15.3,7.5,16,7.5z M18.4,7.5c0.7,0,1.2-0.6,1.2-1.2S19.1,5,18.4,5s-1.2,0.6-1.2,1.2S17.7,7.5,18.4,7.5
	z M20.9,7.5c0.7,0,1.2-0.6,1.2-1.2S21.6,5,20.9,5s-1.2,0.6-1.2,1.2C19.7,6.9,20.2,7.5,20.9,7.5z M23.3,7.5c0.7,0,1.2-0.6,1.2-1.2
	S24,5,23.3,5s-1.2,0.6-1.2,1.2S22.7,7.5,23.3,7.5z M25.8,7.5c0.7,0,1.2-0.6,1.2-1.2S26.5,5,25.8,5s-1.2,0.6-1.2,1.2
	S25.1,7.5,25.8,7.5z M9.8,8.7c0-0.7-0.6-1.2-1.2-1.2C7.9,7.5,7.3,8,7.3,8.7S7.9,10,8.6,10C9.3,9.9,9.8,9.4,9.8,8.7z M11.1,9.9
	c0.7,0,1.2-0.6,1.2-1.2s-0.6-1.2-1.2-1.2S9.8,8,9.8,8.7C9.8,9.4,10.4,9.9,11.1,9.9z M13.5,7.5c-0.7,0-1.2,0.6-1.2,1.2
	s0.6,1.2,1.2,1.2s1.2-0.6,1.2-1.2S14.2,7.5,13.5,7.5z M16,7.5c-0.7,0-1.2,0.6-1.2,1.2S15.3,10,16,10s1.2-0.6,1.2-1.2
	C17.2,8,16.7,7.5,16,7.5z M18.4,7.5c-0.7,0-1.2,0.6-1.2,1.2s0.6,1.2,1.2,1.2s1.2-0.6,1.2-1.2S19.1,7.5,18.4,7.5z M20.9,7.5
	c-0.7,0-1.2,0.6-1.2,1.2s0.6,1.2,1.2,1.2s1.2-0.6,1.2-1.2S21.6,7.5,20.9,7.5z M23.3,7.5c-0.7,0-1.2,0.6-1.2,1.2s0.6,1.2,1.2,1.2
	s1.2-0.6,1.2-1.2C24.6,8,24,7.5,23.3,7.5z M24.6,8.7c0,0.7,0.6,1.2,1.2,1.2S27,9.4,27,8.7s-0.6-1.2-1.2-1.2S24.6,8,24.6,8.7z
	 M28.2,9.9c0.7,0,1.2-0.6,1.2-1.2s-0.6-1.2-1.2-1.2S27,8,27,8.7C27,9.4,27.6,9.9,28.2,9.9z M7.4,11.2c0-0.7-0.6-1.2-1.2-1.2
	c-0.7,0-1.2,0.6-1.2,1.2s0.6,1.2,1.2,1.2C6.8,12.4,7.4,11.9,7.4,11.2z M8.6,12.4c0.7,0,1.2-0.6,1.2-1.2S9.3,9.9,8.6,9.9
	c-0.7,0-1.2,0.6-1.2,1.2S7.9,12.4,8.6,12.4z M17.2,11.2c0,0.7,0.6,1.2,1.2,1.2s1.2-0.6,1.2-1.2s-0.6-1.2-1.2-1.2
	S17.2,10.5,17.2,11.2z M27,11.2c0,0.7,0.6,1.2,1.2,1.2s1.2-0.6,1.2-1.2S29,9.9,28.3,9.9C27.6,9.9,27,10.5,27,11.2z M30.7,12.4
	c0.7,0,1.2-0.6,1.2-1.2s-0.6-1.2-1.2-1.2c-0.7,0-1.2,0.6-1.2,1.2S30,12.4,30.7,12.4z M7.4,13.7c0-0.7-0.6-1.2-1.2-1.2
	c-0.7,0-1.2,0.6-1.2,1.2c0,0.7,0.6,1.2,1.2,1.2C6.8,14.9,7.4,14.3,7.4,13.7z M7.4,13.7c0,0.7,0.6,1.2,1.2,1.2c0.7,0,1.2-0.6,1.2-1.2
	c0-0.7-0.6-1.2-1.2-1.2C7.9,12.4,7.4,13,7.4,13.7z M17.2,13.7c0,0.7,0.6,1.2,1.2,1.2s1.2-0.6,1.2-1.2c0-0.7-0.6-1.2-1.2-1.2
	C17.7,12.4,17.2,13,17.2,13.7z M28.2,12.4c-0.7,0-1.2,0.6-1.2,1.2s0.6,1.2,1.2,1.2s1.2-0.6,1.2-1.2C29.5,13,28.9,12.4,28.2,12.4z
	 M29.5,13.7c0,0.7,0.6,1.2,1.2,1.2c0.7,0,1.2-0.6,1.2-1.2c0-0.7-0.6-1.2-1.2-1.2C30,12.4,29.5,13,29.5,13.7z M1.2,14.9
	c-0.7,0-1.2,0.6-1.2,1.2c0,0.7,0.6,1.2,1.2,1.2c0.7,0,1.2-0.6,1.2-1.2C2.4,15.5,1.9,14.9,1.2,14.9z M4.9,16.2c0-0.7-0.6-1.2-1.2-1.2
	c-0.7,0-1.2,0.6-1.2,1.2c0,0.7,0.6,1.2,1.2,1.2C4.4,17.4,4.9,16.8,4.9,16.2z M6.1,14.9c-0.7,0-1.2,0.6-1.2,1.2
	c0,0.7,0.6,1.2,1.2,1.2c0.7,0,1.2-0.6,1.2-1.2C7.4,15.5,6.8,14.9,6.1,14.9z M8.6,14.9c-0.7,0-1.2,0.6-1.2,1.2c0,0.7,0.6,1.2,1.2,1.2
	c0.7,0,1.2-0.6,1.2-1.2C9.8,15.5,9.3,14.9,8.6,14.9z M12.3,16.2c0-0.7-0.6-1.2-1.2-1.2s-1.2,0.6-1.2,1.2c0,0.7,0.6,1.2,1.2,1.2
	C11.7,17.4,12.3,16.8,12.3,16.2z M14.7,16.2c0-0.7-0.6-1.2-1.2-1.2s-1.2,0.6-1.2,1.2c0,0.7,0.6,1.2,1.2,1.2
	C14.2,17.4,14.7,16.8,14.7,16.2z M16,17.4c0.7,0,1.2-0.6,1.2-1.2s-0.6-1.2-1.2-1.2s-1.2,0.6-1.2,1.2C14.7,16.8,15.3,17.4,16,17.4z
	 M17.2,16.2c0,0.7,0.6,1.2,1.2,1.2s1.2-0.6,1.2-1.2c0-0.7-0.6-1.2-1.2-1.2S17.2,15.5,17.2,16.2z M20.9,17.4c0.7,0,1.2-0.6,1.2-1.2
	s-0.6-1.2-1.2-1.2s-1.2,0.6-1.2,1.2C19.7,16.8,20.2,17.4,20.9,17.4z M23.3,17.4c0.7,0,1.2-0.6,1.2-1.2s-0.6-1.2-1.2-1.2
	s-1.2,0.6-1.2,1.2C22.1,16.8,22.7,17.4,23.3,17.4z M25.8,14.9c-0.7,0-1.2,0.6-1.2,1.2c0,0.7,0.6,1.2,1.2,1.2s1.2-0.6,1.2-1.2
	C27,15.5,26.5,14.9,25.8,14.9z M28.2,14.9c-0.7,0-1.2,0.6-1.2,1.2c0,0.7,0.6,1.2,1.2,1.2s1.2-0.6,1.2-1.2
	C29.5,15.5,28.9,14.9,28.2,14.9z M31.9,16.2c0-0.7-0.6-1.2-1.2-1.2s-1.2,0.6-1.2,1.2c0,0.7,0.6,1.2,1.2,1.2
	C31.4,17.4,31.9,16.8,31.9,16.2z M33.2,14.9c-0.7,0-1.2,0.6-1.2,1.2c0,0.7,0.6,1.2,1.2,1.2c0.7,0,1.2-0.6,1.2-1.2
	C34.4,15.5,33.8,14.9,33.2,14.9z M35.6,14.9c-0.7,0-1.2,0.6-1.2,1.2c0,0.7,0.6,1.2,1.2,1.2c0.7,0,1.2-0.6,1.2-1.2
	C36.8,15.5,36.3,14.9,35.6,14.9z M3.7,17.4c-0.7,0-1.2,0.6-1.2,1.2s0.6,1.2,1.2,1.2c0.7,0,1.2-0.6,1.2-1.2S4.4,17.4,3.7,17.4z
	 M4.9,18.6c0,0.7,0.6,1.2,1.2,1.2c0.7,0,1.2-0.6,1.2-1.2s-0.6-1.2-1.2-1.2C5.4,17.4,4.9,17.9,4.9,18.6z M11.1,17.4
	c-0.7,0-1.2,0.6-1.2,1.2s0.6,1.2,1.2,1.2s1.2-0.6,1.2-1.2S11.7,17.4,11.1,17.4z M14.7,18.6c0-0.7-0.6-1.2-1.2-1.2s-1.2,0.6-1.2,1.2
	s0.6,1.2,1.2,1.2S14.7,19.3,14.7,18.6z M16,17.4c-0.7,0-1.2,0.6-1.2,1.2s0.6,1.2,1.2,1.2s1.2-0.6,1.2-1.2
	C17.2,17.9,16.7,17.4,16,17.4z M18.4,17.4c-0.7,0-1.2,0.6-1.2,1.2s0.6,1.2,1.2,1.2s1.2-0.6,1.2-1.2S19.1,17.4,18.4,17.4z M20.9,17.4
	c-0.7,0-1.2,0.6-1.2,1.2s0.6,1.2,1.2,1.2s1.2-0.6,1.2-1.2S21.6,17.4,20.9,17.4z M23.3,17.4c-0.7,0-1.2,0.6-1.2,1.2s0.6,1.2,1.2,1.2
	s1.2-0.6,1.2-1.2C24.6,17.9,24,17.4,23.3,17.4z M24.6,18.6c0,0.7,0.6,1.2,1.2,1.2s1.2-0.6,1.2-1.2s-0.6-1.2-1.2-1.2
	S24.6,17.9,24.6,18.6z M30.7,17.4c-0.7,0-1.2,0.6-1.2,1.2s0.6,1.2,1.2,1.2c0.7,0,1.2-0.6,1.2-1.2C31.9,17.9,31.4,17.4,30.7,17.4z
	 M31.9,18.6c0,0.7,0.6,1.2,1.2,1.2c0.7,0,1.2-0.6,1.2-1.2s-0.6-1.2-1.2-1.2C32.5,17.4,31.9,17.9,31.9,18.6z M14.7,21.1
	c0-0.7-0.6-1.2-1.2-1.2s-1.2,0.6-1.2,1.2c0,0.7,0.6,1.2,1.2,1.2S14.7,21.8,14.7,21.1z M16,19.9c-0.7,0-1.2,0.6-1.2,1.2
	s0.6,1.2,1.2,1.2s1.2-0.6,1.2-1.2C17.2,20.4,16.7,19.9,16,19.9z M18.4,19.9c-0.7,0-1.2,0.6-1.2,1.2s0.6,1.2,1.2,1.2s1.2-0.6,1.2-1.2
	C19.7,20.4,19.1,19.9,18.4,19.9z M22.1,21.1c0-0.7-0.6-1.2-1.2-1.2s-1.2,0.6-1.2,1.2c0,0.7,0.6,1.2,1.2,1.2S22.1,21.8,22.1,21.1z
	 M22.1,21.1c0,0.7,0.6,1.2,1.2,1.2s1.2-0.6,1.2-1.2c0-0.7-0.6-1.2-1.2-1.2C22.7,19.9,22.1,20.4,22.1,21.1z M9.8,23.6
	c0-0.7-0.6-1.2-1.2-1.2c-0.7,0-1.2,0.6-1.2,1.2c0,0.7,0.6,1.2,1.2,1.2C9.3,24.8,9.8,24.3,9.8,23.6z M11.1,24.8
	c0.7,0,1.2-0.6,1.2-1.2s-0.6-1.2-1.2-1.2s-1.2,0.6-1.2,1.2C9.8,24.3,10.4,24.8,11.1,24.8z M13.5,22.3c-0.7,0-1.2,0.6-1.2,1.2
	c0,0.7,0.6,1.2,1.2,1.2s1.2-0.6,1.2-1.2C14.7,22.9,14.2,22.3,13.5,22.3z M14.7,23.6c0,0.7,0.6,1.2,1.2,1.2s1.2-0.6,1.2-1.2
	c0-0.7-0.6-1.2-1.2-1.2S14.7,22.9,14.7,23.6z M20.9,22.3c-0.7,0-1.2,0.6-1.2,1.2c0,0.7,0.6,1.2,1.2,1.2s1.2-0.6,1.2-1.2
	C22.1,22.9,21.6,22.3,20.9,22.3z M22.1,23.6c0,0.7,0.6,1.2,1.2,1.2s1.2-0.6,1.2-1.2c0-0.7-0.6-1.2-1.2-1.2S22.1,22.9,22.1,23.6z
	 M25.8,24.8c0.7,0,1.2-0.6,1.2-1.2s-0.6-1.2-1.2-1.2s-1.2,0.6-1.2,1.2C24.6,24.3,25.1,24.8,25.8,24.8z M28.2,24.8
	c0.7,0,1.2-0.6,1.2-1.2s-0.6-1.2-1.2-1.2S27,22.9,27,23.6C27,24.3,27.6,24.8,28.2,24.8z M7.4,26.1c0-0.7-0.6-1.2-1.2-1.2
	c-0.7,0-1.2,0.6-1.2,1.2s0.6,1.2,1.2,1.2C6.8,27.3,7.4,26.8,7.4,26.1z M8.6,27.3c0.7,0,1.2-0.6,1.2-1.2s-0.6-1.2-1.2-1.2
	c-0.7,0-1.2,0.6-1.2,1.2S7.9,27.3,8.6,27.3z M9.8,26.1c0,0.7,0.6,1.2,1.2,1.2s1.2-0.6,1.2-1.2s-0.6-1.2-1.2-1.2S9.8,25.4,9.8,26.1z
	 M12.3,26.1c0,0.7,0.6,1.2,1.2,1.2s1.2-0.6,1.2-1.2s-0.6-1.2-1.2-1.2C12.8,24.8,12.3,25.4,12.3,26.1z M24.6,26.1
	c0-0.7-0.6-1.2-1.2-1.2s-1.2,0.6-1.2,1.2s0.6,1.2,1.2,1.2C24,27.3,24.6,26.8,24.6,26.1z M25.8,27.3c0.7,0,1.2-0.6,1.2-1.2
	s-0.6-1.2-1.2-1.2s-1.2,0.6-1.2,1.2S25.1,27.3,25.8,27.3z M27,26.1c0,0.7,0.6,1.2,1.2,1.2s1.2-0.6,1.2-1.2s-0.6-1.2-1.2-1.2
	C27.6,24.8,27,25.4,27,26.1z M30.7,27.3c0.7,0,1.2-0.6,1.2-1.2s-0.6-1.2-1.2-1.2c-0.7,0-1.2,0.6-1.2,1.2S30,27.3,30.7,27.3z
	 M6.1,27.3c-0.7,0-1.2,0.6-1.2,1.2s0.6,1.2,1.2,1.2c0.7,0,1.2-0.6,1.2-1.2S6.8,27.3,6.1,27.3z M8.6,27.3c-0.7,0-1.2,0.6-1.2,1.2
	s0.6,1.2,1.2,1.2c0.7,0,1.2-0.6,1.2-1.2S9.3,27.3,8.6,27.3z M11.1,27.3c-0.7,0-1.2,0.6-1.2,1.2s0.6,1.2,1.2,1.2s1.2-0.6,1.2-1.2
	S11.7,27.3,11.1,27.3z M12.3,28.5c0,0.7,0.6,1.2,1.2,1.2s1.2-0.6,1.2-1.2s-0.6-1.2-1.2-1.2C12.8,27.3,12.3,27.8,12.3,28.5z
	 M23.3,27.3c-0.7,0-1.2,0.6-1.2,1.2s0.6,1.2,1.2,1.2s1.2-0.6,1.2-1.2S24,27.3,23.3,27.3z M25.8,27.3c-0.7,0-1.2,0.6-1.2,1.2
	s0.6,1.2,1.2,1.2s1.2-0.6,1.2-1.2S26.5,27.3,25.8,27.3z M28.2,27.3c-0.7,0-1.2,0.6-1.2,1.2s0.6,1.2,1.2,1.2s1.2-0.6,1.2-1.2
	S28.9,27.3,28.2,27.3z M29.5,28.5c0,0.7,0.6,1.2,1.2,1.2c0.7,0,1.2-0.6,1.2-1.2s-0.6-1.2-1.2-1.2C30,27.3,29.5,27.8,29.5,28.5z"/>
</svg>
