<?xml version="1.0" encoding="utf-8"?>
<!-- Generator: Adobe Illustrator 27.7.0, SVG Export Plug-In . SVG Version: 6.00 Build 0)  -->
<svg version="1.1" id="Layer_1" xmlns="http://www.w3.org/2000/svg" xmlns:xlink="http://www.w3.org/1999/xlink" x="0px" y="0px"
	 viewBox="0 0 45 26" style="enable-background:new 0 0 45 26;" xml:space="preserve">
<style type="text/css">
	.st0{fill:#FF3C00;}
</style>
<path class="st0" d="M0,14v2C15.4,15.1,3.9,14.6,0,14z"/>
<path class="st0" d="M0,17.3v2l0.1,0C11.8,18.2,8.5,17.8,0,17.3z"/>
<path class="st0" d="M0,0v6.4c9.6-0.3,9.7-0.9,4.7-1.5l0.9-1.1c6.2,0.9,5.8,2.5,1.3,3.3c1.5,0.5,6.7,1.5,0.4,3.4
	c1,0.3,6.9,1.7-0.4,3c1.2,0.5,7.2,1.3,0.2,3.2C9,17,13.6,18,7.5,20c2.3,0.2,2.6,0.3,3.2,1.4v4.2h2.8V0H0z"/>
<path class="st0" d="M0,11v2C2.9,12.4,16.1,12.2,0,11z"/>
<path class="st0" d="M0,7.6v2.1C9,9.2,12.1,8.6,0,7.6z"/>
<path class="st0" d="M16.9,6.8h-1.5V6.5h3.4v0.3h-1.5v4.1h-0.3V6.8z"/>
<path class="st0" d="M19.6,6.5h0.3v2h2.8v-2h0.3v4.4h-0.3V8.8h-2.8v2.1h-0.3V6.5z"/>
<path class="st0" d="M24.2,6.5h3.2v0.3h-2.8v1.8h2.5v0.3h-2.5v1.8h2.8v0.3h-3.2V6.5z"/>
<path class="st0" d="M15.5,13.5H17l0.9,2.9l1-2.9H20l1,2.9l0.9-2.9h1.4l-1.7,5.1h-1.2l-1-2.9l-1,2.9h-1.2L15.5,13.5z"/>
<path class="st0" d="M23.3,15.9c0-1.5,1.1-2.7,2.6-2.7c1.8,0,2.6,1.3,2.6,2.8c0,0.1,0,0.3,0,0.4h-3.4c0.2,0.6,0.6,0.8,1.1,0.8
	c0.4,0,0.8-0.2,1.2-0.5l1,0.8c-0.5,0.6-1.2,1.1-2.2,1.1C24.5,18.6,23.3,17.5,23.3,15.9z M26.8,15.5c-0.1-0.6-0.4-0.9-0.9-0.9
	c-0.5,0-0.8,0.4-0.9,0.9H26.8z"/>
<path class="st0" d="M29.5,13.5h2.6c0.6,0,1.1,0.2,1.4,0.4c0.2,0.2,0.3,0.5,0.3,0.8c0,0.6-0.3,0.9-0.8,1.1c0.6,0.2,1,0.5,1,1.2
	c0,0.9-0.7,1.4-1.9,1.4h-2.6L29.5,13.5L29.5,13.5z M32.4,15c0-0.3-0.2-0.4-0.6-0.4h-0.9v0.9h0.9C32.2,15.5,32.4,15.3,32.4,15z
	 M31.9,16.4h-1.1v0.9h1.1c0.4,0,0.7-0.2,0.7-0.5C32.6,16.6,32.4,16.4,31.9,16.4z"/>
<path class="st0" d="M35.1,13.5h2.6c0.6,0,1.1,0.2,1.4,0.4c0.2,0.2,0.3,0.5,0.3,0.8c0,0.6-0.3,0.9-0.8,1.1c0.6,0.2,1,0.5,1,1.2
	c0,0.9-0.7,1.4-1.9,1.4h-2.6L35.1,13.5L35.1,13.5z M38,15c0-0.3-0.2-0.4-0.6-0.4h-0.9v0.9h0.9C37.7,15.5,38,15.3,38,15z M37.5,16.4
	h-1.1v0.9h1.1c0.4,0,0.7-0.2,0.7-0.5C38.2,16.6,38,16.4,37.5,16.4z"/>
<path class="st0" d="M41.5,16.6l-1.9-3.1h1.6l1,1.8l1-1.8h1.6l-1.9,3.1v1.9h-1.4V16.6z"/>
<path class="st0" d="M17.8,20.6h0.3l2.1,4.5h-0.4l-0.6-1.2h-2.6l-0.6,1.2h-0.3L17.8,20.6z M19.1,23.6L18,21l-1.2,2.6H19.1z"/>
<path class="st0" d="M20.2,20.7h0.4l1.4,3.9l1.3-3.9h0.2l1.3,3.9l1.4-3.9h0.3l-1.6,4.5h-0.2l-1.3-3.8L22,25.1h-0.3L20.2,20.7z"/>
<path class="st0" d="M28.7,20.6H29l2.1,4.5h-0.4l-0.6-1.2h-2.6l-0.6,1.2h-0.3L28.7,20.6z M30,23.6L28.8,21l-1.2,2.6H30z"/>
<path class="st0" d="M31.8,20.7h1.9c0.5,0,1,0.2,1.2,0.4c0.2,0.2,0.3,0.5,0.3,0.8c0,0.8-0.6,1.2-1.3,1.3l1.5,1.9H35l-1.4-1.8h-1.4
	v1.8h-0.3L31.8,20.7L31.8,20.7z M33.6,23c0.7,0,1.3-0.4,1.3-1c0-0.6-0.5-1-1.3-1h-1.5v2L33.6,23L33.6,23z"/>
<path class="st0" d="M36.2,20.7h1.5c1.4,0,2.3,1,2.3,2.2c0,1.2-1,2.2-2.3,2.2h-1.5V20.7z M36.5,21v3.8h1.2c1.2,0,2-0.8,2-1.9
	s-0.8-1.9-2-1.9H36.5z"/>
<path class="st0" d="M40.6,24.4l0.2-0.2c0.5,0.4,0.9,0.7,1.6,0.7c0.7,0,1.1-0.4,1.1-0.9c0-0.5-0.2-0.8-1.2-0.9
	c-1.1-0.2-1.5-0.6-1.5-1.2c0-0.7,0.6-1.2,1.4-1.2c0.7,0,1.1,0.2,1.5,0.5l-0.2,0.2c-0.4-0.4-0.8-0.5-1.3-0.5c-0.7,0-1.1,0.4-1.1,0.8
	c0,0.5,0.2,0.8,1.3,1c1,0.2,1.5,0.6,1.5,1.2c0,0.7-0.6,1.2-1.5,1.2C41.7,25.2,41.1,24.9,40.6,24.4z"/>
</svg>
